<ttFont>
    <TTGlyph name="A" xMin="35" yMin="0" xMax="764" yMax="732">
      <contour>
        <pt x="46" y="79" on="1"/>
        <pt x="128" y="79" on="1"/>
        <pt x="220" y="244" on="0"/>
        <pt x="404" y="567" on="0"/>
        <pt x="496" y="732" on="1"/>
        <pt x="543" y="567" on="0"/>
        <pt x="635" y="244" on="0"/>
        <pt x="682" y="79" on="1"/>
        <pt x="764" y="79" on="1"/>
        <pt x="753" y="0" on="1"/>
        <pt x="531" y="0" on="1"/>
        <pt x="542" y="79" on="1"/>
        <pt x="598" y="79" on="1"/>
        <pt x="584" y="129" on="0"/>
        <pt x="556" y="227" on="0"/>
        <pt x="542" y="277" on="1"/>
        <pt x="322" y="277" on="1"/>
        <pt x="211" y="79" on="1"/>
        <pt x="268" y="79" on="1"/>
        <pt x="257" y="0" on="1"/>
        <pt x="35" y="0" on="1"/>
      </contour>
      <contour>
        <pt x="475" y="515" on="1"/>
        <pt x="470" y="548" on="1"/>
        <pt x="469" y="546" on="0"/>
        <pt x="464" y="536" on="0"/>
        <pt x="462" y="530" on="1"/>
        <pt x="458" y="523" on="0"/>
        <pt x="455" y="515" on="1"/>
        <pt x="439" y="486" on="0"/>
        <pt x="423" y="458" on="1"/>
        <pt x="409" y="434" on="0"/>
        <pt x="380" y="378" on="0"/>
        <pt x="368" y="356" on="1"/>
        <pt x="520" y="356" on="1"/>
      </contour>
    </TTGlyph>
    <TTGlyph name="AE" xMin="35" yMin="0" xMax="826" yMax="700">
      <contour>
        <pt x="725" y="546" on="1"/>
        <pt x="736" y="621" on="1"/>
        <pt x="562" y="621" on="1"/>
        <pt x="530" y="392" on="1"/>
        <pt x="744" y="392" on="1"/>
        <pt x="732" y="313" on="1"/>
        <pt x="518" y="313" on="1"/>
        <pt x="486" y="79" on="1"/>
        <pt x="674" y="79" on="1"/>
        <pt x="684" y="154" on="1"/>
        <pt x="763" y="154" on="1"/>
        <pt x="742" y="0" on="1"/>
        <pt x="392" y="0" on="1"/>
        <pt x="429" y="264" on="1"/>
        <pt x="314" y="264" on="1"/>
        <pt x="288" y="217" on="0"/>
        <pt x="235" y="126" on="0"/>
        <pt x="209" y="79" on="1"/>
        <pt x="268" y="79" on="1"/>
        <pt x="257" y="0" on="1"/>
        <pt x="35" y="0" on="1"/>
        <pt x="46" y="79" on="1"/>
        <pt x="126" y="79" on="1"/>
        <pt x="214" y="235" on="0"/>
        <pt x="388" y="544" on="0"/>
        <pt x="476" y="700" on="1"/>
        <pt x="826" y="700" on="1"/>
        <pt x="804" y="546" on="1"/>
      </contour>
      <contour>
        <pt x="440" y="343" on="1"/>
        <pt x="469" y="548" on="1"/>
        <pt x="447" y="496" on="0"/>
        <pt x="386" y="394" on="0"/>
        <pt x="358" y="343" on="1"/>
      </contour>
    </TTGlyph>
    <TTGlyph name="Aacute" xMin="35" yMin="0" xMax="764" yMax="883">
      <component glyphName="acute" x="374" y="271" flags="0x4"/>
      <component glyphName="A" x="0" y="0" flags="0x4"/>
    </TTGlyph>
    <TTGlyph name="Acircumflex" xMin="35" yMin="0" xMax="764" yMax="931">
      <component glyphName="asciicircum" x="278" y="271" flags="0x4"/>
      <component glyphName="A" x="0" y="0" flags="0x4"/>
    </TTGlyph>
    <TTGlyph name="Adieresis" xMin="35" yMin="0" xMax="764" yMax="863">
      <component glyphName="dieresis" x="308" y="290" flags="0x4"/>
      <component glyphName="A" x="0" y="0" flags="0x4"/>
    </TTGlyph>
    <TTGlyph name="Agrave" xMin="35" yMin="0" xMax="764" yMax="883">
      <component glyphName="A" x="0" y="0" flags="0x204"/>
      <component glyphName="grave" x="419" y="271" flags="0x4"/>
    </TTGlyph>
    <TTGlyph name="Aring" xMin="35" yMin="0" xMax="764" yMax="924">
      <contour>
        <pt x="478" y="836" on="1"/>
        <pt x="476" y="822" on="0"/>
        <pt x="491" y="804" on="0"/>
        <pt x="505" y="804" on="1"/>
        <pt x="519" y="804" on="0"/>
        <pt x="541" y="822" on="0"/>
        <pt x="543" y="836" on="1"/>
        <pt x="545" y="850" on="0"/>
        <pt x="528" y="869" on="0"/>
        <pt x="514" y="869" on="1"/>
        <pt x="500" y="869" on="0"/>
        <pt x="480" y="850" on="0"/>
      </contour>
      <contour>
        <pt x="423" y="837" on="1"/>
        <pt x="425" y="855" on="0"/>
        <pt x="444" y="886" on="0"/>
        <pt x="471" y="910" on="0"/>
        <pt x="504" y="924" on="0"/>
        <pt x="522" y="924" on="1"/>
        <pt x="540" y="924" on="0"/>
        <pt x="569" y="910" on="0"/>
        <pt x="590" y="886" on="0"/>
        <pt x="599" y="855" on="0"/>
        <pt x="597" y="837" on="1"/>
        <pt x="594" y="819" on="0"/>
        <pt x="576" y="788" on="0"/>
        <pt x="549" y="764" on="0"/>
        <pt x="516" y="750" on="0"/>
        <pt x="498" y="750" on="1"/>
        <pt x="480" y="750" on="0"/>
        <pt x="451" y="764" on="0"/>
        <pt x="430" y="788" on="0"/>
        <pt x="420" y="819" on="0"/>
      </contour>
      <contour>
        <pt x="46" y="79" on="1"/>
        <pt x="128" y="79" on="1"/>
        <pt x="220" y="244" on="0"/>
        <pt x="404" y="567" on="0"/>
        <pt x="496" y="732" on="1"/>
        <pt x="543" y="567" on="0"/>
        <pt x="635" y="244" on="0"/>
        <pt x="682" y="79" on="1"/>
        <pt x="764" y="79" on="1"/>
        <pt x="753" y="0" on="1"/>
        <pt x="531" y="0" on="1"/>
        <pt x="542" y="79" on="1"/>
        <pt x="598" y="79" on="1"/>
        <pt x="584" y="129" on="0"/>
        <pt x="556" y="227" on="0"/>
        <pt x="542" y="277" on="1"/>
        <pt x="322" y="277" on="1"/>
        <pt x="211" y="79" on="1"/>
        <pt x="268" y="79" on="1"/>
        <pt x="257" y="0" on="1"/>
        <pt x="35" y="0" on="1"/>
      </contour>
      <contour>
        <pt x="475" y="515" on="1"/>
        <pt x="470" y="548" on="1"/>
        <pt x="469" y="546" on="0"/>
        <pt x="464" y="536" on="0"/>
        <pt x="462" y="530" on="1"/>
        <pt x="458" y="523" on="0"/>
        <pt x="455" y="515" on="1"/>
        <pt x="439" y="486" on="0"/>
        <pt x="423" y="458" on="1"/>
        <pt x="409" y="434" on="0"/>
        <pt x="380" y="378" on="0"/>
        <pt x="368" y="356" on="1"/>
        <pt x="520" y="356" on="1"/>
      </contour>
    </TTGlyph>
    <TTGlyph name="Atilde" xMin="35" yMin="0" xMax="764" yMax="856">
      <component glyphName="asciitilde" x="209" y="304" flags="0x4"/>
      <component glyphName="A" x="0" y="0" flags="0x4"/>
    </TTGlyph>
    <TTGlyph name="B" xMin="35" yMin="0" xMax="562" yMax="700">
      <contour>
        <pt x="46" y="79" on="1"/>
        <pt x="91" y="79" on="1"/>
        <pt x="167" y="621" on="1"/>
        <pt x="122" y="621" on="1"/>
        <pt x="133" y="700" on="1"/>
        <pt x="361" y="700" on="1"/>
        <pt x="410" y="700" on="0"/>
        <pt x="488" y="680" on="0"/>
        <pt x="540" y="638" on="0"/>
        <pt x="562" y="571" on="0"/>
        <pt x="555" y="525" on="1"/>
        <pt x="547" y="463" on="0"/>
        <pt x="475" y="369" on="0"/>
        <pt x="412" y="352" on="1"/>
        <pt x="440" y="346" on="0"/>
        <pt x="488" y="318" on="0"/>
        <pt x="521" y="274" on="0"/>
        <pt x="537" y="216" on="0"/>
        <pt x="532" y="180" on="1"/>
        <pt x="526" y="135" on="0"/>
        <pt x="478" y="68" on="0"/>
        <pt x="409" y="23" on="0"/>
        <pt x="324" y="0" on="0"/>
        <pt x="281" y="0" on="1"/>
        <pt x="35" y="0" on="1"/>
      </contour>
      <contour>
        <pt x="206" y="313" on="1"/>
        <pt x="174" y="79" on="1"/>
        <pt x="285" y="79" on="1"/>
        <pt x="316" y="79" on="0"/>
        <pt x="372" y="93" on="0"/>
        <pt x="417" y="122" on="0"/>
        <pt x="447" y="164" on="0"/>
        <pt x="451" y="193" on="1"/>
        <pt x="455" y="224" on="0"/>
        <pt x="434" y="270" on="0"/>
        <pt x="392" y="299" on="0"/>
        <pt x="334" y="313" on="0"/>
        <pt x="303" y="313" on="1"/>
      </contour>
      <contour>
        <pt x="250" y="621" on="1"/>
        <pt x="218" y="392" on="1"/>
        <pt x="326" y="392" on="1"/>
        <pt x="385" y="392" on="0"/>
        <pt x="462" y="458" on="0"/>
        <pt x="470" y="512" on="1"/>
        <pt x="478" y="571" on="0"/>
        <pt x="414" y="621" on="0"/>
        <pt x="356" y="621" on="1"/>
      </contour>
    </TTGlyph>
    <TTGlyph name="C" xMin="74" yMin="-8" xMax="668" yMax="708">
      <contour>
        <pt x="573" y="546" on="1"/>
        <pt x="582" y="607" on="1"/>
        <pt x="535" y="629" on="0"/>
        <pt x="481" y="629" on="1"/>
        <pt x="424" y="629" on="0"/>
        <pt x="318" y="585" on="0"/>
        <pt x="233" y="508" on="0"/>
        <pt x="176" y="406" on="0"/>
        <pt x="168" y="349" on="1"/>
        <pt x="160" y="292" on="0"/>
        <pt x="189" y="190" on="0"/>
        <pt x="253" y="115" on="0"/>
        <pt x="346" y="71" on="0"/>
        <pt x="403" y="71" on="1"/>
        <pt x="476" y="71" on="0"/>
        <pt x="545" y="108" on="1"/>
        <pt x="581" y="42" on="1"/>
        <pt x="537" y="19" on="0"/>
        <pt x="443" y="-8" on="0"/>
        <pt x="392" y="-8" on="1"/>
        <pt x="318" y="-8" on="0"/>
        <pt x="196" y="48" on="0"/>
        <pt x="112" y="145" on="0"/>
        <pt x="74" y="275" on="0"/>
        <pt x="85" y="349" on="1"/>
        <pt x="95" y="423" on="0"/>
        <pt x="170" y="554" on="0"/>
        <pt x="280" y="651" on="0"/>
        <pt x="418" y="708" on="0"/>
        <pt x="492" y="708" on="1"/>
        <pt x="543" y="708" on="0"/>
        <pt x="631" y="682" on="0"/>
        <pt x="668" y="658" on="1"/>
        <pt x="652" y="546" on="1"/>
      </contour>
    </TTGlyph>
    <TTGlyph name="Ccedilla" xMin="109" yMin="-250" xMax="702" yMax="708">
      <contour>
        <pt x="592" y="436" on="1"/>
        <pt x="616" y="607" on="1"/>
        <pt x="569" y="629" on="0"/>
        <pt x="515" y="629" on="1"/>
        <pt x="458" y="629" on="0"/>
        <pt x="352" y="585" on="0"/>
        <pt x="267" y="508" on="0"/>
        <pt x="210" y="406" on="0"/>
        <pt x="202" y="349" on="1"/>
        <pt x="194" y="292" on="0"/>
        <pt x="223" y="190" on="0"/>
        <pt x="287" y="115" on="0"/>
        <pt x="380" y="71" on="0"/>
        <pt x="437" y="71" on="1"/>
        <pt x="510" y="71" on="0"/>
        <pt x="579" y="108" on="1"/>
        <pt x="615" y="42" on="1"/>
        <pt x="573" y="20" on="0"/>
        <pt x="486" y="-6" on="0"/>
        <pt x="440" y="-8" on="1"/>
        <pt x="438" y="-21" on="0"/>
        <pt x="439" y="-22" on="1"/>
        <pt x="441" y="-41" on="0"/>
        <pt x="464" y="-53" on="0"/>
        <pt x="474" y="-61" on="1"/>
        <pt x="493" y="-77" on="0"/>
        <pt x="504" y="-117" on="0"/>
        <pt x="501" y="-142" on="1"/>
        <pt x="498" y="-163" on="0"/>
        <pt x="479" y="-202" on="0"/>
        <pt x="449" y="-232" on="0"/>
        <pt x="407" y="-250" on="0"/>
        <pt x="381" y="-250" on="1"/>
        <pt x="347" y="-250" on="0"/>
        <pt x="295" y="-213" on="0"/>
        <pt x="287" y="-175" on="1"/>
        <pt x="336" y="-151" on="1"/>
        <pt x="339" y="-167" on="0"/>
        <pt x="362" y="-188" on="0"/>
        <pt x="382" y="-188" on="1"/>
        <pt x="406" y="-188" on="0"/>
        <pt x="437" y="-156" on="0"/>
        <pt x="440" y="-132" on="1"/>
        <pt x="443" y="-112" on="0"/>
        <pt x="425" y="-89" on="0"/>
        <pt x="402" y="-71" on="0"/>
        <pt x="383" y="-51" on="0"/>
        <pt x="385" y="-34" on="1"/>
        <pt x="389" y="-6" on="1"/>
        <pt x="322" y="1" on="0"/>
        <pt x="214" y="61" on="0"/>
        <pt x="141" y="156" on="0"/>
        <pt x="109" y="280" on="0"/>
        <pt x="119" y="349" on="1"/>
        <pt x="129" y="423" on="0"/>
        <pt x="204" y="554" on="0"/>
        <pt x="314" y="651" on="0"/>
        <pt x="452" y="708" on="0"/>
        <pt x="526" y="708" on="1"/>
        <pt x="577" y="708" on="0"/>
        <pt x="665" y="682" on="0"/>
        <pt x="702" y="658" on="1"/>
        <pt x="671" y="436" on="1"/>
      </contour>
    </TTGlyph>
    <TTGlyph name="D" xMin="35" yMin="0" xMax="657" yMax="700">
      <contour>
        <pt x="46" y="80" on="1"/>
        <pt x="93" y="80" on="1"/>
        <pt x="169" y="621" on="1"/>
        <pt x="122" y="621" on="1"/>
        <pt x="133" y="700" on="1"/>
        <pt x="343" y="700" on="1"/>
        <pt x="415" y="700" on="0"/>
        <pt x="536" y="651" on="0"/>
        <pt x="619" y="559" on="0"/>
        <pt x="657" y="430" on="0"/>
        <pt x="646" y="349" on="1"/>
        <pt x="637" y="290" on="0"/>
        <pt x="579" y="166" on="0"/>
        <pt x="473" y="65" on="0"/>
        <pt x="317" y="0" on="0"/>
        <pt x="211" y="0" on="1"/>
        <pt x="35" y="0" on="1"/>
      </contour>
      <contour>
        <pt x="252" y="621" on="1"/>
        <pt x="176" y="80" on="1"/>
        <pt x="246" y="80" on="1"/>
        <pt x="305" y="80" on="0"/>
        <pt x="412" y="118" on="0"/>
        <pt x="497" y="189" on="0"/>
        <pt x="554" y="288" on="0"/>
        <pt x="563" y="350" on="1"/>
        <pt x="572" y="412" on="0"/>
        <pt x="543" y="512" on="0"/>
        <pt x="477" y="583" on="0"/>
        <pt x="381" y="621" on="0"/>
        <pt x="322" y="621" on="1"/>
      </contour>
    </TTGlyph>
    <TTGlyph name="E" xMin="35" yMin="0" xMax="620" yMax="700">
      <contour>
        <pt x="46" y="79" on="1"/>
        <pt x="102" y="79" on="1"/>
        <pt x="178" y="621" on="1"/>
        <pt x="122" y="621" on="1"/>
        <pt x="133" y="700" on="1"/>
        <pt x="620" y="700" on="1"/>
        <pt x="598" y="546" on="1"/>
        <pt x="519" y="546" on="1"/>
        <pt x="530" y="621" on="1"/>
        <pt x="261" y="621" on="1"/>
        <pt x="229" y="392" on="1"/>
        <pt x="538" y="392" on="1"/>
        <pt x="526" y="313" on="1"/>
        <pt x="217" y="313" on="1"/>
        <pt x="185" y="79" on="1"/>
        <pt x="468" y="79" on="1"/>
        <pt x="478" y="154" on="1"/>
        <pt x="557" y="154" on="1"/>
        <pt x="536" y="0" on="1"/>
        <pt x="35" y="0" on="1"/>
      </contour>
    </TTGlyph>
    <TTGlyph name="Eacute" xMin="35" yMin="0" xMax="620" yMax="883">
      <component glyphName="E" x="0" y="0" flags="0x204"/>
      <component glyphName="acute" x="300" y="271" flags="0x4"/>
    </TTGlyph>
    <TTGlyph name="Ecircumflex" xMin="35" yMin="0" xMax="620" yMax="931">
      <component glyphName="E" x="0" y="0" flags="0x204"/>
      <component glyphName="asciicircum" x="179" y="271" flags="0x4"/>
    </TTGlyph>
    <TTGlyph name="Edieresis" xMin="35" yMin="0" xMax="620" yMax="863">
      <component glyphName="E" x="0" y="0" flags="0x204"/>
      <component glyphName="dieresis" x="210" y="290" flags="0x4"/>
    </TTGlyph>
    <TTGlyph name="Egrave" xMin="35" yMin="0" xMax="620" yMax="883">
      <component glyphName="E" x="0" y="0" flags="0x204"/>
      <component glyphName="grave" x="295" y="271" flags="0x4"/>
    </TTGlyph>
    <TTGlyph name="Eth" xMin="35" yMin="0" xMax="657" yMax="700">
      <contour>
        <pt x="98" y="390" on="1"/>
        <pt x="136" y="390" on="1"/>
        <pt x="169" y="621" on="1"/>
        <pt x="122" y="621" on="1"/>
        <pt x="133" y="700" on="1"/>
        <pt x="343" y="700" on="1"/>
        <pt x="415" y="700" on="0"/>
        <pt x="536" y="651" on="0"/>
        <pt x="619" y="559" on="0"/>
        <pt x="657" y="430" on="0"/>
        <pt x="646" y="349" on="1"/>
        <pt x="637" y="290" on="0"/>
        <pt x="579" y="166" on="0"/>
        <pt x="473" y="65" on="0"/>
        <pt x="317" y="0" on="0"/>
        <pt x="211" y="0" on="1"/>
        <pt x="35" y="0" on="1"/>
        <pt x="46" y="79" on="1"/>
        <pt x="93" y="79" on="1"/>
        <pt x="125" y="309" on="1"/>
        <pt x="87" y="309" on="1"/>
      </contour>
      <contour>
        <pt x="252" y="621" on="1"/>
        <pt x="219" y="390" on="1"/>
        <pt x="400" y="390" on="1"/>
        <pt x="389" y="309" on="1"/>
        <pt x="208" y="309" on="1"/>
        <pt x="176" y="79" on="1"/>
        <pt x="246" y="79" on="1"/>
        <pt x="305" y="79" on="0"/>
        <pt x="412" y="118" on="0"/>
        <pt x="497" y="188" on="0"/>
        <pt x="554" y="288" on="0"/>
        <pt x="563" y="350" on="1"/>
        <pt x="572" y="412" on="0"/>
        <pt x="543" y="512" on="0"/>
        <pt x="477" y="583" on="0"/>
        <pt x="381" y="621" on="0"/>
        <pt x="322" y="621" on="1"/>
      </contour>
    </TTGlyph>
    <TTGlyph name="F" xMin="35" yMin="0" xMax="620" yMax="700">
      <contour>
        <pt x="46" y="79" on="1"/>
        <pt x="102" y="79" on="1"/>
        <pt x="178" y="621" on="1"/>
        <pt x="122" y="621" on="1"/>
        <pt x="133" y="700" on="1"/>
        <pt x="620" y="700" on="1"/>
        <pt x="598" y="546" on="1"/>
        <pt x="519" y="546" on="1"/>
        <pt x="530" y="621" on="1"/>
        <pt x="261" y="621" on="1"/>
        <pt x="229" y="392" on="1"/>
        <pt x="538" y="392" on="1"/>
        <pt x="526" y="313" on="1"/>
        <pt x="217" y="313" on="1"/>
        <pt x="185" y="79" on="1"/>
        <pt x="288" y="79" on="1"/>
        <pt x="277" y="0" on="1"/>
        <pt x="35" y="0" on="1"/>
      </contour>
    </TTGlyph>
    <TTGlyph name="G" xMin="23" yMin="-10" xMax="617" yMax="706">
      <contour>
        <pt x="565" y="298" on="1"/>
        <pt x="529" y="40" on="1"/>
        <pt x="486" y="17" on="0"/>
        <pt x="392" y="-10" on="0"/>
        <pt x="341" y="-10" on="1"/>
        <pt x="267" y="-10" on="0"/>
        <pt x="145" y="46" on="0"/>
        <pt x="61" y="143" on="0"/>
        <pt x="23" y="273" on="0"/>
        <pt x="33" y="347" on="1"/>
        <pt x="43" y="421" on="0"/>
        <pt x="118" y="552" on="0"/>
        <pt x="229" y="649" on="0"/>
        <pt x="367" y="706" on="0"/>
        <pt x="441" y="706" on="1"/>
        <pt x="492" y="706" on="0"/>
        <pt x="579" y="680" on="0"/>
        <pt x="617" y="656" on="1"/>
        <pt x="561" y="589" on="1"/>
        <pt x="533" y="607" on="0"/>
        <pt x="468" y="627" on="0"/>
        <pt x="430" y="627" on="1"/>
        <pt x="373" y="627" on="0"/>
        <pt x="267" y="583" on="0"/>
        <pt x="182" y="506" on="0"/>
        <pt x="124" y="404" on="0"/>
        <pt x="116" y="347" on="1"/>
        <pt x="108" y="290" on="0"/>
        <pt x="137" y="188" on="0"/>
        <pt x="201" y="113" on="0"/>
        <pt x="294" y="69" on="0"/>
        <pt x="351" y="69" on="1"/>
        <pt x="403" y="69" on="0"/>
        <pt x="453" y="87" on="1"/>
        <pt x="471" y="219" on="1"/>
        <pt x="368" y="219" on="1"/>
        <pt x="379" y="298" on="1"/>
      </contour>
    </TTGlyph>
    <TTGlyph name="H" xMin="35" yMin="0" xMax="835" yMax="700">
      <contour>
        <pt x="593" y="700" on="1"/>
        <pt x="835" y="700" on="1"/>
        <pt x="824" y="621" on="1"/>
        <pt x="745" y="621" on="1"/>
        <pt x="669" y="79" on="1"/>
        <pt x="748" y="79" on="1"/>
        <pt x="737" y="0" on="1"/>
        <pt x="495" y="0" on="1"/>
        <pt x="506" y="79" on="1"/>
        <pt x="586" y="79" on="1"/>
        <pt x="618" y="313" on="1"/>
        <pt x="240" y="313" on="1"/>
        <pt x="208" y="79" on="1"/>
        <pt x="288" y="79" on="1"/>
        <pt x="277" y="0" on="1"/>
        <pt x="35" y="0" on="1"/>
        <pt x="46" y="79" on="1"/>
        <pt x="125" y="79" on="1"/>
        <pt x="201" y="621" on="1"/>
        <pt x="122" y="621" on="1"/>
        <pt x="133" y="700" on="1"/>
        <pt x="375" y="700" on="1"/>
        <pt x="364" y="621" on="1"/>
        <pt x="284" y="621" on="1"/>
        <pt x="252" y="392" on="1"/>
        <pt x="630" y="392" on="1"/>
        <pt x="662" y="621" on="1"/>
        <pt x="582" y="621" on="1"/>
      </contour>
    </TTGlyph>
    <TTGlyph name="I" xMin="35" yMin="0" xMax="375" yMax="700">
      <contour>
        <pt x="46" y="79" on="1"/>
        <pt x="125" y="79" on="1"/>
        <pt x="201" y="621" on="1"/>
        <pt x="122" y="621" on="1"/>
        <pt x="133" y="700" on="1"/>
        <pt x="375" y="700" on="1"/>
        <pt x="364" y="621" on="1"/>
        <pt x="284" y="621" on="1"/>
        <pt x="208" y="79" on="1"/>
        <pt x="288" y="79" on="1"/>
        <pt x="277" y="0" on="1"/>
        <pt x="35" y="0" on="1"/>
      </contour>
    </TTGlyph>
    <TTGlyph name="Iacute" xMin="35" yMin="0" xMax="424" yMax="883">
      <component glyphName="I" x="0" y="0" flags="0x204"/>
      <component glyphName="acute" x="132" y="271" flags="0x4"/>
    </TTGlyph>
    <TTGlyph name="Icircumflex" xMin="35" yMin="0" xMax="384" yMax="931">
      <component glyphName="I" x="0" y="0" flags="0x4"/>
      <component glyphName="asciicircum" x="45" y="271" flags="0x4"/>
    </TTGlyph>
    <TTGlyph name="Idieresis" xMin="35" yMin="0" xMax="407" yMax="863">
      <component glyphName="I" x="0" y="0" flags="0x4"/>
      <component glyphName="dieresis" x="79" y="290" flags="0x4"/>
    </TTGlyph>
    <TTGlyph name="Igrave" xMin="35" yMin="0" xMax="375" yMax="883">
      <component glyphName="I" x="0" y="0" flags="0x204"/>
      <component glyphName="grave" x="176" y="271" flags="0x4"/>
    </TTGlyph>
    <TTGlyph name="J" xMin="-24" yMin="-144" xMax="334" yMax="700">
      <contour>
        <pt x="93" y="700" on="1"/>
        <pt x="334" y="700" on="1"/>
        <pt x="248" y="90" on="1"/>
        <pt x="240" y="34" on="0"/>
        <pt x="191" y="-52" on="0"/>
        <pt x="119" y="-111" on="0"/>
        <pt x="27" y="-143" on="0"/>
        <pt x="-24" y="-144" on="1"/>
        <pt x="-14" y="-65" on="1"/>
        <pt x="20" y="-63" on="0"/>
        <pt x="81" y="-41" on="0"/>
        <pt x="129" y="-1" on="0"/>
        <pt x="160" y="56" on="0"/>
        <pt x="165" y="93" on="1"/>
        <pt x="240" y="621" on="1"/>
        <pt x="82" y="621" on="1"/>
      </contour>
    </TTGlyph>
    <TTGlyph name="K" xMin="35" yMin="0" xMax="708" yMax="700">
      <contour>
        <pt x="440" y="79" on="1"/>
        <pt x="492" y="79" on="1"/>
        <pt x="445" y="150" on="0"/>
        <pt x="353" y="291" on="0"/>
        <pt x="308" y="363" on="1"/>
        <pt x="237" y="304" on="1"/>
        <pt x="229" y="247" on="0"/>
        <pt x="214" y="136" on="0"/>
        <pt x="206" y="79" on="1"/>
        <pt x="288" y="79" on="1"/>
        <pt x="277" y="0" on="1"/>
        <pt x="35" y="0" on="1"/>
        <pt x="46" y="79" on="1"/>
        <pt x="123" y="79" on="1"/>
        <pt x="199" y="621" on="1"/>
        <pt x="122" y="621" on="1"/>
        <pt x="133" y="700" on="1"/>
        <pt x="355" y="700" on="1"/>
        <pt x="344" y="621" on="1"/>
        <pt x="282" y="621" on="1"/>
        <pt x="254" y="426" on="1"/>
        <pt x="252" y="418" on="0"/>
        <pt x="249" y="402" on="0"/>
        <pt x="247" y="394" on="1"/>
        <pt x="269" y="417" on="1"/>
        <pt x="512" y="621" on="1"/>
        <pt x="475" y="621" on="1"/>
        <pt x="486" y="700" on="1"/>
        <pt x="708" y="700" on="1"/>
        <pt x="697" y="621" on="1"/>
        <pt x="614" y="621" on="1"/>
        <pt x="370" y="416" on="1"/>
        <pt x="425" y="331" on="0"/>
        <pt x="534" y="164" on="0"/>
        <pt x="590" y="79" on="1"/>
        <pt x="662" y="79" on="1"/>
        <pt x="651" y="0" on="1"/>
        <pt x="429" y="0" on="1"/>
      </contour>
    </TTGlyph>
    <TTGlyph name="L" xMin="35" yMin="0" xMax="557" yMax="700">
      <contour>
        <pt x="46" y="79" on="1"/>
        <pt x="102" y="79" on="1"/>
        <pt x="178" y="621" on="1"/>
        <pt x="122" y="621" on="1"/>
        <pt x="133" y="700" on="1"/>
        <pt x="355" y="700" on="1"/>
        <pt x="344" y="621" on="1"/>
        <pt x="261" y="621" on="1"/>
        <pt x="185" y="79" on="1"/>
        <pt x="468" y="79" on="1"/>
        <pt x="478" y="154" on="1"/>
        <pt x="557" y="154" on="1"/>
        <pt x="536" y="0" on="1"/>
        <pt x="35" y="0" on="1"/>
      </contour>
    </TTGlyph>
    <TTGlyph name="M" xMin="35" yMin="0" xMax="1039" yMax="700">
      <contour>
        <pt x="927" y="700" on="1"/>
        <pt x="1039" y="700" on="1"/>
        <pt x="1028" y="621" on="1"/>
        <pt x="941" y="621" on="1"/>
        <pt x="865" y="79" on="1"/>
        <pt x="952" y="79" on="1"/>
        <pt x="941" y="0" on="1"/>
        <pt x="699" y="0" on="1"/>
        <pt x="710" y="79" on="1"/>
        <pt x="782" y="79" on="1"/>
        <pt x="837" y="470" on="1"/>
        <pt x="839" y="478" on="0"/>
        <pt x="842" y="494" on="0"/>
        <pt x="844" y="502" on="1"/>
        <pt x="835" y="491" on="0"/>
        <pt x="816" y="467" on="0"/>
        <pt x="806" y="456" on="1"/>
        <pt x="734" y="371" on="0"/>
        <pt x="580" y="208" on="0"/>
        <pt x="505" y="125" on="1"/>
        <pt x="286" y="475" on="1"/>
        <pt x="272" y="502" on="1"/>
        <pt x="272" y="494" on="0"/>
        <pt x="271" y="478" on="0"/>
        <pt x="271" y="470" on="1"/>
        <pt x="216" y="79" on="1"/>
        <pt x="288" y="79" on="1"/>
        <pt x="277" y="0" on="1"/>
        <pt x="35" y="0" on="1"/>
        <pt x="46" y="79" on="1"/>
        <pt x="133" y="79" on="1"/>
        <pt x="209" y="621" on="1"/>
        <pt x="122" y="621" on="1"/>
        <pt x="133" y="700" on="1"/>
        <pt x="245" y="700" on="1"/>
        <pt x="315" y="589" on="0"/>
        <pt x="453" y="368" on="0"/>
        <pt x="524" y="257" on="1"/>
        <pt x="625" y="368" on="0"/>
        <pt x="825" y="589" on="0"/>
      </contour>
    </TTGlyph>
    <TTGlyph name="N" xMin="39" yMin="-32" xMax="922" yMax="700">
      <contour>
        <pt x="50" y="79" on="1"/>
        <pt x="137" y="79" on="1"/>
        <pt x="213" y="621" on="1"/>
        <pt x="126" y="621" on="1"/>
        <pt x="137" y="700" on="1"/>
        <pt x="253" y="700" on="1"/>
        <pt x="663" y="177" on="1"/>
        <pt x="678" y="151" on="1"/>
        <pt x="680" y="183" on="1"/>
        <pt x="741" y="621" on="1"/>
        <pt x="669" y="621" on="1"/>
        <pt x="680" y="700" on="1"/>
        <pt x="922" y="700" on="1"/>
        <pt x="911" y="621" on="1"/>
        <pt x="824" y="621" on="1"/>
        <pt x="733" y="-32" on="1"/>
        <pt x="297" y="512" on="1"/>
        <pt x="282" y="538" on="1"/>
        <pt x="280" y="506" on="1"/>
        <pt x="220" y="79" on="1"/>
        <pt x="292" y="79" on="1"/>
        <pt x="281" y="0" on="1"/>
        <pt x="39" y="0" on="1"/>
      </contour>
    </TTGlyph>
    <TTGlyph name="Ntilde" xMin="39" yMin="-32" xMax="922" yMax="844">
      <component glyphName="N" x="0" y="0" flags="0x4"/>
      <component glyphName="asciitilde" x="216" y="292" flags="0x4"/>
    </TTGlyph>
    <TTGlyph name="O" xMin="74" yMin="-8" xMax="811" yMax="708">
      <contour>
        <pt x="85" y="349" on="1"/>
        <pt x="95" y="422" on="0"/>
        <pt x="169" y="553" on="0"/>
        <pt x="280" y="651" on="0"/>
        <pt x="418" y="708" on="0"/>
        <pt x="492" y="708" on="1"/>
        <pt x="565" y="708" on="0"/>
        <pt x="688" y="651" on="0"/>
        <pt x="772" y="553" on="0"/>
        <pt x="811" y="422" on="0"/>
        <pt x="801" y="349" on="1"/>
        <pt x="790" y="275" on="0"/>
        <pt x="715" y="145" on="0"/>
        <pt x="604" y="48" on="0"/>
        <pt x="465" y="-8" on="0"/>
        <pt x="392" y="-8" on="1"/>
        <pt x="318" y="-8" on="0"/>
        <pt x="196" y="48" on="0"/>
        <pt x="112" y="145" on="0"/>
        <pt x="74" y="275" on="0"/>
      </contour>
      <contour>
        <pt x="168" y="349" on="1"/>
        <pt x="160" y="291" on="0"/>
        <pt x="189" y="190" on="0"/>
        <pt x="253" y="115" on="0"/>
        <pt x="347" y="71" on="0"/>
        <pt x="404" y="71" on="1"/>
        <pt x="461" y="71" on="0"/>
        <pt x="567" y="115" on="0"/>
        <pt x="652" y="190" on="0"/>
        <pt x="710" y="291" on="0"/>
        <pt x="718" y="349" on="1"/>
        <pt x="726" y="407" on="0"/>
        <pt x="697" y="508" on="0"/>
        <pt x="632" y="584" on="0"/>
        <pt x="539" y="628" on="0"/>
        <pt x="482" y="628" on="1"/>
        <pt x="425" y="628" on="0"/>
        <pt x="319" y="584" on="0"/>
        <pt x="233" y="508" on="0"/>
        <pt x="176" y="407" on="0"/>
      </contour>
    </TTGlyph>
    <TTGlyph name="Oacute" xMin="74" yMin="-8" xMax="811" yMax="883">
      <component glyphName="O" x="0" y="0" flags="0x204"/>
      <component glyphName="acute" x="378" y="271" flags="0x4"/>
    </TTGlyph>
    <TTGlyph name="Ocircumflex" xMin="74" yMin="-8" xMax="811" yMax="931">
      <component glyphName="O" x="0" y="0" flags="0x204"/>
      <component glyphName="asciicircum" x="281" y="271" flags="0x4"/>
    </TTGlyph>
    <TTGlyph name="Odieresis" xMin="74" yMin="-8" xMax="811" yMax="863">
      <component glyphName="O" x="0" y="0" flags="0x204"/>
      <component glyphName="dieresis" x="310" y="290" flags="0x4"/>
    </TTGlyph>
    <TTGlyph name="Ograve" xMin="74" yMin="-8" xMax="811" yMax="883">
      <component glyphName="O" x="0" y="0" flags="0x204"/>
      <component glyphName="grave" x="406" y="271" flags="0x4"/>
    </TTGlyph>
    <TTGlyph name="Oslash" xMin="76" yMin="-17" xMax="814" yMax="719">
      <contour>
        <pt x="169" y="349" on="1"/>
        <pt x="161" y="296" on="0"/>
        <pt x="184" y="203" on="0"/>
        <pt x="211" y="166" on="1"/>
        <pt x="627" y="582" on="1"/>
        <pt x="597" y="604" on="0"/>
        <pt x="524" y="629" on="0"/>
        <pt x="482" y="629" on="1"/>
        <pt x="425" y="629" on="0"/>
        <pt x="319" y="585" on="0"/>
        <pt x="234" y="508" on="0"/>
        <pt x="177" y="406" on="0"/>
      </contour>
      <contour>
        <pt x="404" y="71" on="1"/>
        <pt x="461" y="71" on="0"/>
        <pt x="567" y="115" on="0"/>
        <pt x="653" y="190" on="0"/>
        <pt x="711" y="292" on="0"/>
        <pt x="719" y="349" on="1"/>
        <pt x="727" y="401" on="0"/>
        <pt x="703" y="494" on="0"/>
        <pt x="677" y="531" on="1"/>
        <pt x="572" y="426" on="0"/>
        <pt x="367" y="220" on="0"/>
        <pt x="262" y="115" on="1"/>
        <pt x="291" y="94" on="0"/>
        <pt x="362" y="71" on="0"/>
      </contour>
      <contour>
        <pt x="86" y="349" on="1"/>
        <pt x="96" y="423" on="0"/>
        <pt x="171" y="554" on="0"/>
        <pt x="281" y="651" on="0"/>
        <pt x="419" y="708" on="0"/>
        <pt x="493" y="708" on="1"/>
        <pt x="550" y="708" on="0"/>
        <pt x="649" y="674" on="0"/>
        <pt x="688" y="644" on="1"/>
        <pt x="763" y="719" on="1"/>
        <pt x="814" y="668" on="1"/>
        <pt x="795" y="649" on="0"/>
        <pt x="758" y="613" on="0"/>
        <pt x="739" y="594" on="1"/>
        <pt x="777" y="546" on="0"/>
        <pt x="812" y="420" on="0"/>
        <pt x="802" y="349" on="1"/>
        <pt x="791" y="275" on="0"/>
        <pt x="717" y="145" on="0"/>
        <pt x="606" y="48" on="0"/>
        <pt x="467" y="-8" on="0"/>
        <pt x="393" y="-8" on="1"/>
        <pt x="336" y="-8" on="0"/>
        <pt x="239" y="24" on="0"/>
        <pt x="200" y="53" on="1"/>
        <pt x="183" y="36" on="0"/>
        <pt x="148" y="0" on="0"/>
        <pt x="131" y="-17" on="1"/>
        <pt x="118" y="-4" on="0"/>
        <pt x="92" y="21" on="0"/>
        <pt x="80" y="34" on="1"/>
        <pt x="97" y="51" on="0"/>
        <pt x="131" y="86" on="0"/>
        <pt x="148" y="103" on="1"/>
        <pt x="110" y="151" on="0"/>
        <pt x="76" y="277" on="0"/>
      </contour>
    </TTGlyph>
    <TTGlyph name="Otilde" xMin="74" yMin="-8" xMax="811" yMax="879">
      <component glyphName="O" x="0" y="0" flags="0x204"/>
      <component glyphName="asciitilde" x="223" y="327" flags="0x4"/>
    </TTGlyph>
    <TTGlyph name="P" xMin="35" yMin="0" xMax="560" yMax="700">
      <contour>
        <pt x="46" y="79" on="1"/>
        <pt x="91" y="79" on="1"/>
        <pt x="167" y="621" on="1"/>
        <pt x="122" y="621" on="1"/>
        <pt x="133" y="700" on="1"/>
        <pt x="343" y="700" on="1"/>
        <pt x="377" y="700" on="0"/>
        <pt x="457" y="679" on="0"/>
        <pt x="522" y="633" on="0"/>
        <pt x="560" y="561" on="0"/>
        <pt x="553" y="510" on="1"/>
        <pt x="540" y="419" on="0"/>
        <pt x="417" y="312" on="0"/>
        <pt x="315" y="312" on="1"/>
        <pt x="206" y="312" on="1"/>
        <pt x="174" y="79" on="1"/>
        <pt x="288" y="79" on="1"/>
        <pt x="277" y="0" on="1"/>
        <pt x="35" y="0" on="1"/>
      </contour>
      <contour>
        <pt x="218" y="392" on="1"/>
        <pt x="305" y="392" on="1"/>
        <pt x="349" y="392" on="0"/>
        <pt x="409" y="415" on="0"/>
        <pt x="448" y="449" on="0"/>
        <pt x="467" y="491" on="0"/>
        <pt x="470" y="510" on="1"/>
        <pt x="473" y="532" on="0"/>
        <pt x="456" y="572" on="0"/>
        <pt x="421" y="603" on="0"/>
        <pt x="369" y="621" on="0"/>
        <pt x="338" y="621" on="1"/>
        <pt x="250" y="621" on="1"/>
      </contour>
    </TTGlyph>
    <TTGlyph name="Q" xMin="74" yMin="-8" xMax="811" yMax="708">
      <contour>
        <pt x="168" y="349" on="1"/>
        <pt x="160" y="292" on="0"/>
        <pt x="189" y="190" on="0"/>
        <pt x="253" y="115" on="0"/>
        <pt x="346" y="71" on="0"/>
        <pt x="403" y="71" on="1"/>
        <pt x="460" y="71" on="0"/>
        <pt x="566" y="115" on="0"/>
        <pt x="652" y="190" on="0"/>
        <pt x="710" y="292" on="0"/>
        <pt x="718" y="349" on="1"/>
        <pt x="726" y="406" on="0"/>
        <pt x="696" y="508" on="0"/>
        <pt x="632" y="585" on="0"/>
        <pt x="538" y="629" on="0"/>
        <pt x="481" y="629" on="1"/>
        <pt x="424" y="629" on="0"/>
        <pt x="318" y="585" on="0"/>
        <pt x="233" y="508" on="0"/>
        <pt x="176" y="406" on="0"/>
      </contour>
      <contour>
        <pt x="85" y="349" on="1"/>
        <pt x="95" y="423" on="0"/>
        <pt x="170" y="554" on="0"/>
        <pt x="280" y="651" on="0"/>
        <pt x="418" y="708" on="0"/>
        <pt x="492" y="708" on="1"/>
        <pt x="566" y="708" on="0"/>
        <pt x="689" y="651" on="0"/>
        <pt x="773" y="554" on="0"/>
        <pt x="811" y="423" on="0"/>
        <pt x="801" y="349" on="1"/>
        <pt x="789" y="268" on="0"/>
        <pt x="702" y="128" on="0"/>
        <pt x="638" y="79" on="1"/>
        <pt x="785" y="79" on="1"/>
        <pt x="774" y="0" on="1"/>
        <pt x="467" y="0" on="1"/>
        <pt x="427" y="-8" on="0"/>
        <pt x="392" y="-8" on="1"/>
        <pt x="318" y="-8" on="0"/>
        <pt x="196" y="48" on="0"/>
        <pt x="112" y="145" on="0"/>
        <pt x="74" y="275" on="0"/>
      </contour>
    </TTGlyph>
    <TTGlyph name="R" xMin="35" yMin="0" xMax="560" yMax="700">
      <contour>
        <pt x="46" y="79" on="1"/>
        <pt x="91" y="79" on="1"/>
        <pt x="167" y="621" on="1"/>
        <pt x="122" y="621" on="1"/>
        <pt x="133" y="700" on="1"/>
        <pt x="343" y="700" on="1"/>
        <pt x="377" y="700" on="0"/>
        <pt x="457" y="679" on="0"/>
        <pt x="522" y="633" on="0"/>
        <pt x="560" y="561" on="0"/>
        <pt x="553" y="510" on="1"/>
        <pt x="542" y="435" on="0"/>
        <pt x="453" y="334" on="0"/>
        <pt x="379" y="318" on="1"/>
        <pt x="458" y="79" on="1"/>
        <pt x="552" y="79" on="1"/>
        <pt x="541" y="0" on="1"/>
        <pt x="395" y="0" on="1"/>
        <pt x="291" y="312" on="1"/>
        <pt x="248" y="312" on="1"/>
        <pt x="206" y="312" on="1"/>
        <pt x="174" y="79" on="1"/>
        <pt x="288" y="79" on="1"/>
        <pt x="277" y="0" on="1"/>
        <pt x="35" y="0" on="1"/>
      </contour>
      <contour>
        <pt x="218" y="392" on="1"/>
        <pt x="305" y="392" on="1"/>
        <pt x="349" y="392" on="0"/>
        <pt x="409" y="415" on="0"/>
        <pt x="448" y="449" on="0"/>
        <pt x="467" y="491" on="0"/>
        <pt x="470" y="510" on="1"/>
        <pt x="473" y="532" on="0"/>
        <pt x="456" y="572" on="0"/>
        <pt x="421" y="603" on="0"/>
        <pt x="369" y="621" on="0"/>
        <pt x="338" y="621" on="1"/>
        <pt x="250" y="621" on="1"/>
      </contour>
    </TTGlyph>
    <TTGlyph name="S" xMin="35" yMin="-8" xMax="515" yMax="704">
      <contour>
        <pt x="35" y="93" on="1"/>
        <pt x="51" y="209" on="1"/>
        <pt x="130" y="209" on="1"/>
        <pt x="117" y="120" on="1"/>
        <pt x="141" y="100" on="0"/>
        <pt x="209" y="71" on="0"/>
        <pt x="254" y="71" on="1"/>
        <pt x="280" y="71" on="0"/>
        <pt x="330" y="86" on="0"/>
        <pt x="371" y="115" on="0"/>
        <pt x="399" y="159" on="0"/>
        <pt x="403" y="188" on="1"/>
        <pt x="409" y="227" on="0"/>
        <pt x="388" y="277" on="0"/>
        <pt x="347" y="309" on="0"/>
        <pt x="291" y="329" on="0"/>
        <pt x="233" y="348" on="0"/>
        <pt x="177" y="371" on="0"/>
        <pt x="137" y="410" on="0"/>
        <pt x="116" y="470" on="0"/>
        <pt x="122" y="517" on="1"/>
        <pt x="126" y="550" on="0"/>
        <pt x="155" y="616" on="0"/>
        <pt x="209" y="670" on="0"/>
        <pt x="290" y="704" on="0"/>
        <pt x="345" y="704" on="1"/>
        <pt x="363" y="704" on="0"/>
        <pt x="404" y="700" on="0"/>
        <pt x="448" y="688" on="0"/>
        <pt x="494" y="664" on="0"/>
        <pt x="515" y="644" on="1"/>
        <pt x="501" y="546" on="1"/>
        <pt x="422" y="546" on="1"/>
        <pt x="431" y="605" on="1"/>
        <pt x="413" y="613" on="0"/>
        <pt x="364" y="625" on="0"/>
        <pt x="334" y="625" on="1"/>
        <pt x="276" y="625" on="0"/>
        <pt x="211" y="559" on="0"/>
        <pt x="205" y="514" on="1"/>
        <pt x="201" y="484" on="0"/>
        <pt x="224" y="447" on="0"/>
        <pt x="266" y="422" on="0"/>
        <pt x="322" y="404" on="0"/>
        <pt x="381" y="383" on="0"/>
        <pt x="435" y="354" on="0"/>
        <pt x="475" y="307" on="0"/>
        <pt x="493" y="238" on="0"/>
        <pt x="486" y="187" on="1"/>
        <pt x="480" y="142" on="0"/>
        <pt x="436" y="70" on="0"/>
        <pt x="373" y="19" on="0"/>
        <pt x="293" y="-8" on="0"/>
        <pt x="251" y="-8" on="1"/>
        <pt x="213" y="-8" on="0"/>
        <pt x="144" y="9" on="0"/>
        <pt x="87" y="37" on="0"/>
        <pt x="45" y="73" on="0"/>
      </contour>
    </TTGlyph>
    <TTGlyph name="T" xMin="111" yMin="0" xMax="686" yMax="700">
      <contour>
        <pt x="196" y="79" on="1"/>
        <pt x="282" y="79" on="1"/>
        <pt x="358" y="621" on="1"/>
        <pt x="201" y="621" on="1"/>
        <pt x="190" y="546" on="1"/>
        <pt x="111" y="546" on="1"/>
        <pt x="133" y="700" on="1"/>
        <pt x="686" y="700" on="1"/>
        <pt x="664" y="546" on="1"/>
        <pt x="585" y="546" on="1"/>
        <pt x="596" y="621" on="1"/>
        <pt x="441" y="621" on="1"/>
        <pt x="365" y="79" on="1"/>
        <pt x="438" y="79" on="1"/>
        <pt x="427" y="0" on="1"/>
        <pt x="185" y="0" on="1"/>
      </contour>
    </TTGlyph>
    <TTGlyph name="Thorn" xMin="35" yMin="0" xMax="563" yMax="700">
      <contour>
        <pt x="46" y="79" on="1"/>
        <pt x="117" y="79" on="1"/>
        <pt x="193" y="621" on="1"/>
        <pt x="122" y="621" on="1"/>
        <pt x="133" y="700" on="1"/>
        <pt x="355" y="700" on="1"/>
        <pt x="344" y="621" on="1"/>
        <pt x="276" y="621" on="1"/>
        <pt x="264" y="535" on="1"/>
        <pt x="346" y="535" on="1"/>
        <pt x="380" y="535" on="0"/>
        <pt x="460" y="514" on="0"/>
        <pt x="525" y="468" on="0"/>
        <pt x="563" y="396" on="0"/>
        <pt x="556" y="345" on="1"/>
        <pt x="543" y="254" on="0"/>
        <pt x="420" y="147" on="0"/>
        <pt x="318" y="147" on="1"/>
        <pt x="209" y="147" on="1"/>
        <pt x="200" y="79" on="1"/>
        <pt x="288" y="79" on="1"/>
        <pt x="277" y="0" on="1"/>
        <pt x="35" y="0" on="1"/>
      </contour>
      <contour>
        <pt x="220" y="227" on="1"/>
        <pt x="307" y="227" on="1"/>
        <pt x="351" y="227" on="0"/>
        <pt x="412" y="250" on="0"/>
        <pt x="451" y="284" on="0"/>
        <pt x="470" y="326" on="0"/>
        <pt x="473" y="345" on="1"/>
        <pt x="476" y="367" on="0"/>
        <pt x="459" y="408" on="0"/>
        <pt x="424" y="439" on="0"/>
        <pt x="372" y="457" on="0"/>
        <pt x="341" y="457" on="1"/>
        <pt x="253" y="457" on="1"/>
      </contour>
    </TTGlyph>
    <TTGlyph name="U" xMin="123" yMin="-8" xMax="793" yMax="700">
      <contour>
        <pt x="134" y="700" on="1"/>
        <pt x="376" y="700" on="1"/>
        <pt x="365" y="621" on="1"/>
        <pt x="283" y="621" on="1"/>
        <pt x="228" y="229" on="1"/>
        <pt x="217" y="152" on="0"/>
        <pt x="300" y="71" on="0"/>
        <pt x="375" y="71" on="1"/>
        <pt x="412" y="71" on="0"/>
        <pt x="477" y="92" on="0"/>
        <pt x="528" y="132" on="0"/>
        <pt x="561" y="191" on="0"/>
        <pt x="567" y="229" on="1"/>
        <pt x="622" y="621" on="1"/>
        <pt x="540" y="621" on="1"/>
        <pt x="551" y="700" on="1"/>
        <pt x="793" y="700" on="1"/>
        <pt x="782" y="621" on="1"/>
        <pt x="705" y="621" on="1"/>
        <pt x="649" y="226" on="1"/>
        <pt x="641" y="169" on="0"/>
        <pt x="590" y="81" on="0"/>
        <pt x="514" y="22" on="0"/>
        <pt x="418" y="-8" on="0"/>
        <pt x="364" y="-8" on="1"/>
        <pt x="310" y="-8" on="0"/>
        <pt x="222" y="22" on="0"/>
        <pt x="162" y="81" on="0"/>
        <pt x="136" y="169" on="0"/>
        <pt x="144" y="226" on="1"/>
        <pt x="200" y="621" on="1"/>
        <pt x="123" y="621" on="1"/>
      </contour>
    </TTGlyph>
    <TTGlyph name="Uacute" xMin="123" yMin="-8" xMax="793" yMax="883">
      <component glyphName="U" x="0" y="0" flags="0x204"/>
      <component glyphName="acute" x="338" y="271" flags="0x4"/>
    </TTGlyph>
    <TTGlyph name="Ucircumflex" xMin="123" yMin="-8" xMax="793" yMax="932">
      <component glyphName="U" x="0" y="0" flags="0x204"/>
      <component glyphName="asciicircum" x="254" y="272" flags="0x4"/>
    </TTGlyph>
    <TTGlyph name="Udieresis" xMin="123" yMin="-8" xMax="793" yMax="863">
      <component glyphName="U" x="0" y="0" flags="0x204"/>
      <component glyphName="dieresis" x="289" y="290" flags="0x4"/>
    </TTGlyph>
    <TTGlyph name="Ugrave" xMin="123" yMin="-8" xMax="793" yMax="883">
      <component glyphName="U" x="0" y="0" flags="0x204"/>
      <component glyphName="grave" x="396" y="271" flags="0x4"/>
    </TTGlyph>
    <TTGlyph name="V" xMin="126" yMin="-32" xMax="877" yMax="700">
      <contour>
        <pt x="137" y="700" on="1"/>
        <pt x="379" y="700" on="1"/>
        <pt x="368" y="621" on="1"/>
        <pt x="296" y="621" on="1"/>
        <pt x="328" y="512" on="0"/>
        <pt x="388" y="294" on="0"/>
        <pt x="420" y="185" on="1"/>
        <pt x="424" y="152" on="1"/>
        <pt x="438" y="185" on="1"/>
        <pt x="500" y="294" on="0"/>
        <pt x="622" y="511" on="0"/>
        <pt x="683" y="621" on="1"/>
        <pt x="624" y="621" on="1"/>
        <pt x="635" y="700" on="1"/>
        <pt x="877" y="700" on="1"/>
        <pt x="866" y="621" on="1"/>
        <pt x="767" y="621" on="1"/>
        <pt x="675" y="456" on="0"/>
        <pt x="491" y="133" on="0"/>
        <pt x="399" y="-32" on="1"/>
        <pt x="352" y="133" on="0"/>
        <pt x="260" y="456" on="0"/>
        <pt x="213" y="621" on="1"/>
        <pt x="126" y="621" on="1"/>
      </contour>
    </TTGlyph>
    <TTGlyph name="W" xMin="126" yMin="-32" xMax="1245" yMax="700">
      <contour>
        <pt x="137" y="700" on="1"/>
        <pt x="379" y="700" on="1"/>
        <pt x="368" y="621" on="1"/>
        <pt x="296" y="621" on="1"/>
        <pt x="328" y="512" on="0"/>
        <pt x="388" y="294" on="0"/>
        <pt x="420" y="185" on="1"/>
        <pt x="424" y="152" on="1"/>
        <pt x="442" y="197" on="0"/>
        <pt x="490" y="286" on="0"/>
        <pt x="542" y="375" on="0"/>
        <pt x="595" y="463" on="0"/>
        <pt x="619" y="506" on="1"/>
        <pt x="611" y="535" on="0"/>
        <pt x="594" y="592" on="0"/>
        <pt x="586" y="621" on="1"/>
        <pt x="494" y="621" on="1"/>
        <pt x="505" y="700" on="1"/>
        <pt x="747" y="700" on="1"/>
        <pt x="736" y="621" on="1"/>
        <pt x="669" y="621" on="1"/>
        <pt x="701" y="512" on="0"/>
        <pt x="761" y="294" on="0"/>
        <pt x="793" y="185" on="1"/>
        <pt x="797" y="152" on="1"/>
        <pt x="811" y="185" on="1"/>
        <pt x="873" y="294" on="0"/>
        <pt x="995" y="511" on="0"/>
        <pt x="1056" y="621" on="1"/>
        <pt x="992" y="621" on="1"/>
        <pt x="1003" y="700" on="1"/>
        <pt x="1245" y="700" on="1"/>
        <pt x="1234" y="621" on="1"/>
        <pt x="1140" y="621" on="1"/>
        <pt x="1048" y="456" on="0"/>
        <pt x="864" y="133" on="0"/>
        <pt x="772" y="-32" on="1"/>
        <pt x="653" y="385" on="1"/>
        <pt x="648" y="420" on="1"/>
        <pt x="626" y="364" on="0"/>
        <pt x="566" y="249" on="0"/>
        <pt x="498" y="135" on="0"/>
        <pt x="429" y="22" on="0"/>
        <pt x="399" y="-32" on="1"/>
        <pt x="352" y="133" on="0"/>
        <pt x="260" y="456" on="0"/>
        <pt x="213" y="621" on="1"/>
        <pt x="126" y="621" on="1"/>
      </contour>
    </TTGlyph>
    <TTGlyph name="X" xMin="35" yMin="0" xMax="757" yMax="700">
      <contour>
        <pt x="133" y="700" on="1"/>
        <pt x="375" y="700" on="1"/>
        <pt x="364" y="621" on="1"/>
        <pt x="309" y="621" on="1"/>
        <pt x="331" y="577" on="0"/>
        <pt x="375" y="492" on="0"/>
        <pt x="397" y="449" on="1"/>
        <pt x="406" y="422" on="1"/>
        <pt x="423" y="449" on="1"/>
        <pt x="559" y="621" on="1"/>
        <pt x="504" y="621" on="1"/>
        <pt x="515" y="700" on="1"/>
        <pt x="757" y="700" on="1"/>
        <pt x="746" y="621" on="1"/>
        <pt x="660" y="621" on="1"/>
        <pt x="606" y="553" on="0"/>
        <pt x="501" y="418" on="0"/>
        <pt x="447" y="351" on="1"/>
        <pt x="482" y="282" on="0"/>
        <pt x="552" y="148" on="0"/>
        <pt x="587" y="79" on="1"/>
        <pt x="670" y="79" on="1"/>
        <pt x="659" y="0" on="1"/>
        <pt x="417" y="0" on="1"/>
        <pt x="428" y="79" on="1"/>
        <pt x="483" y="79" on="1"/>
        <pt x="392" y="258" on="1"/>
        <pt x="389" y="265" on="0"/>
        <pt x="384" y="279" on="0"/>
        <pt x="382" y="286" on="1"/>
        <pt x="365" y="258" on="1"/>
        <pt x="329" y="213" on="0"/>
        <pt x="259" y="124" on="0"/>
        <pt x="224" y="79" on="1"/>
        <pt x="288" y="79" on="1"/>
        <pt x="277" y="0" on="1"/>
        <pt x="35" y="0" on="1"/>
        <pt x="46" y="79" on="1"/>
        <pt x="121" y="79" on="1"/>
        <pt x="342" y="357" on="1"/>
        <pt x="207" y="621" on="1"/>
        <pt x="122" y="621" on="1"/>
      </contour>
    </TTGlyph>
    <TTGlyph name="Y" xMin="122" yMin="0" xMax="852" yMax="700">
      <contour>
        <pt x="288" y="79" on="1"/>
        <pt x="355" y="79" on="1"/>
        <pt x="381" y="270" on="1"/>
        <pt x="341" y="358" on="0"/>
        <pt x="262" y="533" on="0"/>
        <pt x="223" y="621" on="1"/>
        <pt x="122" y="621" on="1"/>
        <pt x="133" y="700" on="1"/>
        <pt x="375" y="700" on="1"/>
        <pt x="364" y="621" on="1"/>
        <pt x="324" y="621" on="1"/>
        <pt x="352" y="560" on="0"/>
        <pt x="407" y="438" on="0"/>
        <pt x="435" y="377" on="1"/>
        <pt x="442" y="346" on="1"/>
        <pt x="443" y="346" on="1"/>
        <pt x="459" y="377" on="1"/>
        <pt x="638" y="621" on="1"/>
        <pt x="599" y="621" on="1"/>
        <pt x="610" y="700" on="1"/>
        <pt x="852" y="700" on="1"/>
        <pt x="841" y="621" on="1"/>
        <pt x="740" y="621" on="1"/>
        <pt x="675" y="533" on="0"/>
        <pt x="548" y="357" on="0"/>
        <pt x="483" y="269" on="1"/>
        <pt x="457" y="79" on="1"/>
        <pt x="530" y="79" on="1"/>
        <pt x="519" y="0" on="1"/>
        <pt x="277" y="0" on="1"/>
      </contour>
    </TTGlyph>
    <TTGlyph name="Yacute" xMin="122" yMin="0" xMax="852" yMax="883">
      <component glyphName="Y" x="0" y="0" flags="0x204"/>
      <component glyphName="acute" x="374" y="271" flags="0x4"/>
    </TTGlyph>
    <TTGlyph name="Z" xMin="35" yMin="0" xMax="663" yMax="735">
      <contour>
        <pt x="628" y="242" on="1"/>
        <pt x="594" y="0" on="1"/>
        <pt x="35" y="0" on="1"/>
        <pt x="46" y="80" on="1"/>
        <pt x="550" y="621" on="1"/>
        <pt x="138" y="621" on="1"/>
        <pt x="154" y="735" on="1"/>
        <pt x="237" y="735" on="1"/>
        <pt x="232" y="700" on="1"/>
        <pt x="663" y="700" on="1"/>
        <pt x="652" y="621" on="1"/>
        <pt x="148" y="80" on="1"/>
        <pt x="526" y="80" on="1"/>
        <pt x="549" y="242" on="1"/>
      </contour>
    </TTGlyph>
    <TTGlyph name="a" xMin="56" yMin="-9" xMax="524" yMax="384">
      <contour>
        <pt x="62" y="187" on="1"/>
        <pt x="68" y="226" on="0"/>
        <pt x="109" y="298" on="0"/>
        <pt x="171" y="352" on="0"/>
        <pt x="249" y="384" on="0"/>
        <pt x="291" y="384" on="1"/>
        <pt x="318" y="384" on="0"/>
        <pt x="361" y="368" on="0"/>
        <pt x="393" y="349" on="0"/>
        <pt x="410" y="331" on="0"/>
        <pt x="410" y="328" on="1"/>
        <pt x="412" y="339" on="0"/>
        <pt x="418" y="363" on="0"/>
        <pt x="420" y="375" on="1"/>
        <pt x="489" y="375" on="1"/>
        <pt x="448" y="79" on="1"/>
        <pt x="524" y="79" on="1"/>
        <pt x="513" y="0" on="1"/>
        <pt x="364" y="0" on="1"/>
        <pt x="367" y="20" on="1"/>
        <pt x="368" y="25" on="0"/>
        <pt x="368" y="35" on="0"/>
        <pt x="369" y="40" on="1"/>
        <pt x="367" y="37" on="0"/>
        <pt x="347" y="21" on="0"/>
        <pt x="313" y="4" on="0"/>
        <pt x="265" y="-9" on="0"/>
        <pt x="236" y="-9" on="1"/>
        <pt x="194" y="-9" on="0"/>
        <pt x="124" y="22" on="0"/>
        <pt x="78" y="76" on="0"/>
        <pt x="56" y="147" on="0"/>
      </contour>
      <contour>
        <pt x="146" y="188" on="1"/>
        <pt x="139" y="139" on="0"/>
        <pt x="195" y="72" on="0"/>
        <pt x="247" y="72" on="1"/>
        <pt x="273" y="72" on="0"/>
        <pt x="318" y="90" on="0"/>
        <pt x="354" y="121" on="0"/>
        <pt x="377" y="164" on="0"/>
        <pt x="380" y="188" on="1"/>
        <pt x="387" y="238" on="0"/>
        <pt x="331" y="303" on="0"/>
        <pt x="279" y="303" on="1"/>
        <pt x="253" y="303" on="0"/>
        <pt x="208" y="286" on="0"/>
        <pt x="172" y="255" on="0"/>
        <pt x="149" y="213" on="0"/>
      </contour>
    </TTGlyph>
    <TTGlyph name="aacute" xMin="56" yMin="-9" xMax="524" yMax="612">
      <component glyphName="a" x="0" y="0" flags="0x204"/>
      <component glyphName="acute" x="182" y="0" flags="0x4"/>
    </TTGlyph>
    <TTGlyph name="acircumflex" xMin="56" yMin="-9" xMax="524" yMax="660">
      <component glyphName="a" x="0" y="0" flags="0x204"/>
      <component glyphName="asciicircum" x="102" y="0" flags="0x4"/>
    </TTGlyph>
    <TTGlyph name="acute" xMin="100" yMin="479" xMax="292" yMax="612">
      <contour>
        <pt x="100" y="479" on="1"/>
        <pt x="127" y="512" on="0"/>
        <pt x="181" y="579" on="0"/>
        <pt x="208" y="612" on="1"/>
        <pt x="292" y="612" on="1"/>
        <pt x="159" y="479" on="1"/>
      </contour>
    </TTGlyph>
    <TTGlyph name="adieresis" xMin="56" yMin="-9" xMax="524" yMax="573">
      <component glyphName="a" x="0" y="0" flags="0x204"/>
      <component glyphName="dieresis" x="136" y="0" flags="0x4"/>
    </TTGlyph>
    <TTGlyph name="ae" xMin="46" yMin="-10" xMax="609" yMax="383">
      <contour>
        <pt x="387" y="242" on="1"/>
        <pt x="384" y="220" on="1"/>
        <pt x="416" y="231" on="0"/>
        <pt x="478" y="253" on="0"/>
        <pt x="510" y="264" on="1"/>
        <pt x="499" y="281" on="0"/>
        <pt x="466" y="302" on="0"/>
        <pt x="445" y="302" on="1"/>
        <pt x="416" y="302" on="0"/>
        <pt x="391" y="291" on="1"/>
        <pt x="391" y="280" on="0"/>
        <pt x="389" y="256" on="0"/>
      </contour>
      <contour>
        <pt x="288" y="134" on="1"/>
        <pt x="232" y="134" on="1"/>
        <pt x="218" y="134" on="0"/>
        <pt x="185" y="132" on="0"/>
        <pt x="156" y="126" on="0"/>
        <pt x="136" y="115" on="0"/>
        <pt x="135" y="106" on="1"/>
        <pt x="133" y="95" on="0"/>
        <pt x="145" y="82" on="0"/>
        <pt x="165" y="74" on="0"/>
        <pt x="191" y="71" on="0"/>
        <pt x="205" y="71" on="1"/>
        <pt x="216" y="71" on="0"/>
        <pt x="242" y="72" on="0"/>
        <pt x="265" y="78" on="0"/>
        <pt x="282" y="93" on="0"/>
        <pt x="284" y="108" on="1"/>
      </contour>
      <contour>
        <pt x="133" y="274" on="1"/>
        <pt x="124" y="288" on="0"/>
        <pt x="106" y="313" on="0"/>
        <pt x="97" y="327" on="1"/>
        <pt x="110" y="338" on="0"/>
        <pt x="147" y="359" on="0"/>
        <pt x="189" y="374" on="0"/>
        <pt x="233" y="383" on="0"/>
        <pt x="252" y="383" on="1"/>
        <pt x="330" y="383" on="0"/>
        <pt x="361" y="361" on="1"/>
        <pt x="408" y="383" on="0"/>
        <pt x="457" y="383" on="1"/>
        <pt x="488" y="383" on="0"/>
        <pt x="541" y="358" on="0"/>
        <pt x="580" y="314" on="0"/>
        <pt x="605" y="253" on="0"/>
        <pt x="609" y="217" on="1"/>
        <pt x="372" y="133" on="1"/>
        <pt x="371" y="129" on="1"/>
        <pt x="369" y="116" on="0"/>
        <pt x="363" y="93" on="0"/>
        <pt x="359" y="82" on="1"/>
        <pt x="370" y="76" on="0"/>
        <pt x="398" y="71" on="0"/>
        <pt x="413" y="71" on="1"/>
        <pt x="436" y="71" on="0"/>
        <pt x="477" y="88" on="0"/>
        <pt x="493" y="103" on="1"/>
        <pt x="504" y="88" on="0"/>
        <pt x="525" y="58" on="0"/>
        <pt x="536" y="43" on="1"/>
        <pt x="507" y="18" on="0"/>
        <pt x="440" y="-10" on="0"/>
        <pt x="402" y="-10" on="1"/>
        <pt x="349" y="-10" on="0"/>
        <pt x="307" y="15" on="1"/>
        <pt x="267" y="-10" on="0"/>
        <pt x="195" y="-10" on="1"/>
        <pt x="159" y="-10" on="0"/>
        <pt x="101" y="1" on="0"/>
        <pt x="63" y="29" on="0"/>
        <pt x="46" y="75" on="0"/>
        <pt x="51" y="110" on="1"/>
        <pt x="55" y="141" on="0"/>
        <pt x="86" y="184" on="0"/>
        <pt x="130" y="209" on="0"/>
        <pt x="184" y="220" on="0"/>
        <pt x="211" y="220" on="1"/>
        <pt x="300" y="220" on="1"/>
        <pt x="303" y="244" on="1"/>
        <pt x="305" y="259" on="0"/>
        <pt x="303" y="280" on="0"/>
        <pt x="290" y="295" on="0"/>
        <pt x="262" y="302" on="0"/>
        <pt x="239" y="302" on="1"/>
        <pt x="213" y="302" on="0"/>
        <pt x="150" y="285" on="0"/>
      </contour>
    </TTGlyph>
    <TTGlyph name="agrave" xMin="56" yMin="-9" xMax="524" yMax="612">
      <component glyphName="a" x="0" y="0" flags="0x204"/>
      <component glyphName="grave" x="208" y="0" flags="0x4"/>
    </TTGlyph>
    <TTGlyph name="ampersand" xMin="72" yMin="-19" xMax="600" yMax="750">
      <contour>
        <pt x="421" y="375" on="1"/>
        <pt x="600" y="375" on="1"/>
        <pt x="589" y="294" on="1"/>
        <pt x="494" y="294" on="1"/>
        <pt x="488" y="254" on="1"/>
        <pt x="487" y="246" on="0"/>
        <pt x="484" y="221" on="0"/>
        <pt x="480" y="190" on="0"/>
        <pt x="473" y="158" on="0"/>
        <pt x="468" y="145" on="1"/>
        <pt x="526" y="24" on="1"/>
        <pt x="455" y="-19" on="1"/>
        <pt x="416" y="63" on="1"/>
        <pt x="384" y="30" on="0"/>
        <pt x="298" y="-9" on="0"/>
        <pt x="250" y="-9" on="1"/>
        <pt x="208" y="-9" on="0"/>
        <pt x="140" y="22" on="0"/>
        <pt x="93" y="76" on="0"/>
        <pt x="72" y="147" on="0"/>
        <pt x="78" y="188" on="1"/>
        <pt x="83" y="224" on="0"/>
        <pt x="116" y="288" on="0"/>
        <pt x="167" y="339" on="0"/>
        <pt x="231" y="374" on="0"/>
        <pt x="266" y="380" on="1"/>
        <pt x="212" y="496" on="1"/>
        <pt x="198" y="526" on="0"/>
        <pt x="193" y="590" on="0"/>
        <pt x="211" y="651" on="0"/>
        <pt x="256" y="706" on="0"/>
        <pt x="292" y="726" on="1"/>
        <pt x="323" y="743" on="0"/>
        <pt x="382" y="750" on="0"/>
        <pt x="436" y="739" on="0"/>
        <pt x="483" y="717" on="0"/>
        <pt x="500" y="705" on="1"/>
        <pt x="458" y="640" on="1"/>
        <pt x="449" y="646" on="0"/>
        <pt x="420" y="661" on="0"/>
        <pt x="387" y="669" on="0"/>
        <pt x="353" y="669" on="0"/>
        <pt x="338" y="660" on="1"/>
        <pt x="293" y="634" on="0"/>
        <pt x="273" y="554" on="0"/>
        <pt x="292" y="515" on="1"/>
        <pt x="407" y="273" on="1"/>
        <pt x="407" y="276" on="1"/>
      </contour>
      <contour>
        <pt x="161" y="188" on="1"/>
        <pt x="154" y="139" on="0"/>
        <pt x="210" y="72" on="0"/>
        <pt x="262" y="72" on="1"/>
        <pt x="300" y="72" on="0"/>
        <pt x="362" y="110" on="0"/>
        <pt x="379" y="141" on="1"/>
        <pt x="303" y="303" on="1"/>
        <pt x="247" y="303" on="0"/>
        <pt x="169" y="242" on="0"/>
      </contour>
    </TTGlyph>
    <TTGlyph name="aring" xMin="56" yMin="-9" xMax="524" yMax="627">
      <contour>
        <pt x="280" y="539" on="1"/>
        <pt x="278" y="525" on="0"/>
        <pt x="294" y="507" on="0"/>
        <pt x="308" y="507" on="1"/>
        <pt x="322" y="507" on="0"/>
        <pt x="343" y="525" on="0"/>
        <pt x="345" y="539" on="1"/>
        <pt x="347" y="553" on="0"/>
        <pt x="331" y="572" on="0"/>
        <pt x="317" y="572" on="1"/>
        <pt x="303" y="572" on="0"/>
        <pt x="282" y="553" on="0"/>
      </contour>
      <contour>
        <pt x="226" y="540" on="1"/>
        <pt x="228" y="558" on="0"/>
        <pt x="247" y="589" on="0"/>
        <pt x="274" y="613" on="0"/>
        <pt x="307" y="627" on="0"/>
        <pt x="325" y="627" on="1"/>
        <pt x="343" y="627" on="0"/>
        <pt x="372" y="613" on="0"/>
        <pt x="393" y="589" on="0"/>
        <pt x="402" y="558" on="0"/>
        <pt x="400" y="540" on="1"/>
        <pt x="397" y="522" on="0"/>
        <pt x="379" y="491" on="0"/>
        <pt x="351" y="467" on="0"/>
        <pt x="318" y="453" on="0"/>
        <pt x="300" y="453" on="1"/>
        <pt x="282" y="453" on="0"/>
        <pt x="253" y="467" on="0"/>
        <pt x="233" y="491" on="0"/>
        <pt x="223" y="522" on="0"/>
      </contour>
      <contour>
        <pt x="62" y="187" on="1"/>
        <pt x="68" y="226" on="0"/>
        <pt x="109" y="298" on="0"/>
        <pt x="171" y="352" on="0"/>
        <pt x="249" y="384" on="0"/>
        <pt x="291" y="384" on="1"/>
        <pt x="318" y="384" on="0"/>
        <pt x="361" y="368" on="0"/>
        <pt x="393" y="349" on="0"/>
        <pt x="410" y="331" on="0"/>
        <pt x="410" y="328" on="1"/>
        <pt x="412" y="339" on="0"/>
        <pt x="418" y="363" on="0"/>
        <pt x="420" y="375" on="1"/>
        <pt x="489" y="375" on="1"/>
        <pt x="448" y="79" on="1"/>
        <pt x="524" y="79" on="1"/>
        <pt x="513" y="0" on="1"/>
        <pt x="364" y="0" on="1"/>
        <pt x="367" y="20" on="1"/>
        <pt x="368" y="25" on="0"/>
        <pt x="368" y="35" on="0"/>
        <pt x="369" y="40" on="1"/>
        <pt x="367" y="37" on="0"/>
        <pt x="347" y="21" on="0"/>
        <pt x="313" y="4" on="0"/>
        <pt x="265" y="-9" on="0"/>
        <pt x="236" y="-9" on="1"/>
        <pt x="194" y="-9" on="0"/>
        <pt x="124" y="22" on="0"/>
        <pt x="78" y="76" on="0"/>
        <pt x="56" y="147" on="0"/>
      </contour>
      <contour>
        <pt x="146" y="188" on="1"/>
        <pt x="139" y="139" on="0"/>
        <pt x="195" y="72" on="0"/>
        <pt x="247" y="72" on="1"/>
        <pt x="273" y="72" on="0"/>
        <pt x="318" y="90" on="0"/>
        <pt x="354" y="121" on="0"/>
        <pt x="377" y="164" on="0"/>
        <pt x="380" y="188" on="1"/>
        <pt x="387" y="238" on="0"/>
        <pt x="331" y="303" on="0"/>
        <pt x="279" y="303" on="1"/>
        <pt x="253" y="303" on="0"/>
        <pt x="208" y="286" on="0"/>
        <pt x="172" y="255" on="0"/>
        <pt x="149" y="213" on="0"/>
      </contour>
    </TTGlyph>
    <TTGlyph name="asciicircum" xMin="99" yMin="479" xMax="339" yMax="660">
      <contour>
        <pt x="244" y="660" on="1"/>
        <pt x="268" y="615" on="0"/>
        <pt x="315" y="524" on="0"/>
        <pt x="339" y="479" on="1"/>
        <pt x="280" y="479" on="1"/>
        <pt x="229" y="551" on="1"/>
        <pt x="212" y="533" on="0"/>
        <pt x="175" y="497" on="0"/>
        <pt x="158" y="479" on="1"/>
        <pt x="99" y="479" on="1"/>
        <pt x="135" y="524" on="0"/>
        <pt x="208" y="615" on="0"/>
      </contour>
    </TTGlyph>
    <TTGlyph name="asciitilde" xMin="123" yMin="449" xMax="451" yMax="552">
      <contour>
        <pt x="275" y="481" on="1"/>
        <pt x="262" y="497" on="0"/>
        <pt x="241" y="507" on="0"/>
        <pt x="227" y="507" on="1"/>
        <pt x="213" y="507" on="0"/>
        <pt x="175" y="490" on="0"/>
        <pt x="167" y="461" on="1"/>
        <pt x="156" y="462" on="0"/>
        <pt x="134" y="463" on="0"/>
        <pt x="123" y="464" on="1"/>
        <pt x="127" y="484" on="0"/>
        <pt x="149" y="517" on="0"/>
        <pt x="178" y="540" on="0"/>
        <pt x="211" y="552" on="0"/>
        <pt x="226" y="552" on="1"/>
        <pt x="249" y="552" on="0"/>
        <pt x="284" y="534" on="0"/>
        <pt x="298" y="519" on="1"/>
        <pt x="311" y="503" on="0"/>
        <pt x="333" y="493" on="0"/>
        <pt x="347" y="493" on="1"/>
        <pt x="354" y="493" on="0"/>
        <pt x="371" y="497" on="0"/>
        <pt x="388" y="507" on="0"/>
        <pt x="403" y="525" on="0"/>
        <pt x="406" y="539" on="1"/>
        <pt x="451" y="536" on="1"/>
        <pt x="447" y="516" on="0"/>
        <pt x="425" y="483" on="0"/>
        <pt x="396" y="461" on="0"/>
        <pt x="363" y="449" on="0"/>
        <pt x="348" y="449" on="1"/>
        <pt x="325" y="449" on="0"/>
        <pt x="289" y="467" on="0"/>
      </contour>
    </TTGlyph>
    <TTGlyph name="asterisk" xMin="20" yMin="434" xMax="319" yMax="720">
      <contour>
        <pt x="249" y="575" on="1"/>
        <pt x="264" y="566" on="0"/>
        <pt x="293" y="548" on="0"/>
        <pt x="307" y="539" on="1"/>
        <pt x="294" y="521" on="0"/>
        <pt x="268" y="484" on="0"/>
        <pt x="255" y="466" on="1"/>
        <pt x="241" y="475" on="0"/>
        <pt x="212" y="494" on="0"/>
        <pt x="198" y="503" on="1"/>
        <pt x="196" y="486" on="0"/>
        <pt x="190" y="451" on="0"/>
        <pt x="187" y="434" on="1"/>
        <pt x="107" y="434" on="1"/>
        <pt x="117" y="504" on="1"/>
        <pt x="101" y="495" on="0"/>
        <pt x="68" y="478" on="0"/>
        <pt x="51" y="469" on="1"/>
        <pt x="43" y="487" on="0"/>
        <pt x="28" y="524" on="0"/>
        <pt x="20" y="542" on="1"/>
        <pt x="37" y="550" on="0"/>
        <pt x="69" y="568" on="0"/>
        <pt x="86" y="576" on="1"/>
        <pt x="72" y="585" on="0"/>
        <pt x="45" y="604" on="0"/>
        <pt x="31" y="613" on="1"/>
        <pt x="79" y="682" on="1"/>
        <pt x="94" y="673" on="0"/>
        <pt x="123" y="654" on="0"/>
        <pt x="137" y="645" on="1"/>
        <pt x="148" y="720" on="1"/>
        <pt x="232" y="720" on="1"/>
        <pt x="220" y="645" on="1"/>
        <pt x="289" y="681" on="1"/>
        <pt x="297" y="664" on="0"/>
        <pt x="312" y="629" on="0"/>
        <pt x="319" y="612" on="1"/>
        <pt x="302" y="603" on="0"/>
        <pt x="267" y="584" on="0"/>
      </contour>
    </TTGlyph>
    <TTGlyph name="at" xMin="53" yMin="-232" xMax="921" yMax="610">
      <contour>
        <pt x="367" y="188" on="1"/>
        <pt x="360" y="139" on="0"/>
        <pt x="416" y="72" on="0"/>
        <pt x="468" y="72" on="1"/>
        <pt x="494" y="72" on="0"/>
        <pt x="539" y="90" on="0"/>
        <pt x="575" y="121" on="0"/>
        <pt x="598" y="164" on="0"/>
        <pt x="601" y="188" on="1"/>
        <pt x="609" y="238" on="0"/>
        <pt x="553" y="303" on="0"/>
        <pt x="501" y="303" on="1"/>
        <pt x="475" y="303" on="0"/>
        <pt x="430" y="286" on="0"/>
        <pt x="394" y="255" on="0"/>
        <pt x="371" y="213" on="0"/>
      </contour>
      <contour>
        <pt x="909" y="188" on="1"/>
        <pt x="898" y="135" on="0"/>
        <pt x="847" y="64" on="0"/>
        <pt x="785" y="19" on="0"/>
        <pt x="718" y="0" on="0"/>
        <pt x="691" y="0" on="1"/>
        <pt x="585" y="0" on="1"/>
        <pt x="588" y="20" on="1"/>
        <pt x="589" y="25" on="0"/>
        <pt x="590" y="35" on="0"/>
        <pt x="591" y="40" on="1"/>
        <pt x="589" y="37" on="0"/>
        <pt x="569" y="21" on="0"/>
        <pt x="534" y="5" on="0"/>
        <pt x="486" y="-9" on="0"/>
        <pt x="457" y="-9" on="1"/>
        <pt x="415" y="-9" on="0"/>
        <pt x="345" y="22" on="0"/>
        <pt x="299" y="76" on="0"/>
        <pt x="277" y="147" on="0"/>
        <pt x="283" y="187" on="1"/>
        <pt x="289" y="226" on="0"/>
        <pt x="330" y="297" on="0"/>
        <pt x="392" y="351" on="0"/>
        <pt x="470" y="382" on="0"/>
        <pt x="512" y="382" on="1"/>
        <pt x="538" y="382" on="0"/>
        <pt x="581" y="368" on="0"/>
        <pt x="612" y="349" on="0"/>
        <pt x="630" y="331" on="0"/>
        <pt x="631" y="328" on="1"/>
        <pt x="633" y="339" on="0"/>
        <pt x="640" y="363" on="0"/>
        <pt x="642" y="375" on="1"/>
        <pt x="711" y="375" on="1"/>
        <pt x="669" y="81" on="1"/>
        <pt x="702" y="81" on="1"/>
        <pt x="722" y="81" on="0"/>
        <pt x="762" y="92" on="0"/>
        <pt x="795" y="117" on="0"/>
        <pt x="819" y="158" on="0"/>
        <pt x="825" y="188" on="1"/>
        <pt x="835" y="259" on="0"/>
        <pt x="800" y="383" on="0"/>
        <pt x="721" y="476" on="0"/>
        <pt x="606" y="529" on="0"/>
        <pt x="536" y="529" on="1"/>
        <pt x="465" y="529" on="0"/>
        <pt x="334" y="476" on="0"/>
        <pt x="229" y="383" on="0"/>
        <pt x="158" y="259" on="0"/>
        <pt x="148" y="188" on="1"/>
        <pt x="138" y="117" on="0"/>
        <pt x="174" y="-6" on="0"/>
        <pt x="254" y="-98" on="0"/>
        <pt x="370" y="-151" on="0"/>
        <pt x="441" y="-151" on="1"/>
        <pt x="500" y="-151" on="0"/>
        <pt x="610" y="-116" on="0"/>
        <pt x="659" y="-85" on="1"/>
        <pt x="670" y="-100" on="0"/>
        <pt x="690" y="-129" on="0"/>
        <pt x="701" y="-144" on="1"/>
        <pt x="673" y="-166" on="0"/>
        <pt x="606" y="-199" on="0"/>
        <pt x="534" y="-221" on="0"/>
        <pt x="462" y="-232" on="0"/>
        <pt x="429" y="-232" on="1"/>
        <pt x="341" y="-232" on="0"/>
        <pt x="196" y="-166" on="0"/>
        <pt x="97" y="-52" on="0"/>
        <pt x="53" y="102" on="0"/>
        <pt x="65" y="189" on="1"/>
        <pt x="77" y="276" on="0"/>
        <pt x="165" y="430" on="0"/>
        <pt x="296" y="544" on="0"/>
        <pt x="460" y="610" on="0"/>
        <pt x="548" y="610" on="1"/>
        <pt x="635" y="610" on="0"/>
        <pt x="779" y="544" on="0"/>
        <pt x="877" y="430" on="0"/>
        <pt x="921" y="276" on="0"/>
      </contour>
    </TTGlyph>
    <TTGlyph name="atilde" xMin="56" yMin="-9" xMax="524" yMax="552">
      <component glyphName="a" x="0" y="0" flags="0x204"/>
      <component glyphName="asciitilde" x="14" y="0" flags="0x4"/>
    </TTGlyph>
    <TTGlyph name="b" xMin="36" yMin="-9" xMax="545" yMax="750">
      <contour>
        <pt x="47" y="79" on="1"/>
        <pt x="123" y="79" on="1"/>
        <pt x="206" y="671" on="1"/>
        <pt x="140" y="671" on="1"/>
        <pt x="151" y="750" on="1"/>
        <pt x="300" y="750" on="1"/>
        <pt x="246" y="362" on="1"/>
        <pt x="242" y="354" on="0"/>
        <pt x="235" y="339" on="0"/>
        <pt x="231" y="331" on="1"/>
        <pt x="233" y="334" on="0"/>
        <pt x="257" y="352" on="0"/>
        <pt x="293" y="370" on="0"/>
        <pt x="340" y="384" on="0"/>
        <pt x="366" y="384" on="1"/>
        <pt x="408" y="384" on="0"/>
        <pt x="477" y="353" on="0"/>
        <pt x="524" y="299" on="0"/>
        <pt x="545" y="228" on="0"/>
        <pt x="539" y="188" on="1"/>
        <pt x="533" y="148" on="0"/>
        <pt x="492" y="76" on="0"/>
        <pt x="431" y="22" on="0"/>
        <pt x="353" y="-9" on="0"/>
        <pt x="311" y="-9" on="1"/>
        <pt x="282" y="-9" on="0"/>
        <pt x="237" y="4" on="0"/>
        <pt x="207" y="21" on="0"/>
        <pt x="191" y="37" on="0"/>
        <pt x="190" y="40" on="1"/>
        <pt x="189" y="35" on="0"/>
        <pt x="189" y="25" on="0"/>
        <pt x="188" y="20" on="1"/>
        <pt x="185" y="0" on="1"/>
        <pt x="36" y="0" on="1"/>
      </contour>
      <contour>
        <pt x="455" y="188" on="1"/>
        <pt x="462" y="238" on="0"/>
        <pt x="406" y="303" on="0"/>
        <pt x="354" y="303" on="1"/>
        <pt x="328" y="303" on="0"/>
        <pt x="283" y="286" on="0"/>
        <pt x="247" y="255" on="0"/>
        <pt x="224" y="213" on="0"/>
        <pt x="221" y="188" on="1"/>
        <pt x="214" y="139" on="0"/>
        <pt x="270" y="72" on="0"/>
        <pt x="322" y="72" on="1"/>
        <pt x="348" y="72" on="0"/>
        <pt x="393" y="90" on="0"/>
        <pt x="429" y="121" on="0"/>
        <pt x="452" y="164" on="0"/>
      </contour>
    </TTGlyph>
    <TTGlyph name="backslash" xMin="53" yMin="-19" xMax="318" yMax="736">
      <contour>
        <pt x="147" y="736" on="1"/>
        <pt x="190" y="546" on="0"/>
        <pt x="275" y="171" on="0"/>
        <pt x="318" y="-19" on="1"/>
        <pt x="224" y="-19" on="1"/>
        <pt x="181" y="171" on="0"/>
        <pt x="96" y="546" on="0"/>
        <pt x="53" y="736" on="1"/>
      </contour>
    </TTGlyph>
    <TTGlyph name="bar" xMin="91" yMin="-232" xMax="305" yMax="700">
      <contour>
        <pt x="91" y="-232" on="1"/>
        <pt x="221" y="700" on="1"/>
        <pt x="305" y="700" on="1"/>
        <pt x="175" y="-232" on="1"/>
      </contour>
    </TTGlyph>
    <TTGlyph name="braceleft" xMin="87" yMin="-149" xMax="416" yMax="746">
      <contour>
        <pt x="87" y="256" on="1"/>
        <pt x="99" y="337" on="1"/>
        <pt x="123" y="338" on="0"/>
        <pt x="158" y="365" on="0"/>
        <pt x="181" y="405" on="0"/>
        <pt x="194" y="452" on="0"/>
        <pt x="197" y="472" on="1"/>
        <pt x="219" y="628" on="1"/>
        <pt x="225" y="674" on="0"/>
        <pt x="251" y="723" on="0"/>
        <pt x="286" y="744" on="0"/>
        <pt x="329" y="746" on="0"/>
        <pt x="353" y="746" on="1"/>
        <pt x="416" y="746" on="1"/>
        <pt x="405" y="665" on="1"/>
        <pt x="361" y="665" on="1"/>
        <pt x="346" y="665" on="0"/>
        <pt x="324" y="657" on="0"/>
        <pt x="309" y="634" on="0"/>
        <pt x="298" y="594" on="0"/>
        <pt x="294" y="562" on="1"/>
        <pt x="276" y="433" on="1"/>
        <pt x="272" y="402" on="0"/>
        <pt x="253" y="357" on="0"/>
        <pt x="229" y="325" on="0"/>
        <pt x="203" y="304" on="0"/>
        <pt x="192" y="298" on="1"/>
        <pt x="201" y="292" on="0"/>
        <pt x="221" y="271" on="0"/>
        <pt x="236" y="238" on="0"/>
        <pt x="242" y="194" on="0"/>
        <pt x="238" y="164" on="1"/>
        <pt x="220" y="35" on="1"/>
        <pt x="215" y="3" on="0"/>
        <pt x="215" y="-38" on="0"/>
        <pt x="224" y="-60" on="0"/>
        <pt x="243" y="-68" on="0"/>
        <pt x="258" y="-68" on="1"/>
        <pt x="302" y="-68" on="1"/>
        <pt x="290" y="-149" on="1"/>
        <pt x="227" y="-149" on="1"/>
        <pt x="204" y="-149" on="0"/>
        <pt x="162" y="-147" on="0"/>
        <pt x="132" y="-126" on="0"/>
        <pt x="120" y="-78" on="0"/>
        <pt x="126" y="-31" on="1"/>
        <pt x="147" y="121" on="1"/>
        <pt x="150" y="141" on="0"/>
        <pt x="150" y="188" on="0"/>
        <pt x="138" y="228" on="0"/>
        <pt x="111" y="255" on="0"/>
      </contour>
    </TTGlyph>
    <TTGlyph name="braceright" xMin="30" yMin="-149" xMax="359" yMax="746">
      <contour>
        <pt x="359" y="337" on="1"/>
        <pt x="347" y="256" on="1"/>
        <pt x="323" y="255" on="0"/>
        <pt x="289" y="228" on="0"/>
        <pt x="265" y="188" on="0"/>
        <pt x="252" y="141" on="0"/>
        <pt x="249" y="121" on="1"/>
        <pt x="228" y="-31" on="1"/>
        <pt x="222" y="-78" on="0"/>
        <pt x="196" y="-126" on="0"/>
        <pt x="160" y="-147" on="0"/>
        <pt x="117" y="-149" on="0"/>
        <pt x="93" y="-149" on="1"/>
        <pt x="30" y="-149" on="1"/>
        <pt x="42" y="-68" on="1"/>
        <pt x="86" y="-68" on="1"/>
        <pt x="101" y="-68" on="0"/>
        <pt x="122" y="-60" on="0"/>
        <pt x="137" y="-38" on="0"/>
        <pt x="147" y="3" on="0"/>
        <pt x="152" y="35" on="1"/>
        <pt x="170" y="164" on="1"/>
        <pt x="174" y="194" on="0"/>
        <pt x="194" y="239" on="0"/>
        <pt x="218" y="271" on="0"/>
        <pt x="244" y="292" on="0"/>
        <pt x="254" y="298" on="1"/>
        <pt x="245" y="304" on="0"/>
        <pt x="226" y="325" on="0"/>
        <pt x="211" y="357" on="0"/>
        <pt x="204" y="402" on="0"/>
        <pt x="208" y="433" on="1"/>
        <pt x="226" y="562" on="1"/>
        <pt x="230" y="594" on="0"/>
        <pt x="232" y="634" on="0"/>
        <pt x="223" y="657" on="0"/>
        <pt x="204" y="665" on="0"/>
        <pt x="189" y="665" on="1"/>
        <pt x="145" y="665" on="1"/>
        <pt x="156" y="746" on="1"/>
        <pt x="219" y="746" on="1"/>
        <pt x="242" y="746" on="0"/>
        <pt x="285" y="744" on="0"/>
        <pt x="315" y="723" on="0"/>
        <pt x="327" y="675" on="0"/>
        <pt x="321" y="628" on="1"/>
        <pt x="299" y="472" on="1"/>
        <pt x="296" y="452" on="0"/>
        <pt x="296" y="405" on="0"/>
        <pt x="308" y="365" on="0"/>
        <pt x="335" y="338" on="0"/>
      </contour>
    </TTGlyph>
    <TTGlyph name="bracketleft" xMin="20" yMin="-149" xMax="337" yMax="746">
      <contour>
        <pt x="20" y="-149" on="1"/>
        <pt x="145" y="746" on="1"/>
        <pt x="337" y="746" on="1"/>
        <pt x="326" y="665" on="1"/>
        <pt x="217" y="665" on="1"/>
        <pt x="114" y="-68" on="1"/>
        <pt x="223" y="-68" on="1"/>
        <pt x="212" y="-149" on="1"/>
      </contour>
    </TTGlyph>
    <TTGlyph name="bracketright" xMin="-3" yMin="-149" xMax="313" yMax="746">
      <contour>
        <pt x="313" y="746" on="1"/>
        <pt x="188" y="-149" on="1"/>
        <pt x="-3" y="-149" on="1"/>
        <pt x="7" y="-68" on="1"/>
        <pt x="116" y="-68" on="1"/>
        <pt x="219" y="665" on="1"/>
        <pt x="110" y="665" on="1"/>
        <pt x="121" y="746" on="1"/>
      </contour>
    </TTGlyph>
    <TTGlyph name="brokenbar" xMin="69" yMin="-233" xMax="284" yMax="700">
      <contour>
        <pt x="153" y="-233" on="1"/>
        <pt x="69" y="-233" on="1"/>
        <pt x="118" y="117" on="1"/>
        <pt x="202" y="117" on="1"/>
      </contour>
      <contour>
        <pt x="234" y="350" on="1"/>
        <pt x="150" y="350" on="1"/>
        <pt x="200" y="700" on="1"/>
        <pt x="284" y="700" on="1"/>
      </contour>
    </TTGlyph>
    <TTGlyph name="bullet" xMin="126" yMin="174" xMax="388" yMax="428">
      <contour>
        <pt x="130" y="300" on="1"/>
        <pt x="134" y="327" on="0"/>
        <pt x="160" y="373" on="0"/>
        <pt x="199" y="408" on="0"/>
        <pt x="248" y="428" on="0"/>
        <pt x="274" y="428" on="1"/>
        <pt x="301" y="428" on="0"/>
        <pt x="344" y="408" on="0"/>
        <pt x="374" y="373" on="0"/>
        <pt x="388" y="327" on="0"/>
        <pt x="384" y="300" on="1"/>
        <pt x="380" y="273" on="0"/>
        <pt x="354" y="227" on="0"/>
        <pt x="315" y="193" on="0"/>
        <pt x="266" y="174" on="0"/>
        <pt x="239" y="174" on="1"/>
        <pt x="213" y="174" on="0"/>
        <pt x="169" y="193" on="0"/>
        <pt x="140" y="227" on="0"/>
        <pt x="126" y="273" on="0"/>
      </contour>
    </TTGlyph>
    <TTGlyph name="c" xMin="56" yMin="-9" xMax="411" yMax="384">
      <contour>
        <pt x="366" y="34" on="1"/>
        <pt x="337" y="14" on="0"/>
        <pt x="271" y="-9" on="0"/>
        <pt x="235" y="-9" on="1"/>
        <pt x="193" y="-9" on="0"/>
        <pt x="125" y="22" on="0"/>
        <pt x="78" y="76" on="0"/>
        <pt x="56" y="147" on="0"/>
        <pt x="62" y="188" on="1"/>
        <pt x="68" y="228" on="0"/>
        <pt x="109" y="300" on="0"/>
        <pt x="171" y="353" on="0"/>
        <pt x="248" y="384" on="0"/>
        <pt x="290" y="384" on="1"/>
        <pt x="327" y="384" on="0"/>
        <pt x="388" y="361" on="0"/>
        <pt x="411" y="341" on="1"/>
        <pt x="394" y="225" on="1"/>
        <pt x="320" y="225" on="1"/>
        <pt x="330" y="292" on="1"/>
        <pt x="306" y="303" on="0"/>
        <pt x="278" y="303" on="1"/>
        <pt x="252" y="303" on="0"/>
        <pt x="207" y="286" on="0"/>
        <pt x="171" y="255" on="0"/>
        <pt x="148" y="213" on="0"/>
        <pt x="145" y="188" on="1"/>
        <pt x="138" y="139" on="0"/>
        <pt x="194" y="72" on="0"/>
        <pt x="246" y="72" on="1"/>
        <pt x="290" y="72" on="0"/>
        <pt x="324" y="97" on="1"/>
      </contour>
    </TTGlyph>
    <TTGlyph name="ccedilla" xMin="48" yMin="-250" xMax="401" yMax="384">
      <contour>
        <pt x="315" y="97" on="1"/>
        <pt x="356" y="34" on="1"/>
        <pt x="327" y="14" on="0"/>
        <pt x="260" y="-9" on="0"/>
        <pt x="224" y="-9" on="1"/>
        <pt x="222" y="-24" on="0"/>
        <pt x="227" y="-40" on="0"/>
        <pt x="238" y="-50" on="0"/>
        <pt x="253" y="-56" on="0"/>
        <pt x="259" y="-61" on="1"/>
        <pt x="278" y="-77" on="0"/>
        <pt x="289" y="-117" on="0"/>
        <pt x="285" y="-142" on="1"/>
        <pt x="280" y="-176" on="0"/>
        <pt x="238" y="-233" on="0"/>
        <pt x="203" y="-244" on="1"/>
        <pt x="185" y="-250" on="0"/>
        <pt x="165" y="-250" on="1"/>
        <pt x="131" y="-250" on="0"/>
        <pt x="79" y="-213" on="0"/>
        <pt x="71" y="-175" on="1"/>
        <pt x="121" y="-151" on="1"/>
        <pt x="124" y="-167" on="0"/>
        <pt x="147" y="-188" on="0"/>
        <pt x="167" y="-188" on="1"/>
        <pt x="191" y="-188" on="0"/>
        <pt x="221" y="-156" on="0"/>
        <pt x="225" y="-132" on="1"/>
        <pt x="228" y="-112" on="0"/>
        <pt x="209" y="-89" on="0"/>
        <pt x="186" y="-71" on="0"/>
        <pt x="167" y="-51" on="0"/>
        <pt x="169" y="-34" on="1"/>
        <pt x="174" y="-2" on="1"/>
        <pt x="143" y="6" on="0"/>
        <pt x="94" y="42" on="0"/>
        <pt x="61" y="92" on="0"/>
        <pt x="48" y="154" on="0"/>
        <pt x="53" y="188" on="1"/>
        <pt x="59" y="228" on="0"/>
        <pt x="100" y="300" on="0"/>
        <pt x="161" y="353" on="0"/>
        <pt x="238" y="384" on="0"/>
        <pt x="280" y="384" on="1"/>
        <pt x="317" y="384" on="0"/>
        <pt x="378" y="361" on="0"/>
        <pt x="401" y="341" on="1"/>
        <pt x="385" y="225" on="1"/>
        <pt x="310" y="225" on="1"/>
        <pt x="319" y="292" on="1"/>
        <pt x="295" y="303" on="0"/>
        <pt x="269" y="303" on="1"/>
        <pt x="243" y="303" on="0"/>
        <pt x="198" y="286" on="0"/>
        <pt x="162" y="255" on="0"/>
        <pt x="139" y="213" on="0"/>
        <pt x="136" y="188" on="1"/>
        <pt x="132" y="164" on="0"/>
        <pt x="143" y="121" on="0"/>
        <pt x="170" y="90" on="0"/>
        <pt x="210" y="72" on="0"/>
        <pt x="236" y="72" on="1"/>
        <pt x="279" y="72" on="0"/>
      </contour>
    </TTGlyph>
    <TTGlyph name="cedilla" xMin="116" yMin="-250" xMax="333" yMax="0">
      <contour>
        <pt x="219" y="0" on="1"/>
        <pt x="270" y="0" on="1"/>
        <pt x="269" y="-7" on="1"/>
        <pt x="267" y="-21" on="0"/>
        <pt x="273" y="-38" on="0"/>
        <pt x="284" y="-49" on="0"/>
        <pt x="297" y="-56" on="0"/>
        <pt x="303" y="-61" on="1"/>
        <pt x="322" y="-77" on="0"/>
        <pt x="333" y="-117" on="0"/>
        <pt x="330" y="-142" on="1"/>
        <pt x="327" y="-163" on="0"/>
        <pt x="308" y="-202" on="0"/>
        <pt x="278" y="-232" on="0"/>
        <pt x="236" y="-250" on="0"/>
        <pt x="210" y="-250" on="1"/>
        <pt x="176" y="-250" on="0"/>
        <pt x="124" y="-213" on="0"/>
        <pt x="116" y="-175" on="1"/>
        <pt x="128" y="-169" on="0"/>
        <pt x="153" y="-157" on="0"/>
        <pt x="165" y="-151" on="1"/>
        <pt x="168" y="-167" on="0"/>
        <pt x="191" y="-188" on="0"/>
        <pt x="211" y="-188" on="1"/>
        <pt x="235" y="-188" on="0"/>
        <pt x="266" y="-156" on="0"/>
        <pt x="269" y="-132" on="1"/>
        <pt x="272" y="-112" on="0"/>
        <pt x="254" y="-89" on="0"/>
        <pt x="231" y="-71" on="0"/>
        <pt x="212" y="-51" on="0"/>
        <pt x="214" y="-34" on="1"/>
      </contour>
    </TTGlyph>
    <TTGlyph name="cent" xMin="66" yMin="-68" xMax="420" yMax="438">
      <contour>
        <pt x="334" y="97" on="1"/>
        <pt x="375" y="34" on="1"/>
        <pt x="351" y="17" on="0"/>
        <pt x="302" y="-2" on="0"/>
        <pt x="271" y="-7" on="1"/>
        <pt x="263" y="-68" on="1"/>
        <pt x="179" y="-68" on="1"/>
        <pt x="188" y="0" on="1"/>
        <pt x="158" y="9" on="0"/>
        <pt x="111" y="45" on="0"/>
        <pt x="79" y="94" on="0"/>
        <pt x="66" y="155" on="0"/>
        <pt x="71" y="188" on="1"/>
        <pt x="76" y="221" on="0"/>
        <pt x="106" y="281" on="0"/>
        <pt x="151" y="331" on="0"/>
        <pt x="209" y="367" on="0"/>
        <pt x="241" y="376" on="1"/>
        <pt x="250" y="438" on="1"/>
        <pt x="334" y="438" on="1"/>
        <pt x="326" y="382" on="1"/>
        <pt x="355" y="379" on="0"/>
        <pt x="401" y="357" on="0"/>
        <pt x="420" y="341" on="1"/>
        <pt x="419" y="340" on="1"/>
        <pt x="417" y="332" on="0"/>
        <pt x="416" y="319" on="0"/>
        <pt x="415" y="311" on="1"/>
        <pt x="403" y="225" on="1"/>
        <pt x="329" y="225" on="1"/>
        <pt x="338" y="292" on="1"/>
        <pt x="333" y="295" on="0"/>
        <pt x="321" y="298" on="0"/>
        <pt x="314" y="300" on="1"/>
        <pt x="282" y="74" on="1"/>
        <pt x="296" y="77" on="0"/>
        <pt x="323" y="89" on="0"/>
      </contour>
      <contour>
        <pt x="154" y="188" on="1"/>
        <pt x="149" y="154" on="0"/>
        <pt x="174" y="100" on="0"/>
        <pt x="200" y="85" on="1"/>
        <pt x="229" y="289" on="1"/>
        <pt x="199" y="275" on="0"/>
        <pt x="159" y="222" on="0"/>
      </contour>
    </TTGlyph>
    <TTGlyph name="colon" xMin="12" yMin="0" xMax="156" yMax="355">
      <contour>
        <pt x="50" y="302" on="1"/>
        <pt x="53" y="325" on="0"/>
        <pt x="89" y="355" on="0"/>
        <pt x="109" y="355" on="1"/>
        <pt x="128" y="355" on="0"/>
        <pt x="156" y="325" on="0"/>
        <pt x="153" y="302" on="1"/>
        <pt x="150" y="279" on="0"/>
        <pt x="114" y="250" on="0"/>
        <pt x="95" y="250" on="1"/>
        <pt x="75" y="250" on="0"/>
        <pt x="47" y="279" on="0"/>
      </contour>
      <contour>
        <pt x="15" y="52" on="1"/>
        <pt x="18" y="75" on="0"/>
        <pt x="54" y="105" on="0"/>
        <pt x="74" y="105" on="1"/>
        <pt x="93" y="105" on="0"/>
        <pt x="121" y="75" on="0"/>
        <pt x="118" y="52" on="1"/>
        <pt x="115" y="29" on="0"/>
        <pt x="79" y="0" on="0"/>
        <pt x="60" y="0" on="1"/>
        <pt x="40" y="0" on="0"/>
        <pt x="12" y="29" on="0"/>
      </contour>
    </TTGlyph>
    <TTGlyph name="comma" xMin="-12" yMin="-120" xMax="177" yMax="86">
      <contour>
        <pt x="177" y="86" on="1"/>
        <pt x="148" y="34" on="0"/>
        <pt x="91" y="-68" on="0"/>
        <pt x="62" y="-120" on="1"/>
        <pt x="-12" y="-120" on="1"/>
        <pt x="14" y="-68" on="0"/>
        <pt x="66" y="34" on="0"/>
        <pt x="93" y="86" on="1"/>
      </contour>
    </TTGlyph>
    <TTGlyph name="copyright" xMin="165" yMin="111" xMax="707" yMax="634">
      <contour>
        <pt x="405" y="148" on="1"/>
        <pt x="452" y="148" on="0"/>
        <pt x="538" y="182" on="0"/>
        <pt x="607" y="242" on="0"/>
        <pt x="652" y="324" on="0"/>
        <pt x="659" y="372" on="1"/>
        <pt x="666" y="421" on="0"/>
        <pt x="643" y="503" on="0"/>
        <pt x="592" y="563" on="0"/>
        <pt x="515" y="597" on="0"/>
        <pt x="468" y="597" on="1"/>
        <pt x="421" y="597" on="0"/>
        <pt x="334" y="563" on="0"/>
        <pt x="266" y="503" on="0"/>
        <pt x="220" y="421" on="0"/>
        <pt x="213" y="372" on="1"/>
        <pt x="206" y="324" on="0"/>
        <pt x="229" y="242" on="0"/>
        <pt x="281" y="182" on="0"/>
        <pt x="358" y="148" on="0"/>
      </contour>
      <contour>
        <pt x="400" y="111" on="1"/>
        <pt x="346" y="111" on="0"/>
        <pt x="256" y="151" on="0"/>
        <pt x="194" y="221" on="0"/>
        <pt x="165" y="316" on="0"/>
        <pt x="173" y="372" on="1"/>
        <pt x="181" y="429" on="0"/>
        <pt x="236" y="525" on="0"/>
        <pt x="318" y="595" on="0"/>
        <pt x="419" y="634" on="0"/>
        <pt x="473" y="634" on="1"/>
        <pt x="527" y="634" on="0"/>
        <pt x="617" y="595" on="0"/>
        <pt x="679" y="525" on="0"/>
        <pt x="707" y="429" on="0"/>
        <pt x="699" y="372" on="1"/>
        <pt x="691" y="316" on="0"/>
        <pt x="636" y="221" on="0"/>
        <pt x="555" y="151" on="0"/>
        <pt x="454" y="111" on="0"/>
      </contour>
      <contour>
        <pt x="500" y="464" on="1"/>
        <pt x="504" y="492" on="1"/>
        <pt x="481" y="502" on="0"/>
        <pt x="458" y="502" on="1"/>
        <pt x="432" y="502" on="0"/>
        <pt x="385" y="482" on="0"/>
        <pt x="346" y="447" on="0"/>
        <pt x="320" y="401" on="0"/>
        <pt x="317" y="375" on="1"/>
        <pt x="313" y="349" on="0"/>
        <pt x="326" y="303" on="0"/>
        <pt x="355" y="269" on="0"/>
        <pt x="397" y="249" on="0"/>
        <pt x="423" y="249" on="1"/>
        <pt x="456" y="249" on="0"/>
        <pt x="487" y="266" on="1"/>
        <pt x="504" y="236" on="1"/>
        <pt x="484" y="225" on="0"/>
        <pt x="441" y="213" on="0"/>
        <pt x="418" y="213" on="1"/>
        <pt x="385" y="213" on="0"/>
        <pt x="329" y="239" on="0"/>
        <pt x="292" y="283" on="0"/>
        <pt x="274" y="342" on="0"/>
        <pt x="279" y="375" on="1"/>
        <pt x="284" y="409" on="0"/>
        <pt x="318" y="468" on="0"/>
        <pt x="367" y="512" on="0"/>
        <pt x="430" y="537" on="0"/>
        <pt x="463" y="537" on="1"/>
        <pt x="508" y="537" on="0"/>
        <pt x="543" y="515" on="1"/>
        <pt x="536" y="464" on="1"/>
      </contour>
    </TTGlyph>
    <TTGlyph name="currency" xMin="93" yMin="196" xMax="447" yMax="522">
      <contour>
        <pt x="194" y="360" on="1"/>
        <pt x="189" y="328" on="0"/>
        <pt x="228" y="283" on="0"/>
        <pt x="260" y="283" on="1"/>
        <pt x="276" y="283" on="0"/>
        <pt x="306" y="295" on="0"/>
        <pt x="330" y="316" on="0"/>
        <pt x="347" y="344" on="0"/>
        <pt x="349" y="360" on="1"/>
        <pt x="353" y="392" on="0"/>
        <pt x="314" y="438" on="0"/>
        <pt x="282" y="438" on="1"/>
        <pt x="250" y="438" on="0"/>
        <pt x="199" y="392" on="0"/>
      </contour>
      <contour>
        <pt x="110" y="361" on="1"/>
        <pt x="116" y="404" on="0"/>
        <pt x="142" y="439" on="1"/>
        <pt x="137" y="445" on="0"/>
        <pt x="127" y="457" on="0"/>
        <pt x="122" y="463" on="1"/>
        <pt x="189" y="522" on="1"/>
        <pt x="210" y="498" on="1"/>
        <pt x="230" y="507" on="0"/>
        <pt x="270" y="519" on="0"/>
        <pt x="292" y="519" on="1"/>
        <pt x="314" y="519" on="0"/>
        <pt x="352" y="508" on="0"/>
        <pt x="369" y="498" on="1"/>
        <pt x="396" y="522" on="1"/>
        <pt x="447" y="463" on="1"/>
        <pt x="422" y="441" on="1"/>
        <pt x="439" y="404" on="0"/>
        <pt x="433" y="361" on="1"/>
        <pt x="425" y="314" on="0"/>
        <pt x="398" y="280" on="1"/>
        <pt x="419" y="256" on="1"/>
        <pt x="352" y="197" on="1"/>
        <pt x="346" y="203" on="0"/>
        <pt x="335" y="216" on="0"/>
        <pt x="329" y="222" on="1"/>
        <pt x="291" y="202" on="0"/>
        <pt x="247" y="202" on="1"/>
        <pt x="205" y="202" on="0"/>
        <pt x="172" y="221" on="1"/>
        <pt x="144" y="196" on="1"/>
        <pt x="93" y="255" on="1"/>
        <pt x="120" y="279" on="1"/>
        <pt x="112" y="297" on="0"/>
        <pt x="106" y="338" on="0"/>
      </contour>
    </TTGlyph>
    <TTGlyph name="d" xMin="56" yMin="-9" xMax="542" yMax="750">
      <contour>
        <pt x="367" y="20" on="1"/>
        <pt x="368" y="25" on="0"/>
        <pt x="368" y="35" on="0"/>
        <pt x="369" y="40" on="1"/>
        <pt x="367" y="37" on="0"/>
        <pt x="347" y="21" on="0"/>
        <pt x="313" y="4" on="0"/>
        <pt x="265" y="-9" on="0"/>
        <pt x="236" y="-9" on="1"/>
        <pt x="194" y="-9" on="0"/>
        <pt x="124" y="22" on="0"/>
        <pt x="78" y="76" on="0"/>
        <pt x="56" y="148" on="0"/>
        <pt x="62" y="188" on="1"/>
        <pt x="68" y="228" on="0"/>
        <pt x="109" y="299" on="0"/>
        <pt x="171" y="353" on="0"/>
        <pt x="249" y="384" on="0"/>
        <pt x="291" y="384" on="1"/>
        <pt x="316" y="384" on="0"/>
        <pt x="359" y="370" on="0"/>
        <pt x="391" y="352" on="0"/>
        <pt x="409" y="334" on="0"/>
        <pt x="410" y="331" on="1"/>
        <pt x="409" y="339" on="0"/>
        <pt x="406" y="354" on="0"/>
        <pt x="405" y="362" on="1"/>
        <pt x="448" y="671" on="1"/>
        <pt x="382" y="671" on="1"/>
        <pt x="393" y="750" on="1"/>
        <pt x="542" y="750" on="1"/>
        <pt x="448" y="79" on="1"/>
        <pt x="524" y="79" on="1"/>
        <pt x="513" y="0" on="1"/>
        <pt x="364" y="0" on="1"/>
      </contour>
      <contour>
        <pt x="146" y="188" on="1"/>
        <pt x="139" y="139" on="0"/>
        <pt x="195" y="72" on="0"/>
        <pt x="247" y="72" on="1"/>
        <pt x="273" y="72" on="0"/>
        <pt x="318" y="90" on="0"/>
        <pt x="354" y="121" on="0"/>
        <pt x="377" y="164" on="0"/>
        <pt x="380" y="188" on="1"/>
        <pt x="387" y="238" on="0"/>
        <pt x="331" y="303" on="0"/>
        <pt x="279" y="303" on="1"/>
        <pt x="253" y="303" on="0"/>
        <pt x="208" y="286" on="0"/>
        <pt x="172" y="255" on="0"/>
        <pt x="149" y="213" on="0"/>
      </contour>
    </TTGlyph>
    <TTGlyph name="degree" xMin="44" yMin="460" xMax="257" yMax="660">
      <contour>
        <pt x="145" y="511" on="1"/>
        <pt x="165" y="511" on="0"/>
        <pt x="198" y="539" on="0"/>
        <pt x="200" y="559" on="1"/>
        <pt x="203" y="579" on="0"/>
        <pt x="178" y="608" on="0"/>
        <pt x="158" y="608" on="1"/>
        <pt x="138" y="608" on="0"/>
        <pt x="106" y="579" on="0"/>
        <pt x="103" y="559" on="1"/>
        <pt x="101" y="539" on="0"/>
        <pt x="125" y="511" on="0"/>
      </contour>
      <contour>
        <pt x="50" y="560" on="1"/>
        <pt x="53" y="581" on="0"/>
        <pt x="73" y="617" on="0"/>
        <pt x="105" y="644" on="0"/>
        <pt x="145" y="660" on="0"/>
        <pt x="166" y="660" on="1"/>
        <pt x="208" y="660" on="0"/>
        <pt x="257" y="602" on="0"/>
        <pt x="252" y="560" on="1"/>
        <pt x="249" y="539" on="0"/>
        <pt x="228" y="502" on="0"/>
        <pt x="197" y="475" on="0"/>
        <pt x="159" y="460" on="0"/>
        <pt x="138" y="460" on="1"/>
        <pt x="95" y="460" on="0"/>
        <pt x="44" y="518" on="0"/>
      </contour>
    </TTGlyph>
    <TTGlyph name="dieresis" xMin="52" yMin="468" xMax="328" yMax="573">
      <contour>
        <pt x="222" y="520" on="1"/>
        <pt x="225" y="543" on="0"/>
        <pt x="261" y="573" on="0"/>
        <pt x="281" y="573" on="1"/>
        <pt x="300" y="573" on="0"/>
        <pt x="328" y="543" on="0"/>
        <pt x="325" y="520" on="1"/>
        <pt x="321" y="497" on="0"/>
        <pt x="286" y="468" on="0"/>
        <pt x="267" y="468" on="1"/>
        <pt x="247" y="468" on="0"/>
        <pt x="218" y="497" on="0"/>
      </contour>
      <contour>
        <pt x="56" y="520" on="1"/>
        <pt x="59" y="543" on="0"/>
        <pt x="95" y="573" on="0"/>
        <pt x="115" y="573" on="1"/>
        <pt x="134" y="573" on="0"/>
        <pt x="162" y="543" on="0"/>
        <pt x="159" y="520" on="1"/>
        <pt x="155" y="497" on="0"/>
        <pt x="120" y="468" on="0"/>
        <pt x="101" y="468" on="1"/>
        <pt x="81" y="468" on="0"/>
        <pt x="52" y="497" on="0"/>
      </contour>
    </TTGlyph>
    <TTGlyph name="divide" xMin="68" yMin="71" xMax="439" yMax="426">
      <contour>
        <pt x="428" y="206" on="1"/>
        <pt x="68" y="206" on="1"/>
        <pt x="79" y="287" on="1"/>
        <pt x="439" y="287" on="1"/>
      </contour>
      <contour>
        <pt x="216" y="373" on="1"/>
        <pt x="219" y="396" on="0"/>
        <pt x="255" y="426" on="0"/>
        <pt x="275" y="426" on="1"/>
        <pt x="294" y="426" on="0"/>
        <pt x="322" y="396" on="0"/>
        <pt x="319" y="373" on="1"/>
        <pt x="316" y="350" on="0"/>
        <pt x="280" y="321" on="0"/>
        <pt x="261" y="321" on="1"/>
        <pt x="241" y="321" on="0"/>
        <pt x="213" y="350" on="0"/>
      </contour>
      <contour>
        <pt x="181" y="123" on="1"/>
        <pt x="184" y="146" on="0"/>
        <pt x="220" y="176" on="0"/>
        <pt x="240" y="176" on="1"/>
        <pt x="259" y="176" on="0"/>
        <pt x="287" y="146" on="0"/>
        <pt x="284" y="123" on="1"/>
        <pt x="281" y="100" on="0"/>
        <pt x="245" y="71" on="0"/>
        <pt x="226" y="71" on="1"/>
        <pt x="206" y="71" on="0"/>
        <pt x="178" y="100" on="0"/>
      </contour>
    </TTGlyph>
    <TTGlyph name="dollar" xMin="-14" yMin="-68" xMax="465" yMax="764">
      <contour>
        <pt x="372" y="546" on="1"/>
        <pt x="381" y="605" on="1"/>
        <pt x="368" y="611" on="0"/>
        <pt x="338" y="621" on="0"/>
        <pt x="319" y="623" on="1"/>
        <pt x="288" y="398" on="1"/>
        <pt x="319" y="387" on="0"/>
        <pt x="378" y="359" on="0"/>
        <pt x="422" y="313" on="0"/>
        <pt x="443" y="241" on="0"/>
        <pt x="436" y="187" on="1"/>
        <pt x="430" y="146" on="0"/>
        <pt x="393" y="79" on="0"/>
        <pt x="338" y="29" on="0"/>
        <pt x="268" y="-2" on="0"/>
        <pt x="231" y="-6" on="1"/>
        <pt x="222" y="-68" on="1"/>
        <pt x="138" y="-68" on="1"/>
        <pt x="147" y="-3" on="1"/>
        <pt x="88" y="6" on="0"/>
        <pt x="2" y="60" on="0"/>
        <pt x="-14" y="93" on="1"/>
        <pt x="1" y="209" on="1"/>
        <pt x="80" y="209" on="1"/>
        <pt x="67" y="120" on="1"/>
        <pt x="85" y="105" on="0"/>
        <pt x="129" y="81" on="0"/>
        <pt x="158" y="75" on="1"/>
        <pt x="196" y="343" on="1"/>
        <pt x="169" y="352" on="0"/>
        <pt x="119" y="376" on="0"/>
        <pt x="84" y="415" on="0"/>
        <pt x="67" y="473" on="0"/>
        <pt x="72" y="517" on="1"/>
        <pt x="75" y="545" on="0"/>
        <pt x="99" y="604" on="0"/>
        <pt x="141" y="655" on="0"/>
        <pt x="204" y="692" on="0"/>
        <pt x="246" y="700" on="1"/>
        <pt x="255" y="764" on="1"/>
        <pt x="339" y="764" on="1"/>
        <pt x="330" y="702" on="1"/>
        <pt x="362" y="699" on="0"/>
        <pt x="432" y="675" on="0"/>
        <pt x="465" y="644" on="1"/>
        <pt x="451" y="546" on="1"/>
      </contour>
      <contour>
        <pt x="353" y="188" on="1"/>
        <pt x="357" y="216" on="0"/>
        <pt x="348" y="257" on="0"/>
        <pt x="327" y="287" on="0"/>
        <pt x="295" y="308" on="0"/>
        <pt x="276" y="316" on="1"/>
        <pt x="242" y="75" on="1"/>
        <pt x="284" y="84" on="0"/>
        <pt x="346" y="140" on="0"/>
      </contour>
      <contour>
        <pt x="155" y="514" on="1"/>
        <pt x="150" y="480" on="0"/>
        <pt x="181" y="441" on="0"/>
        <pt x="208" y="427" on="1"/>
        <pt x="234" y="616" on="1"/>
        <pt x="199" y="603" on="0"/>
        <pt x="160" y="548" on="0"/>
      </contour>
    </TTGlyph>
    <TTGlyph name="e" xMin="56" yMin="-9" xMax="442" yMax="384">
      <contour>
        <pt x="278" y="303" on="1"/>
        <pt x="227" y="303" on="0"/>
        <pt x="155" y="242" on="0"/>
        <pt x="146" y="196" on="1"/>
        <pt x="196" y="213" on="0"/>
        <pt x="294" y="248" on="0"/>
        <pt x="343" y="265" on="1"/>
        <pt x="332" y="282" on="0"/>
        <pt x="299" y="303" on="0"/>
      </contour>
      <contour>
        <pt x="442" y="218" on="1"/>
        <pt x="371" y="193" on="0"/>
        <pt x="229" y="143" on="0"/>
        <pt x="157" y="118" on="1"/>
        <pt x="169" y="97" on="0"/>
        <pt x="215" y="72" on="0"/>
        <pt x="246" y="72" on="1"/>
        <pt x="269" y="72" on="0"/>
        <pt x="310" y="89" on="0"/>
        <pt x="326" y="104" on="1"/>
        <pt x="337" y="89" on="0"/>
        <pt x="358" y="59" on="0"/>
        <pt x="369" y="44" on="1"/>
        <pt x="340" y="19" on="0"/>
        <pt x="273" y="-9" on="0"/>
        <pt x="235" y="-9" on="1"/>
        <pt x="193" y="-9" on="0"/>
        <pt x="125" y="22" on="0"/>
        <pt x="78" y="76" on="0"/>
        <pt x="56" y="147" on="0"/>
        <pt x="62" y="188" on="1"/>
        <pt x="68" y="228" on="0"/>
        <pt x="109" y="300" on="0"/>
        <pt x="171" y="353" on="0"/>
        <pt x="248" y="384" on="0"/>
        <pt x="290" y="384" on="1"/>
        <pt x="321" y="384" on="0"/>
        <pt x="374" y="359" on="0"/>
        <pt x="413" y="315" on="0"/>
        <pt x="438" y="254" on="0"/>
      </contour>
    </TTGlyph>
    <TTGlyph name="eacute" xMin="56" yMin="-9" xMax="453" yMax="612">
      <component glyphName="e" x="0" y="0" flags="0x204"/>
      <component glyphName="acute" x="161" y="0" flags="0x4"/>
    </TTGlyph>
    <TTGlyph name="ecircumflex" xMin="56" yMin="-9" xMax="442" yMax="660">
      <component glyphName="e" x="0" y="0" flags="0x204"/>
      <component glyphName="asciicircum" x="83" y="0" flags="0x4"/>
    </TTGlyph>
    <TTGlyph name="edieresis" xMin="56" yMin="-9" xMax="442" yMax="573">
      <component glyphName="e" x="0" y="0" flags="0x204"/>
      <component glyphName="dieresis" x="102" y="0" flags="0x4"/>
    </TTGlyph>
    <TTGlyph name="egrave" xMin="56" yMin="-9" xMax="442" yMax="612">
      <component glyphName="e" x="0" y="0" flags="0x204"/>
      <component glyphName="grave" x="196" y="0" flags="0x4"/>
    </TTGlyph>
    <TTGlyph name="eight" xMin="13" yMin="-8" xMax="463" yMax="658">
      <contour>
        <pt x="204" y="498" on="1"/>
        <pt x="199" y="466" on="0"/>
        <pt x="237" y="424" on="0"/>
        <pt x="268" y="424" on="1"/>
        <pt x="300" y="424" on="0"/>
        <pt x="349" y="466" on="0"/>
        <pt x="354" y="498" on="1"/>
        <pt x="359" y="530" on="0"/>
        <pt x="322" y="577" on="0"/>
        <pt x="290" y="577" on="1"/>
        <pt x="275" y="577" on="0"/>
        <pt x="246" y="564" on="0"/>
        <pt x="222" y="542" on="0"/>
        <pt x="206" y="514" on="0"/>
      </contour>
      <contour>
        <pt x="105" y="209" on="1"/>
        <pt x="101" y="181" on="0"/>
        <pt x="115" y="132" on="0"/>
        <pt x="145" y="95" on="0"/>
        <pt x="190" y="73" on="0"/>
        <pt x="217" y="73" on="1"/>
        <pt x="245" y="73" on="0"/>
        <pt x="297" y="95" on="0"/>
        <pt x="340" y="132" on="0"/>
        <pt x="368" y="181" on="0"/>
        <pt x="372" y="209" on="1"/>
        <pt x="376" y="236" on="0"/>
        <pt x="362" y="284" on="0"/>
        <pt x="332" y="320" on="0"/>
        <pt x="287" y="342" on="0"/>
        <pt x="260" y="343" on="1"/>
        <pt x="231" y="343" on="0"/>
        <pt x="178" y="322" on="0"/>
        <pt x="137" y="286" on="0"/>
        <pt x="109" y="237" on="0"/>
      </contour>
      <contour>
        <pt x="19" y="209" on="1"/>
        <pt x="27" y="267" on="0"/>
        <pt x="96" y="362" on="0"/>
        <pt x="147" y="391" on="1"/>
        <pt x="130" y="411" on="0"/>
        <pt x="114" y="466" on="0"/>
        <pt x="119" y="498" on="1"/>
        <pt x="123" y="531" on="0"/>
        <pt x="156" y="589" on="0"/>
        <pt x="205" y="633" on="0"/>
        <pt x="266" y="658" on="0"/>
        <pt x="299" y="658" on="1"/>
        <pt x="332" y="658" on="0"/>
        <pt x="387" y="633" on="0"/>
        <pt x="424" y="589" on="0"/>
        <pt x="441" y="531" on="0"/>
        <pt x="437" y="498" on="1"/>
        <pt x="432" y="466" on="0"/>
        <pt x="401" y="411" on="0"/>
        <pt x="378" y="391" on="1"/>
        <pt x="420" y="362" on="0"/>
        <pt x="463" y="267" on="0"/>
        <pt x="455" y="209" on="1"/>
        <pt x="449" y="164" on="0"/>
        <pt x="403" y="85" on="0"/>
        <pt x="335" y="26" on="0"/>
        <pt x="251" y="-8" on="0"/>
        <pt x="206" y="-8" on="1"/>
        <pt x="161" y="-8" on="0"/>
        <pt x="87" y="26" on="0"/>
        <pt x="36" y="85" on="0"/>
        <pt x="13" y="164" on="0"/>
      </contour>
    </TTGlyph>
    <TTGlyph name="emdash" xMin="99" yMin="174" xMax="612" yMax="255">
      <contour>
        <pt x="99" y="174" on="1"/>
        <pt x="110" y="255" on="1"/>
        <pt x="612" y="255" on="1"/>
        <pt x="601" y="174" on="1"/>
      </contour>
    </TTGlyph>
    <TTGlyph name="endash" xMin="100" yMin="174" xMax="412" yMax="255">
      <contour>
        <pt x="100" y="174" on="1"/>
        <pt x="111" y="255" on="1"/>
        <pt x="412" y="255" on="1"/>
        <pt x="401" y="174" on="1"/>
      </contour>
    </TTGlyph>
    <TTGlyph name="equal" xMin="80" yMin="112" xMax="625" yMax="387">
      <contour>
        <pt x="598" y="193" on="1"/>
        <pt x="586" y="112" on="1"/>
        <pt x="80" y="112" on="1"/>
        <pt x="92" y="193" on="1"/>
      </contour>
      <contour>
        <pt x="625" y="387" on="1"/>
        <pt x="613" y="306" on="1"/>
        <pt x="107" y="306" on="1"/>
        <pt x="119" y="387" on="1"/>
      </contour>
    </TTGlyph>
    <TTGlyph name="eth" xMin="58" yMin="-7" xMax="471" yMax="738">
      <contour>
        <pt x="146" y="188" on="1"/>
        <pt x="143" y="163" on="0"/>
        <pt x="155" y="121" on="0"/>
        <pt x="183" y="91" on="0"/>
        <pt x="224" y="74" on="0"/>
        <pt x="250" y="75" on="1"/>
        <pt x="276" y="76" on="0"/>
        <pt x="321" y="95" on="0"/>
        <pt x="356" y="127" on="0"/>
        <pt x="378" y="170" on="0"/>
        <pt x="381" y="194" on="1"/>
        <pt x="385" y="244" on="0"/>
        <pt x="328" y="307" on="0"/>
        <pt x="277" y="306" on="1"/>
        <pt x="223" y="304" on="0"/>
        <pt x="151" y="238" on="0"/>
      </contour>
      <contour>
        <pt x="189" y="531" on="1"/>
        <pt x="206" y="546" on="0"/>
        <pt x="237" y="576" on="0"/>
        <pt x="254" y="591" on="1"/>
        <pt x="219" y="641" on="0"/>
        <pt x="175" y="683" on="1"/>
        <pt x="192" y="697" on="0"/>
        <pt x="226" y="724" on="0"/>
        <pt x="243" y="738" on="1"/>
        <pt x="264" y="720" on="0"/>
        <pt x="303" y="678" on="0"/>
        <pt x="322" y="655" on="1"/>
        <pt x="335" y="668" on="0"/>
        <pt x="360" y="692" on="0"/>
        <pt x="374" y="705" on="1"/>
        <pt x="386" y="692" on="0"/>
        <pt x="412" y="667" on="0"/>
        <pt x="425" y="654" on="1"/>
        <pt x="409" y="639" on="0"/>
        <pt x="378" y="610" on="0"/>
        <pt x="362" y="595" on="1"/>
        <pt x="387" y="554" on="0"/>
        <pt x="431" y="456" on="0"/>
        <pt x="460" y="352" on="0"/>
        <pt x="471" y="246" on="0"/>
        <pt x="464" y="197" on="1"/>
        <pt x="459" y="156" on="0"/>
        <pt x="420" y="84" on="0"/>
        <pt x="360" y="29" on="0"/>
        <pt x="284" y="-5" on="0"/>
        <pt x="242" y="-6" on="1"/>
        <pt x="200" y="-7" on="0"/>
        <pt x="131" y="22" on="0"/>
        <pt x="82" y="74" on="0"/>
        <pt x="58" y="144" on="0"/>
        <pt x="62" y="185" on="1"/>
        <pt x="66" y="225" on="0"/>
        <pt x="106" y="298" on="0"/>
        <pt x="167" y="352" on="0"/>
        <pt x="243" y="385" on="0"/>
        <pt x="285" y="386" on="1"/>
        <pt x="318" y="387" on="0"/>
        <pt x="348" y="378" on="1"/>
        <pt x="340" y="418" on="0"/>
        <pt x="312" y="493" on="0"/>
        <pt x="293" y="528" on="1"/>
        <pt x="280" y="515" on="0"/>
        <pt x="253" y="491" on="0"/>
        <pt x="240" y="478" on="1"/>
        <pt x="227" y="492" on="0"/>
        <pt x="202" y="517" on="0"/>
      </contour>
    </TTGlyph>
    <TTGlyph name="exclam" xMin="0" yMin="0" xMax="193" yMax="750">
      <contour>
        <pt x="47" y="0" on="1"/>
        <pt x="27" y="0" on="0"/>
        <pt x="0" y="30" on="0"/>
        <pt x="2" y="53" on="1"/>
        <pt x="5" y="76" on="0"/>
        <pt x="42" y="105" on="0"/>
        <pt x="62" y="105" on="1"/>
        <pt x="81" y="105" on="0"/>
        <pt x="108" y="76" on="0"/>
        <pt x="105" y="53" on="1"/>
        <pt x="102" y="30" on="0"/>
        <pt x="66" y="0" on="0"/>
        <pt x="47" y="0" on="1"/>
      </contour>
      <contour>
        <pt x="110" y="750" on="1"/>
        <pt x="193" y="750" on="1"/>
        <pt x="111" y="166" on="1"/>
        <pt x="28" y="166" on="1"/>
      </contour>
    </TTGlyph>
    <TTGlyph name="exclamdown" xMin="59" yMin="-210" xMax="253" yMax="540">
      <contour>
        <pt x="207" y="540" on="1"/>
        <pt x="226" y="540" on="0"/>
        <pt x="253" y="510" on="0"/>
        <pt x="249" y="487" on="1"/>
        <pt x="246" y="464" on="0"/>
        <pt x="211" y="435" on="0"/>
        <pt x="192" y="435" on="1"/>
        <pt x="172" y="435" on="0"/>
        <pt x="144" y="464" on="0"/>
        <pt x="147" y="487" on="1"/>
        <pt x="152" y="510" on="0"/>
        <pt x="187" y="540" on="0"/>
      </contour>
      <contour>
        <pt x="141" y="374" on="1"/>
        <pt x="224" y="374" on="1"/>
        <pt x="142" y="-210" on="1"/>
        <pt x="59" y="-210" on="1"/>
      </contour>
    </TTGlyph>
    <TTGlyph name="f" xMin="35" yMin="0" xMax="441" yMax="751">
      <contour>
        <pt x="46" y="79" on="1"/>
        <pt x="107" y="79" on="1"/>
        <pt x="137" y="294" on="1"/>
        <pt x="76" y="294" on="1"/>
        <pt x="87" y="375" on="1"/>
        <pt x="147" y="375" on="1"/>
        <pt x="167" y="517" on="1"/>
        <pt x="175" y="573" on="0"/>
        <pt x="224" y="659" on="0"/>
        <pt x="297" y="718" on="0"/>
        <pt x="389" y="749" on="0"/>
        <pt x="441" y="751" on="1"/>
        <pt x="430" y="672" on="1"/>
        <pt x="360" y="668" on="0"/>
        <pt x="261" y="588" on="0"/>
        <pt x="250" y="514" on="1"/>
        <pt x="230" y="375" on="1"/>
        <pt x="348" y="375" on="1"/>
        <pt x="337" y="294" on="1"/>
        <pt x="219" y="294" on="1"/>
        <pt x="189" y="79" on="1"/>
        <pt x="268" y="79" on="1"/>
        <pt x="257" y="0" on="1"/>
        <pt x="35" y="0" on="1"/>
      </contour>
    </TTGlyph>
    <TTGlyph name="five" xMin="65" yMin="-8" xMax="476" yMax="650">
      <contour>
        <pt x="476" y="650" on="1"/>
        <pt x="458" y="521" on="1"/>
        <pt x="379" y="521" on="1"/>
        <pt x="385" y="569" on="1"/>
        <pt x="261" y="569" on="1"/>
        <pt x="241" y="422" on="1"/>
        <pt x="247" y="423" on="0"/>
        <pt x="260" y="424" on="0"/>
        <pt x="267" y="424" on="1"/>
        <pt x="312" y="424" on="0"/>
        <pt x="387" y="391" on="0"/>
        <pt x="438" y="332" on="0"/>
        <pt x="462" y="254" on="0"/>
        <pt x="456" y="209" on="1"/>
        <pt x="450" y="164" on="0"/>
        <pt x="403" y="85" on="0"/>
        <pt x="335" y="26" on="0"/>
        <pt x="251" y="-8" on="0"/>
        <pt x="206" y="-8" on="1"/>
        <pt x="162" y="-8" on="0"/>
        <pt x="90" y="24" on="0"/>
        <pt x="65" y="53" on="1"/>
        <pt x="134" y="109" on="1"/>
        <pt x="149" y="92" on="0"/>
        <pt x="192" y="73" on="0"/>
        <pt x="218" y="73" on="1"/>
        <pt x="246" y="73" on="0"/>
        <pt x="298" y="95" on="0"/>
        <pt x="340" y="132" on="0"/>
        <pt x="369" y="181" on="0"/>
        <pt x="373" y="209" on="1"/>
        <pt x="377" y="237" on="0"/>
        <pt x="362" y="286" on="0"/>
        <pt x="330" y="322" on="0"/>
        <pt x="284" y="343" on="0"/>
        <pt x="256" y="343" on="1"/>
        <pt x="221" y="343" on="0"/>
        <pt x="160" y="320" on="0"/>
        <pt x="138" y="292" on="1"/>
        <pt x="189" y="650" on="1"/>
      </contour>
    </TTGlyph>
    <TTGlyph name="four" xMin="16" yMin="0" xMax="490" yMax="658">
      <contour>
        <pt x="208" y="79" on="1"/>
        <pt x="283" y="79" on="1"/>
        <pt x="298" y="183" on="1"/>
        <pt x="16" y="183" on="1"/>
        <pt x="449" y="658" on="1"/>
        <pt x="393" y="264" on="1"/>
        <pt x="490" y="264" on="1"/>
        <pt x="479" y="183" on="1"/>
        <pt x="382" y="183" on="1"/>
        <pt x="367" y="79" on="1"/>
        <pt x="450" y="79" on="1"/>
        <pt x="439" y="0" on="1"/>
        <pt x="197" y="0" on="1"/>
      </contour>
      <contour>
        <pt x="330" y="413" on="1"/>
        <pt x="195" y="264" on="1"/>
        <pt x="309" y="264" on="1"/>
      </contour>
    </TTGlyph>
    <TTGlyph name="g" xMin="86" yMin="-250" xMax="599" yMax="384">
      <contour>
        <pt x="454" y="375" on="1"/>
        <pt x="599" y="375" on="1"/>
        <pt x="588" y="296" on="1"/>
        <pt x="512" y="296" on="1"/>
        <pt x="462" y="-60" on="1"/>
        <pt x="456" y="-100" on="0"/>
        <pt x="416" y="-169" on="0"/>
        <pt x="355" y="-220" on="0"/>
        <pt x="279" y="-250" on="0"/>
        <pt x="237" y="-250" on="1"/>
        <pt x="192" y="-250" on="0"/>
        <pt x="113" y="-211" on="0"/>
        <pt x="86" y="-190" on="1"/>
        <pt x="150" y="-122" on="1"/>
        <pt x="168" y="-137" on="0"/>
        <pt x="218" y="-164" on="0"/>
        <pt x="247" y="-164" on="1"/>
        <pt x="273" y="-164" on="0"/>
        <pt x="319" y="-146" on="0"/>
        <pt x="354" y="-115" on="0"/>
        <pt x="378" y="-72" on="0"/>
        <pt x="381" y="-47" on="1"/>
        <pt x="390" y="20" on="1"/>
        <pt x="393" y="24" on="0"/>
        <pt x="398" y="33" on="0"/>
        <pt x="401" y="38" on="1"/>
        <pt x="397" y="33" on="0"/>
        <pt x="375" y="18" on="0"/>
        <pt x="341" y="3" on="0"/>
        <pt x="297" y="-8" on="0"/>
        <pt x="270" y="-8" on="1"/>
        <pt x="228" y="-8" on="0"/>
        <pt x="158" y="23" on="0"/>
        <pt x="112" y="76" on="0"/>
        <pt x="90" y="147" on="0"/>
        <pt x="96" y="187" on="1"/>
        <pt x="102" y="226" on="0"/>
        <pt x="143" y="298" on="0"/>
        <pt x="205" y="352" on="0"/>
        <pt x="283" y="384" on="0"/>
        <pt x="325" y="384" on="1"/>
        <pt x="352" y="384" on="0"/>
        <pt x="395" y="368" on="0"/>
        <pt x="427" y="349" on="0"/>
        <pt x="444" y="331" on="0"/>
        <pt x="444" y="328" on="1"/>
        <pt x="446" y="339" on="0"/>
        <pt x="452" y="363" on="0"/>
      </contour>
      <contour>
        <pt x="180" y="188" on="1"/>
        <pt x="173" y="139" on="0"/>
        <pt x="229" y="72" on="0"/>
        <pt x="281" y="72" on="1"/>
        <pt x="307" y="72" on="0"/>
        <pt x="352" y="90" on="0"/>
        <pt x="388" y="121" on="0"/>
        <pt x="411" y="164" on="0"/>
        <pt x="414" y="188" on="1"/>
        <pt x="421" y="238" on="0"/>
        <pt x="365" y="303" on="0"/>
        <pt x="313" y="303" on="1"/>
        <pt x="287" y="303" on="0"/>
        <pt x="242" y="286" on="0"/>
        <pt x="206" y="255" on="0"/>
        <pt x="183" y="213" on="0"/>
      </contour>
    </TTGlyph>
    <TTGlyph name="germandbls" xMin="36" yMin="-9" xMax="562" yMax="657">
      <contour>
        <pt x="47" y="79" on="1"/>
        <pt x="107" y="79" on="1"/>
        <pt x="143" y="334" on="1"/>
        <pt x="83" y="334" on="1"/>
        <pt x="94" y="415" on="1"/>
        <pt x="154" y="415" on="1"/>
        <pt x="155" y="423" on="1"/>
        <pt x="163" y="477" on="0"/>
        <pt x="210" y="564" on="0"/>
        <pt x="276" y="625" on="0"/>
        <pt x="357" y="657" on="0"/>
        <pt x="398" y="657" on="1"/>
        <pt x="431" y="657" on="0"/>
        <pt x="486" y="632" on="0"/>
        <pt x="523" y="588" on="0"/>
        <pt x="540" y="530" on="0"/>
        <pt x="536" y="497" on="1"/>
        <pt x="531" y="465" on="0"/>
        <pt x="500" y="410" on="0"/>
        <pt x="477" y="390" on="1"/>
        <pt x="519" y="361" on="0"/>
        <pt x="562" y="266" on="0"/>
        <pt x="554" y="208" on="1"/>
        <pt x="548" y="163" on="0"/>
        <pt x="502" y="84" on="0"/>
        <pt x="434" y="25" on="0"/>
        <pt x="350" y="-9" on="0"/>
        <pt x="305" y="-9" on="1"/>
        <pt x="282" y="-9" on="0"/>
        <pt x="239" y="0" on="0"/>
        <pt x="221" y="9" on="1"/>
        <pt x="265" y="83" on="1"/>
        <pt x="289" y="72" on="0"/>
        <pt x="316" y="72" on="1"/>
        <pt x="344" y="72" on="0"/>
        <pt x="396" y="94" on="0"/>
        <pt x="439" y="131" on="0"/>
        <pt x="467" y="180" on="0"/>
        <pt x="471" y="208" on="1"/>
        <pt x="475" y="236" on="0"/>
        <pt x="459" y="285" on="0"/>
        <pt x="427" y="321" on="0"/>
        <pt x="380" y="342" on="0"/>
        <pt x="352" y="342" on="1"/>
        <pt x="354" y="352" on="0"/>
        <pt x="354" y="371" on="0"/>
        <pt x="356" y="382" on="1"/>
        <pt x="362" y="423" on="1"/>
        <pt x="396" y="423" on="0"/>
        <pt x="448" y="462" on="0"/>
        <pt x="453" y="497" on="1"/>
        <pt x="457" y="528" on="0"/>
        <pt x="420" y="577" on="0"/>
        <pt x="388" y="576" on="1"/>
        <pt x="331" y="574" on="0"/>
        <pt x="248" y="491" on="0"/>
        <pt x="238" y="418" on="1"/>
        <pt x="179" y="0" on="1"/>
        <pt x="36" y="0" on="1"/>
      </contour>
    </TTGlyph>
    <TTGlyph name="grave" xMin="-31" yMin="479" xMax="103" yMax="612">
      <contour>
        <pt x="51" y="612" on="1"/>
        <pt x="65" y="579" on="0"/>
        <pt x="89" y="512" on="0"/>
        <pt x="103" y="479" on="1"/>
        <pt x="44" y="479" on="1"/>
        <pt x="24" y="512" on="0"/>
        <pt x="-11" y="579" on="0"/>
        <pt x="-31" y="612" on="1"/>
      </contour>
    </TTGlyph>
    <TTGlyph name="greater" xMin="80" yMin="-14" xMax="553" yMax="490">
      <contour>
        <pt x="80" y="-14" on="1"/>
        <pt x="96" y="99" on="1"/>
        <pt x="161" y="134" on="0"/>
        <pt x="291" y="203" on="0"/>
        <pt x="357" y="238" on="1"/>
        <pt x="301" y="273" on="0"/>
        <pt x="191" y="342" on="0"/>
        <pt x="135" y="377" on="1"/>
        <pt x="151" y="490" on="1"/>
        <pt x="252" y="427" on="0"/>
        <pt x="451" y="301" on="0"/>
        <pt x="553" y="238" on="1"/>
        <pt x="434" y="175" on="0"/>
        <pt x="199" y="49" on="0"/>
      </contour>
    </TTGlyph>
    <TTGlyph name="guillemotleft" xMin="139" yMin="77" xMax="504" yMax="400">
      <contour>
        <pt x="459" y="77" on="1"/>
        <pt x="310" y="239" on="1"/>
        <pt x="359" y="280" on="0"/>
        <pt x="455" y="359" on="0"/>
        <pt x="504" y="400" on="1"/>
        <pt x="491" y="306" on="1"/>
        <pt x="472" y="289" on="0"/>
        <pt x="435" y="256" on="0"/>
        <pt x="416" y="239" on="1"/>
        <pt x="430" y="222" on="0"/>
        <pt x="458" y="189" on="0"/>
        <pt x="472" y="172" on="1"/>
      </contour>
      <contour>
        <pt x="288" y="77" on="1"/>
        <pt x="139" y="239" on="1"/>
        <pt x="188" y="280" on="0"/>
        <pt x="284" y="359" on="0"/>
        <pt x="333" y="400" on="1"/>
        <pt x="320" y="305" on="1"/>
        <pt x="300" y="288" on="0"/>
        <pt x="264" y="256" on="0"/>
        <pt x="245" y="239" on="1"/>
        <pt x="259" y="222" on="0"/>
        <pt x="287" y="189" on="0"/>
        <pt x="301" y="172" on="1"/>
      </contour>
    </TTGlyph>
    <TTGlyph name="guillemotright" xMin="117" yMin="77" xMax="481" yMax="400">
      <contour>
        <pt x="130" y="172" on="1"/>
        <pt x="149" y="189" on="0"/>
        <pt x="185" y="222" on="0"/>
        <pt x="204" y="239" on="1"/>
        <pt x="190" y="256" on="0"/>
        <pt x="163" y="289" on="0"/>
        <pt x="149" y="306" on="1"/>
        <pt x="162" y="400" on="1"/>
        <pt x="199" y="359" on="0"/>
        <pt x="273" y="280" on="0"/>
        <pt x="310" y="239" on="1"/>
        <pt x="117" y="77" on="1"/>
      </contour>
      <contour>
        <pt x="301" y="172" on="1"/>
        <pt x="320" y="189" on="0"/>
        <pt x="356" y="222" on="0"/>
        <pt x="375" y="239" on="1"/>
        <pt x="361" y="256" on="0"/>
        <pt x="334" y="288" on="0"/>
        <pt x="320" y="305" on="1"/>
        <pt x="333" y="400" on="1"/>
        <pt x="370" y="359" on="0"/>
        <pt x="444" y="280" on="0"/>
        <pt x="481" y="239" on="1"/>
        <pt x="288" y="77" on="1"/>
      </contour>
    </TTGlyph>
    <TTGlyph name="guilsinglleft" xMin="139" yMin="77" xMax="333" yMax="400">
      <contour>
        <pt x="288" y="77" on="1"/>
        <pt x="139" y="239" on="1"/>
        <pt x="188" y="280" on="0"/>
        <pt x="284" y="359" on="0"/>
        <pt x="333" y="400" on="1"/>
        <pt x="320" y="305" on="1"/>
        <pt x="300" y="288" on="0"/>
        <pt x="264" y="256" on="0"/>
        <pt x="245" y="239" on="1"/>
        <pt x="259" y="222" on="0"/>
        <pt x="287" y="189" on="0"/>
        <pt x="301" y="172" on="1"/>
      </contour>
    </TTGlyph>
    <TTGlyph name="guilsinglright" xMin="117" yMin="77" xMax="310" yMax="400">
      <contour>
        <pt x="130" y="172" on="1"/>
        <pt x="149" y="189" on="0"/>
        <pt x="185" y="222" on="0"/>
        <pt x="204" y="239" on="1"/>
        <pt x="190" y="256" on="0"/>
        <pt x="163" y="288" on="0"/>
        <pt x="149" y="305" on="1"/>
        <pt x="162" y="400" on="1"/>
        <pt x="199" y="359" on="0"/>
        <pt x="273" y="280" on="0"/>
        <pt x="310" y="239" on="1"/>
        <pt x="117" y="77" on="1"/>
      </contour>
    </TTGlyph>
    <TTGlyph name="h" xMin="35" yMin="0" xMax="556" yMax="750">
      <contour>
        <pt x="334" y="79" on="1"/>
        <pt x="411" y="79" on="1"/>
        <pt x="432" y="234" on="1"/>
        <pt x="434" y="261" on="0"/>
        <pt x="405" y="300" on="0"/>
        <pt x="367" y="302" on="1"/>
        <pt x="341" y="302" on="0"/>
        <pt x="291" y="284" on="0"/>
        <pt x="251" y="252" on="0"/>
        <pt x="223" y="208" on="0"/>
        <pt x="219" y="182" on="1"/>
        <pt x="205" y="79" on="1"/>
        <pt x="268" y="79" on="1"/>
        <pt x="257" y="0" on="1"/>
        <pt x="35" y="0" on="1"/>
        <pt x="46" y="79" on="1"/>
        <pt x="122" y="79" on="1"/>
        <pt x="205" y="671" on="1"/>
        <pt x="129" y="671" on="1"/>
        <pt x="140" y="750" on="1"/>
        <pt x="299" y="750" on="1"/>
        <pt x="239" y="324" on="1"/>
        <pt x="230" y="279" on="1"/>
        <pt x="259" y="328" on="0"/>
        <pt x="350" y="381" on="0"/>
        <pt x="407" y="384" on="1"/>
        <pt x="466" y="384" on="0"/>
        <pt x="526" y="322" on="0"/>
        <pt x="521" y="272" on="1"/>
        <pt x="494" y="79" on="1"/>
        <pt x="556" y="79" on="1"/>
        <pt x="545" y="0" on="1"/>
        <pt x="323" y="0" on="1"/>
      </contour>
    </TTGlyph>
    <TTGlyph name="hyphen" xMin="47" yMin="147" xMax="242" yMax="228">
      <contour>
        <pt x="47" y="147" on="1"/>
        <pt x="58" y="228" on="1"/>
        <pt x="242" y="228" on="1"/>
        <pt x="231" y="147" on="1"/>
      </contour>
    </TTGlyph>
    <TTGlyph name="i" xMin="35" yMin="0" xMax="275" yMax="573">
      <contour>
        <pt x="46" y="79" on="1"/>
        <pt x="116" y="79" on="1"/>
        <pt x="146" y="296" on="1"/>
        <pt x="76" y="296" on="1"/>
        <pt x="87" y="375" on="1"/>
        <pt x="240" y="375" on="1"/>
        <pt x="199" y="79" on="1"/>
        <pt x="268" y="79" on="1"/>
        <pt x="257" y="0" on="1"/>
        <pt x="35" y="0" on="1"/>
      </contour>
      <contour>
        <pt x="169" y="520" on="1"/>
        <pt x="172" y="543" on="0"/>
        <pt x="208" y="573" on="0"/>
        <pt x="228" y="573" on="1"/>
        <pt x="247" y="573" on="0"/>
        <pt x="275" y="543" on="0"/>
        <pt x="272" y="520" on="1"/>
        <pt x="268" y="497" on="0"/>
        <pt x="232" y="468" on="0"/>
        <pt x="213" y="468" on="1"/>
        <pt x="193" y="468" on="0"/>
        <pt x="165" y="497" on="0"/>
      </contour>
    </TTGlyph>
    <TTGlyph name="iacute" xMin="35" yMin="0" xMax="379" yMax="612">
      <contour>
        <pt x="46" y="79" on="1"/>
        <pt x="116" y="79" on="1"/>
        <pt x="146" y="296" on="1"/>
        <pt x="76" y="296" on="1"/>
        <pt x="87" y="375" on="1"/>
        <pt x="240" y="375" on="1"/>
        <pt x="199" y="79" on="1"/>
        <pt x="268" y="79" on="1"/>
        <pt x="257" y="0" on="1"/>
        <pt x="35" y="0" on="1"/>
      </contour>
      <contour>
        <pt x="187" y="479" on="1"/>
        <pt x="214" y="512" on="0"/>
        <pt x="268" y="579" on="0"/>
        <pt x="295" y="612" on="1"/>
        <pt x="379" y="612" on="1"/>
        <pt x="246" y="479" on="1"/>
      </contour>
    </TTGlyph>
    <TTGlyph name="icircumflex" xMin="35" yMin="0" xMax="321" yMax="660">
      <contour>
        <pt x="46" y="79" on="1"/>
        <pt x="116" y="79" on="1"/>
        <pt x="146" y="296" on="1"/>
        <pt x="76" y="296" on="1"/>
        <pt x="87" y="375" on="1"/>
        <pt x="240" y="375" on="1"/>
        <pt x="199" y="79" on="1"/>
        <pt x="268" y="79" on="1"/>
        <pt x="257" y="0" on="1"/>
        <pt x="35" y="0" on="1"/>
      </contour>
      <contour>
        <pt x="226" y="660" on="1"/>
        <pt x="250" y="615" on="0"/>
        <pt x="297" y="524" on="0"/>
        <pt x="321" y="479" on="1"/>
        <pt x="262" y="479" on="1"/>
        <pt x="211" y="551" on="1"/>
        <pt x="194" y="533" on="0"/>
        <pt x="157" y="497" on="0"/>
        <pt x="140" y="479" on="1"/>
        <pt x="81" y="479" on="1"/>
        <pt x="117" y="524" on="0"/>
        <pt x="190" y="615" on="0"/>
      </contour>
    </TTGlyph>
    <TTGlyph name="idieresis" xMin="35" yMin="0" xMax="355" yMax="573">
      <contour>
        <pt x="46" y="79" on="1"/>
        <pt x="116" y="79" on="1"/>
        <pt x="146" y="296" on="1"/>
        <pt x="76" y="296" on="1"/>
        <pt x="87" y="375" on="1"/>
        <pt x="240" y="375" on="1"/>
        <pt x="199" y="79" on="1"/>
        <pt x="268" y="79" on="1"/>
        <pt x="257" y="0" on="1"/>
        <pt x="35" y="0" on="1"/>
      </contour>
      <contour>
        <pt x="249" y="520" on="1"/>
        <pt x="252" y="543" on="0"/>
        <pt x="288" y="573" on="0"/>
        <pt x="308" y="573" on="1"/>
        <pt x="327" y="573" on="0"/>
        <pt x="355" y="543" on="0"/>
        <pt x="352" y="520" on="1"/>
        <pt x="348" y="497" on="0"/>
        <pt x="313" y="468" on="0"/>
        <pt x="294" y="468" on="1"/>
        <pt x="274" y="468" on="0"/>
        <pt x="245" y="497" on="0"/>
      </contour>
      <contour>
        <pt x="83" y="520" on="1"/>
        <pt x="86" y="543" on="0"/>
        <pt x="122" y="573" on="0"/>
        <pt x="142" y="573" on="1"/>
        <pt x="161" y="573" on="0"/>
        <pt x="189" y="543" on="0"/>
        <pt x="186" y="520" on="1"/>
        <pt x="182" y="497" on="0"/>
        <pt x="147" y="468" on="0"/>
        <pt x="128" y="468" on="1"/>
        <pt x="108" y="468" on="0"/>
        <pt x="79" y="497" on="0"/>
      </contour>
    </TTGlyph>
    <TTGlyph name="igrave" xMin="35" yMin="0" xMax="268" yMax="612">
      <contour>
        <pt x="46" y="79" on="1"/>
        <pt x="116" y="79" on="1"/>
        <pt x="146" y="296" on="1"/>
        <pt x="76" y="296" on="1"/>
        <pt x="87" y="375" on="1"/>
        <pt x="240" y="375" on="1"/>
        <pt x="199" y="79" on="1"/>
        <pt x="268" y="79" on="1"/>
        <pt x="257" y="0" on="1"/>
        <pt x="35" y="0" on="1"/>
      </contour>
      <contour>
        <pt x="181" y="612" on="1"/>
        <pt x="195" y="579" on="0"/>
        <pt x="219" y="512" on="0"/>
        <pt x="233" y="479" on="1"/>
        <pt x="174" y="479" on="1"/>
        <pt x="154" y="512" on="0"/>
        <pt x="119" y="579" on="0"/>
        <pt x="99" y="612" on="1"/>
      </contour>
    </TTGlyph>
    <TTGlyph name="j" xMin="-5" yMin="-181" xMax="237" yMax="573">
      <contour>
        <pt x="59" y="375" on="1"/>
        <pt x="201" y="375" on="1"/>
        <pt x="148" y="0" on="1"/>
        <pt x="140" y="-61" on="0"/>
        <pt x="85" y="-152" on="0"/>
        <pt x="44" y="-181" on="1"/>
        <pt x="-5" y="-119" on="1"/>
        <pt x="23" y="-99" on="0"/>
        <pt x="60" y="-39" on="0"/>
        <pt x="65" y="3" on="1"/>
        <pt x="107" y="296" on="1"/>
        <pt x="48" y="296" on="1"/>
      </contour>
      <contour>
        <pt x="131" y="520" on="1"/>
        <pt x="134" y="543" on="0"/>
        <pt x="170" y="573" on="0"/>
        <pt x="190" y="573" on="1"/>
        <pt x="209" y="573" on="0"/>
        <pt x="237" y="543" on="0"/>
        <pt x="234" y="520" on="1"/>
        <pt x="231" y="497" on="0"/>
        <pt x="195" y="468" on="0"/>
        <pt x="176" y="468" on="1"/>
        <pt x="156" y="468" on="0"/>
        <pt x="128" y="497" on="0"/>
      </contour>
    </TTGlyph>
    <TTGlyph name="k" xMin="35" yMin="0" xMax="503" yMax="750">
      <contour>
        <pt x="302" y="79" on="1"/>
        <pt x="313" y="79" on="1"/>
        <pt x="287" y="119" on="0"/>
        <pt x="265" y="160" on="1"/>
        <pt x="210" y="114" on="1"/>
        <pt x="205" y="79" on="1"/>
        <pt x="268" y="79" on="1"/>
        <pt x="257" y="0" on="1"/>
        <pt x="35" y="0" on="1"/>
        <pt x="46" y="79" on="1"/>
        <pt x="122" y="79" on="1"/>
        <pt x="205" y="671" on="1"/>
        <pt x="139" y="671" on="1"/>
        <pt x="150" y="750" on="1"/>
        <pt x="299" y="750" on="1"/>
        <pt x="223" y="211" on="1"/>
        <pt x="326" y="296" on="1"/>
        <pt x="289" y="296" on="1"/>
        <pt x="300" y="375" on="1"/>
        <pt x="501" y="375" on="1"/>
        <pt x="490" y="296" on="1"/>
        <pt x="428" y="296" on="1"/>
        <pt x="403" y="276" on="0"/>
        <pt x="355" y="234" on="0"/>
        <pt x="331" y="214" on="1"/>
        <pt x="350" y="180" on="0"/>
        <pt x="390" y="113" on="0"/>
        <pt x="410" y="79" on="1"/>
        <pt x="503" y="79" on="1"/>
        <pt x="492" y="0" on="1"/>
        <pt x="291" y="0" on="1"/>
      </contour>
    </TTGlyph>
    <TTGlyph name="l" xMin="35" yMin="0" xMax="299" yMax="750">
      <contour>
        <pt x="46" y="79" on="1"/>
        <pt x="122" y="79" on="1"/>
        <pt x="205" y="671" on="1"/>
        <pt x="139" y="671" on="1"/>
        <pt x="150" y="750" on="1"/>
        <pt x="299" y="750" on="1"/>
        <pt x="205" y="79" on="1"/>
        <pt x="268" y="79" on="1"/>
        <pt x="257" y="0" on="1"/>
        <pt x="35" y="0" on="1"/>
      </contour>
    </TTGlyph>
    <TTGlyph name="less" xMin="116" yMin="-14" xMax="588" yMax="490">
      <contour>
        <pt x="533" y="99" on="1"/>
        <pt x="517" y="-14" on="1"/>
        <pt x="416" y="49" on="0"/>
        <pt x="217" y="175" on="0"/>
        <pt x="116" y="238" on="1"/>
        <pt x="234" y="301" on="0"/>
        <pt x="469" y="427" on="0"/>
        <pt x="588" y="490" on="1"/>
        <pt x="572" y="377" on="1"/>
        <pt x="507" y="342" on="0"/>
        <pt x="377" y="273" on="0"/>
        <pt x="312" y="238" on="1"/>
        <pt x="367" y="203" on="0"/>
        <pt x="477" y="134" on="0"/>
      </contour>
    </TTGlyph>
    <TTGlyph name="logicalnot" xMin="105" yMin="148" xMax="474" yMax="248">
      <contour>
        <pt x="376" y="148" on="1"/>
        <pt x="381" y="188" on="1"/>
        <pt x="105" y="188" on="1"/>
        <pt x="114" y="248" on="1"/>
        <pt x="474" y="248" on="1"/>
        <pt x="460" y="148" on="1"/>
      </contour>
    </TTGlyph>
    <TTGlyph name="m" xMin="35" yMin="0" xMax="846" yMax="384">
      <contour>
        <pt x="624" y="79" on="1"/>
        <pt x="700" y="79" on="1"/>
        <pt x="721" y="234" on="1"/>
        <pt x="723" y="261" on="0"/>
        <pt x="694" y="300" on="0"/>
        <pt x="656" y="302" on="1"/>
        <pt x="630" y="302" on="0"/>
        <pt x="580" y="284" on="0"/>
        <pt x="540" y="252" on="0"/>
        <pt x="512" y="208" on="0"/>
        <pt x="508" y="182" on="1"/>
        <pt x="494" y="79" on="1"/>
        <pt x="557" y="79" on="1"/>
        <pt x="546" y="0" on="1"/>
        <pt x="324" y="0" on="1"/>
        <pt x="335" y="79" on="1"/>
        <pt x="411" y="79" on="1"/>
        <pt x="432" y="234" on="1"/>
        <pt x="434" y="261" on="0"/>
        <pt x="405" y="300" on="0"/>
        <pt x="367" y="302" on="1"/>
        <pt x="341" y="302" on="0"/>
        <pt x="291" y="284" on="0"/>
        <pt x="251" y="252" on="0"/>
        <pt x="223" y="208" on="0"/>
        <pt x="219" y="182" on="1"/>
        <pt x="205" y="79" on="1"/>
        <pt x="268" y="79" on="1"/>
        <pt x="257" y="0" on="1"/>
        <pt x="35" y="0" on="1"/>
        <pt x="46" y="79" on="1"/>
        <pt x="122" y="79" on="1"/>
        <pt x="152" y="296" on="1"/>
        <pt x="86" y="296" on="1"/>
        <pt x="97" y="375" on="1"/>
        <pt x="236" y="375" on="1"/>
        <pt x="235" y="366" on="1"/>
        <pt x="233" y="342" on="0"/>
        <pt x="232" y="303" on="0"/>
        <pt x="230" y="279" on="1"/>
        <pt x="258" y="327" on="0"/>
        <pt x="350" y="382" on="0"/>
        <pt x="407" y="384" on="1"/>
        <pt x="462" y="384" on="0"/>
        <pt x="522" y="329" on="0"/>
        <pt x="521" y="284" on="1"/>
        <pt x="550" y="330" on="0"/>
        <pt x="641" y="382" on="0"/>
        <pt x="696" y="384" on="1"/>
        <pt x="755" y="384" on="0"/>
        <pt x="815" y="322" on="0"/>
        <pt x="810" y="272" on="1"/>
        <pt x="783" y="79" on="1"/>
        <pt x="846" y="79" on="1"/>
        <pt x="835" y="0" on="1"/>
        <pt x="613" y="0" on="1"/>
      </contour>
    </TTGlyph>
    <TTGlyph name="macron" xMin="85" yMin="478" xMax="322" yMax="531">
      <contour>
        <pt x="85" y="478" on="1"/>
        <pt x="92" y="531" on="1"/>
        <pt x="322" y="531" on="1"/>
        <pt x="315" y="478" on="1"/>
      </contour>
    </TTGlyph>
    <TTGlyph name="mu" xMin="82" yMin="-201" xMax="554" yMax="375">
      <contour>
        <pt x="385" y="375" on="1"/>
        <pt x="534" y="375" on="1"/>
        <pt x="492" y="70" on="1"/>
        <pt x="554" y="70" on="1"/>
        <pt x="544" y="0" on="1"/>
        <pt x="399" y="0" on="1"/>
        <pt x="406" y="51" on="1"/>
        <pt x="415" y="96" on="1"/>
        <pt x="388" y="48" on="0"/>
        <pt x="291" y="-9" on="0"/>
        <pt x="237" y="-9" on="1"/>
        <pt x="213" y="-9" on="0"/>
        <pt x="192" y="-3" on="1"/>
        <pt x="165" y="-201" on="1"/>
        <pt x="82" y="-201" on="1"/>
        <pt x="151" y="296" on="1"/>
        <pt x="85" y="296" on="1"/>
        <pt x="96" y="375" on="1"/>
        <pt x="245" y="375" on="1"/>
        <pt x="213" y="141" on="1"/>
        <pt x="211" y="114" on="0"/>
        <pt x="240" y="75" on="0"/>
        <pt x="278" y="73" on="1"/>
        <pt x="304" y="73" on="0"/>
        <pt x="354" y="91" on="0"/>
        <pt x="394" y="123" on="0"/>
        <pt x="422" y="167" on="0"/>
        <pt x="426" y="193" on="1"/>
        <pt x="440" y="296" on="1"/>
        <pt x="374" y="296" on="1"/>
      </contour>
    </TTGlyph>
    <TTGlyph name="multiply" xMin="118" yMin="0" xMax="457" yMax="314">
      <contour>
        <pt x="364" y="0" on="1"/>
        <pt x="342" y="25" on="0"/>
        <pt x="300" y="73" on="0"/>
        <pt x="278" y="98" on="1"/>
        <pt x="251" y="74" on="0"/>
        <pt x="195" y="25" on="0"/>
        <pt x="168" y="1" on="1"/>
        <pt x="155" y="15" on="0"/>
        <pt x="130" y="44" on="0"/>
        <pt x="118" y="58" on="1"/>
        <pt x="146" y="83" on="0"/>
        <pt x="201" y="131" on="0"/>
        <pt x="229" y="156" on="1"/>
        <pt x="144" y="255" on="1"/>
        <pt x="212" y="314" on="1"/>
        <pt x="297" y="215" on="1"/>
        <pt x="325" y="240" on="0"/>
        <pt x="380" y="288" on="0"/>
        <pt x="408" y="313" on="1"/>
        <pt x="421" y="299" on="0"/>
        <pt x="445" y="269" on="0"/>
        <pt x="457" y="255" on="1"/>
        <pt x="430" y="231" on="0"/>
        <pt x="374" y="182" on="0"/>
        <pt x="347" y="158" on="1"/>
        <pt x="368" y="133" on="0"/>
        <pt x="409" y="84" on="0"/>
        <pt x="431" y="59" on="1"/>
      </contour>
    </TTGlyph>
    <TTGlyph name="n" xMin="35" yMin="0" xMax="556" yMax="384">
      <contour>
        <pt x="334" y="79" on="1"/>
        <pt x="411" y="79" on="1"/>
        <pt x="432" y="234" on="1"/>
        <pt x="434" y="261" on="0"/>
        <pt x="405" y="300" on="0"/>
        <pt x="367" y="302" on="1"/>
        <pt x="341" y="302" on="0"/>
        <pt x="291" y="284" on="0"/>
        <pt x="251" y="252" on="0"/>
        <pt x="223" y="208" on="0"/>
        <pt x="219" y="182" on="1"/>
        <pt x="205" y="79" on="1"/>
        <pt x="268" y="79" on="1"/>
        <pt x="257" y="0" on="1"/>
        <pt x="35" y="0" on="1"/>
        <pt x="46" y="79" on="1"/>
        <pt x="122" y="79" on="1"/>
        <pt x="152" y="296" on="1"/>
        <pt x="86" y="296" on="1"/>
        <pt x="97" y="375" on="1"/>
        <pt x="236" y="375" on="1"/>
        <pt x="235" y="366" on="1"/>
        <pt x="233" y="342" on="0"/>
        <pt x="232" y="303" on="0"/>
        <pt x="230" y="279" on="1"/>
        <pt x="257" y="327" on="0"/>
        <pt x="353" y="384" on="0"/>
        <pt x="407" y="384" on="1"/>
        <pt x="466" y="384" on="0"/>
        <pt x="526" y="322" on="0"/>
        <pt x="521" y="272" on="1"/>
        <pt x="494" y="79" on="1"/>
        <pt x="556" y="79" on="1"/>
        <pt x="545" y="0" on="1"/>
        <pt x="323" y="0" on="1"/>
      </contour>
    </TTGlyph>
    <TTGlyph name="nine" xMin="34" yMin="-9" xMax="482" yMax="636">
      <contour>
        <pt x="390" y="419" on="1"/>
        <pt x="394" y="447" on="0"/>
        <pt x="381" y="496" on="0"/>
        <pt x="350" y="533" on="0"/>
        <pt x="305" y="555" on="0"/>
        <pt x="278" y="555" on="1"/>
        <pt x="250" y="555" on="0"/>
        <pt x="198" y="533" on="0"/>
        <pt x="156" y="496" on="0"/>
        <pt x="127" y="447" on="0"/>
        <pt x="123" y="419" on="1"/>
        <pt x="119" y="391" on="0"/>
        <pt x="134" y="342" on="0"/>
        <pt x="166" y="306" on="0"/>
        <pt x="212" y="285" on="0"/>
        <pt x="240" y="285" on="1"/>
        <pt x="267" y="285" on="0"/>
        <pt x="318" y="306" on="0"/>
        <pt x="359" y="342" on="0"/>
        <pt x="386" y="391" on="0"/>
      </contour>
      <contour>
        <pt x="476" y="419" on="1"/>
        <pt x="467" y="351" on="0"/>
        <pt x="387" y="229" on="0"/>
        <pt x="274" y="122" on="0"/>
        <pt x="144" y="30" on="0"/>
        <pt x="85" y="-9" on="1"/>
        <pt x="74" y="7" on="0"/>
        <pt x="53" y="39" on="0"/>
        <pt x="42" y="55" on="1"/>
        <pt x="113" y="98" on="0"/>
        <pt x="214" y="173" on="0"/>
        <pt x="250" y="205" on="1"/>
        <pt x="245" y="204" on="0"/>
        <pt x="234" y="204" on="0"/>
        <pt x="229" y="204" on="1"/>
        <pt x="184" y="204" on="0"/>
        <pt x="109" y="237" on="0"/>
        <pt x="58" y="296" on="0"/>
        <pt x="34" y="374" on="0"/>
        <pt x="40" y="419" on="1"/>
        <pt x="46" y="464" on="0"/>
        <pt x="93" y="543" on="0"/>
        <pt x="161" y="602" on="0"/>
        <pt x="245" y="636" on="0"/>
        <pt x="290" y="636" on="1"/>
        <pt x="335" y="636" on="0"/>
        <pt x="409" y="601" on="0"/>
        <pt x="459" y="542" on="0"/>
        <pt x="482" y="463" on="0"/>
      </contour>
    </TTGlyph>
    <TTGlyph name="ntilde" xMin="35" yMin="0" xMax="556" yMax="546">
      <component glyphName="n" x="0" y="0" flags="0x204"/>
      <component glyphName="asciitilde" x="87" y="-6" flags="0x4"/>
    </TTGlyph>
    <TTGlyph name="numbersign" xMin="6" yMin="0" xMax="536" yMax="643">
      <contour>
        <pt x="229" y="371" on="1"/>
        <pt x="223" y="345" on="0"/>
        <pt x="210" y="295" on="0"/>
        <pt x="203" y="269" on="1"/>
        <pt x="303" y="269" on="1"/>
        <pt x="310" y="295" on="0"/>
        <pt x="323" y="345" on="0"/>
        <pt x="329" y="371" on="1"/>
      </contour>
      <contour>
        <pt x="233" y="0" on="1"/>
        <pt x="245" y="48" on="0"/>
        <pt x="270" y="140" on="0"/>
        <pt x="282" y="188" on="1"/>
        <pt x="182" y="188" on="1"/>
        <pt x="170" y="140" on="0"/>
        <pt x="145" y="48" on="0"/>
        <pt x="133" y="0" on="1"/>
        <pt x="49" y="0" on="1"/>
        <pt x="61" y="48" on="0"/>
        <pt x="86" y="140" on="0"/>
        <pt x="98" y="188" on="1"/>
        <pt x="6" y="188" on="1"/>
        <pt x="27" y="269" on="1"/>
        <pt x="119" y="269" on="1"/>
        <pt x="126" y="295" on="0"/>
        <pt x="139" y="345" on="0"/>
        <pt x="145" y="371" on="1"/>
        <pt x="54" y="371" on="1"/>
        <pt x="59" y="391" on="0"/>
        <pt x="69" y="432" on="0"/>
        <pt x="74" y="452" on="1"/>
        <pt x="166" y="452" on="1"/>
        <pt x="179" y="500" on="0"/>
        <pt x="204" y="595" on="0"/>
        <pt x="217" y="643" on="1"/>
        <pt x="301" y="643" on="1"/>
        <pt x="288" y="595" on="0"/>
        <pt x="263" y="500" on="0"/>
        <pt x="250" y="452" on="1"/>
        <pt x="350" y="452" on="1"/>
        <pt x="363" y="500" on="0"/>
        <pt x="388" y="595" on="0"/>
        <pt x="401" y="643" on="1"/>
        <pt x="485" y="643" on="1"/>
        <pt x="472" y="595" on="0"/>
        <pt x="447" y="500" on="0"/>
        <pt x="434" y="452" on="1"/>
        <pt x="536" y="452" on="1"/>
        <pt x="531" y="432" on="0"/>
        <pt x="521" y="391" on="0"/>
        <pt x="516" y="371" on="1"/>
        <pt x="413" y="371" on="1"/>
        <pt x="407" y="345" on="0"/>
        <pt x="394" y="295" on="0"/>
        <pt x="387" y="269" on="1"/>
        <pt x="489" y="269" on="1"/>
        <pt x="468" y="188" on="1"/>
        <pt x="366" y="188" on="1"/>
        <pt x="354" y="140" on="0"/>
        <pt x="329" y="48" on="0"/>
        <pt x="317" y="0" on="1"/>
      </contour>
    </TTGlyph>
    <TTGlyph name="o" xMin="56" yMin="-9" xMax="469" yMax="384">
      <contour>
        <pt x="62" y="188" on="1"/>
        <pt x="68" y="228" on="0"/>
        <pt x="109" y="300" on="0"/>
        <pt x="171" y="353" on="0"/>
        <pt x="248" y="384" on="0"/>
        <pt x="290" y="384" on="1"/>
        <pt x="332" y="384" on="0"/>
        <pt x="401" y="353" on="0"/>
        <pt x="448" y="300" on="0"/>
        <pt x="469" y="228" on="0"/>
        <pt x="463" y="188" on="1"/>
        <pt x="457" y="147" on="0"/>
        <pt x="416" y="76" on="0"/>
        <pt x="355" y="22" on="0"/>
        <pt x="277" y="-9" on="0"/>
        <pt x="235" y="-9" on="1"/>
        <pt x="193" y="-9" on="0"/>
        <pt x="125" y="22" on="0"/>
        <pt x="78" y="76" on="0"/>
        <pt x="56" y="147" on="0"/>
      </contour>
      <contour>
        <pt x="145" y="187" on="1"/>
        <pt x="142" y="163" on="0"/>
        <pt x="154" y="121" on="0"/>
        <pt x="181" y="90" on="0"/>
        <pt x="220" y="72" on="0"/>
        <pt x="244" y="72" on="1"/>
        <pt x="268" y="72" on="0"/>
        <pt x="313" y="90" on="0"/>
        <pt x="349" y="121" on="0"/>
        <pt x="373" y="163" on="0"/>
        <pt x="376" y="187" on="1"/>
        <pt x="379" y="211" on="0"/>
        <pt x="367" y="253" on="0"/>
        <pt x="340" y="285" on="0"/>
        <pt x="300" y="303" on="0"/>
        <pt x="276" y="303" on="1"/>
        <pt x="252" y="303" on="0"/>
        <pt x="208" y="285" on="0"/>
        <pt x="172" y="253" on="0"/>
        <pt x="148" y="211" on="0"/>
      </contour>
    </TTGlyph>
    <TTGlyph name="oacute" xMin="56" yMin="-9" xMax="492" yMax="612">
      <component glyphName="o" x="0" y="0" flags="0x204"/>
      <component glyphName="acute" x="200" y="0" flags="0x4"/>
    </TTGlyph>
    <TTGlyph name="ocircumflex" xMin="56" yMin="-9" xMax="469" yMax="660">
      <component glyphName="o" x="0" y="0" flags="0x204"/>
      <component glyphName="asciicircum" x="88" y="0" flags="0x4"/>
    </TTGlyph>
    <TTGlyph name="odieresis" xMin="56" yMin="-9" xMax="469" yMax="573">
      <component glyphName="o" x="0" y="0" flags="0x204"/>
      <component glyphName="dieresis" x="110" y="0" flags="0x4"/>
    </TTGlyph>
    <TTGlyph name="ograve" xMin="56" yMin="-9" xMax="469" yMax="612">
      <component glyphName="o" x="0" y="0" flags="0x204"/>
      <component glyphName="grave" x="213" y="0" flags="0x4"/>
    </TTGlyph>
    <TTGlyph name="one" xMin="-22" yMin="0" xMax="231" yMax="650">
      <contour>
        <pt x="-11" y="79" on="1"/>
        <pt x="67" y="79" on="1"/>
        <pt x="136" y="569" on="1"/>
        <pt x="68" y="569" on="1"/>
        <pt x="79" y="650" on="1"/>
        <pt x="231" y="650" on="1"/>
        <pt x="151" y="79" on="1"/>
        <pt x="230" y="79" on="1"/>
        <pt x="219" y="0" on="1"/>
        <pt x="-22" y="0" on="1"/>
      </contour>
    </TTGlyph>
    <TTGlyph name="onehalf" xMin="81" yMin="-19" xMax="874" yMax="736">
      <component glyphName="one" x="97" y="234" scalex="0.709899902344" scaley="0.709716796875" flags="0x4"/>
      <component glyphName="two" x="533" y="0" scalex="0.708312988281" scaley="0.709716796875" flags="0x4"/>
      <component glyphName="slash" x="239" y="0" flags="0x4"/>
    </TTGlyph>
    <TTGlyph name="onequarter" xMin="81" yMin="-19" xMax="838" yMax="736">
      <component glyphName="slash" x="239" y="0" flags="0x4"/>
      <component glyphName="four" x="474" y="0" scalex="0.742980957031" scaley="0.744689941406" flags="0x4"/>
      <component glyphName="one" x="97" y="234" scalex="0.709899902344" scaley="0.709716796875" flags="0x4"/>
    </TTGlyph>
    <TTGlyph name="onesuperior" xMin="31" yMin="401" xMax="148" yMax="700">
      <component glyphName="one" x="42" y="401" scalex="0.460510253906" scaley="0.460021972656" flags="0x4"/>
    </TTGlyph>
    <TTGlyph name="ordfeminine" xMin="98" yMin="299" xMax="436" yMax="582">
      <component glyphName="a" x="58" y="306" scalex="0.721374511719" scaley="0.721252441406" flags="0x4"/>
    </TTGlyph>
    <TTGlyph name="ordmasculine" xMin="105" yMin="299" xMax="403" yMax="582">
      <component glyphName="o" x="65" y="306" scale="0.721252441406" flags="0x4"/>
    </TTGlyph>
    <TTGlyph name="oslash" xMin="43" yMin="-26" xMax="471" yMax="401">
      <contour>
        <pt x="148" y="188" on="1"/>
        <pt x="142" y="153" on="0"/>
        <pt x="156" y="125" on="1"/>
        <pt x="326" y="295" on="1"/>
        <pt x="304" y="303" on="0"/>
        <pt x="281" y="303" on="1"/>
        <pt x="255" y="303" on="0"/>
        <pt x="210" y="286" on="0"/>
        <pt x="174" y="255" on="0"/>
        <pt x="151" y="213" on="0"/>
      </contour>
      <contour>
        <pt x="248" y="72" on="1"/>
        <pt x="274" y="72" on="0"/>
        <pt x="319" y="90" on="0"/>
        <pt x="355" y="121" on="0"/>
        <pt x="378" y="164" on="0"/>
        <pt x="382" y="188" on="1"/>
        <pt x="387" y="229" on="0"/>
        <pt x="369" y="259" on="1"/>
        <pt x="324" y="215" on="0"/>
        <pt x="238" y="129" on="0"/>
        <pt x="194" y="85" on="1"/>
        <pt x="218" y="72" on="0"/>
      </contour>
      <contour>
        <pt x="65" y="188" on="1"/>
        <pt x="71" y="228" on="0"/>
        <pt x="112" y="300" on="0"/>
        <pt x="173" y="353" on="0"/>
        <pt x="250" y="384" on="0"/>
        <pt x="292" y="384" on="1"/>
        <pt x="348" y="384" on="0"/>
        <pt x="388" y="358" on="1"/>
        <pt x="399" y="369" on="0"/>
        <pt x="421" y="390" on="0"/>
        <pt x="432" y="401" on="1"/>
        <pt x="442" y="391" on="0"/>
        <pt x="461" y="371" on="0"/>
        <pt x="471" y="361" on="1"/>
        <pt x="431" y="321" on="1"/>
        <pt x="452" y="295" on="0"/>
        <pt x="471" y="226" on="0"/>
        <pt x="466" y="188" on="1"/>
        <pt x="460" y="147" on="0"/>
        <pt x="419" y="76" on="0"/>
        <pt x="357" y="22" on="0"/>
        <pt x="279" y="-9" on="0"/>
        <pt x="237" y="-9" on="1"/>
        <pt x="206" y="-9" on="0"/>
        <pt x="154" y="8" on="0"/>
        <pt x="132" y="23" on="1"/>
        <pt x="120" y="11" on="0"/>
        <pt x="96" y="-14" on="0"/>
        <pt x="84" y="-26" on="1"/>
        <pt x="73" y="-16" on="0"/>
        <pt x="53" y="2" on="0"/>
        <pt x="43" y="12" on="1"/>
        <pt x="55" y="25" on="0"/>
        <pt x="80" y="49" on="0"/>
        <pt x="93" y="62" on="1"/>
        <pt x="75" y="88" on="0"/>
        <pt x="60" y="152" on="0"/>
      </contour>
    </TTGlyph>
    <TTGlyph name="otilde" xMin="56" yMin="-9" xMax="469" yMax="552">
      <component glyphName="o" x="0" y="0" flags="0x204"/>
      <component glyphName="asciitilde" x="13" y="0" flags="0x4"/>
    </TTGlyph>
    <TTGlyph name="p" xMin="-1" yMin="-250" xMax="532" yMax="384">
      <contour>
        <pt x="8" y="-171" on="1"/>
        <pt x="75" y="-171" on="1"/>
        <pt x="141" y="296" on="1"/>
        <pt x="65" y="296" on="1"/>
        <pt x="78" y="375" on="1"/>
        <pt x="221" y="375" on="1"/>
        <pt x="218" y="352" on="0"/>
        <pt x="218" y="328" on="1"/>
        <pt x="219" y="331" on="0"/>
        <pt x="243" y="350" on="0"/>
        <pt x="280" y="369" on="0"/>
        <pt x="327" y="384" on="0"/>
        <pt x="353" y="384" on="1"/>
        <pt x="395" y="384" on="0"/>
        <pt x="464" y="353" on="0"/>
        <pt x="511" y="299" on="0"/>
        <pt x="532" y="228" on="0"/>
        <pt x="527" y="188" on="1"/>
        <pt x="521" y="148" on="0"/>
        <pt x="480" y="76" on="0"/>
        <pt x="418" y="22" on="0"/>
        <pt x="340" y="-9" on="0"/>
        <pt x="298" y="-9" on="1"/>
        <pt x="270" y="-9" on="0"/>
        <pt x="227" y="3" on="0"/>
        <pt x="197" y="19" on="0"/>
        <pt x="180" y="34" on="0"/>
        <pt x="178" y="38" on="1"/>
        <pt x="180" y="33" on="0"/>
        <pt x="183" y="24" on="0"/>
        <pt x="185" y="19" on="1"/>
        <pt x="158" y="-171" on="1"/>
        <pt x="230" y="-171" on="1"/>
        <pt x="220" y="-250" on="1"/>
        <pt x="-1" y="-250" on="1"/>
      </contour>
      <contour>
        <pt x="443" y="188" on="1"/>
        <pt x="450" y="238" on="0"/>
        <pt x="394" y="303" on="0"/>
        <pt x="342" y="303" on="1"/>
        <pt x="316" y="303" on="0"/>
        <pt x="271" y="286" on="0"/>
        <pt x="235" y="255" on="0"/>
        <pt x="212" y="213" on="0"/>
        <pt x="209" y="188" on="1"/>
        <pt x="205" y="164" on="0"/>
        <pt x="216" y="121" on="0"/>
        <pt x="243" y="90" on="0"/>
        <pt x="283" y="72" on="0"/>
        <pt x="309" y="72" on="1"/>
        <pt x="335" y="72" on="0"/>
        <pt x="380" y="90" on="0"/>
        <pt x="416" y="121" on="0"/>
        <pt x="439" y="164" on="0"/>
      </contour>
    </TTGlyph>
    <TTGlyph name="paragraph" xMin="115" yMin="0" xMax="621" yMax="750">
      <contour>
        <pt x="284" y="0" on="1"/>
        <pt x="201" y="0" on="1"/>
        <pt x="260" y="423" on="1"/>
        <pt x="226" y="423" on="0"/>
        <pt x="170" y="448" on="0"/>
        <pt x="132" y="492" on="0"/>
        <pt x="115" y="552" on="0"/>
        <pt x="120" y="586" on="1"/>
        <pt x="125" y="620" on="0"/>
        <pt x="159" y="680" on="0"/>
        <pt x="209" y="724" on="0"/>
        <pt x="272" y="750" on="0"/>
        <pt x="306" y="750" on="1"/>
        <pt x="621" y="750" on="1"/>
        <pt x="611" y="680" on="1"/>
        <pt x="542" y="680" on="1"/>
        <pt x="456" y="70" on="1"/>
        <pt x="525" y="70" on="1"/>
        <pt x="516" y="0" on="1"/>
        <pt x="364" y="0" on="1"/>
        <pt x="459" y="680" on="1"/>
        <pt x="379" y="680" on="1"/>
      </contour>
    </TTGlyph>
    <TTGlyph name="parenleft" xMin="104" yMin="-164" xMax="413" yMax="746">
      <contour>
        <pt x="115" y="291" on="1"/>
        <pt x="125" y="366" on="0"/>
        <pt x="172" y="502" on="0"/>
        <pt x="235" y="618" on="0"/>
        <pt x="307" y="713" on="0"/>
        <pt x="343" y="746" on="1"/>
        <pt x="360" y="740" on="0"/>
        <pt x="396" y="729" on="0"/>
        <pt x="413" y="723" on="1"/>
        <pt x="380" y="690" on="0"/>
        <pt x="312" y="600" on="0"/>
        <pt x="253" y="490" on="0"/>
        <pt x="209" y="362" on="0"/>
        <pt x="199" y="291" on="1"/>
        <pt x="189" y="220" on="0"/>
        <pt x="197" y="92" on="0"/>
        <pt x="225" y="-18" on="0"/>
        <pt x="268" y="-108" on="0"/>
        <pt x="292" y="-141" on="1"/>
        <pt x="273" y="-147" on="0"/>
        <pt x="235" y="-158" on="0"/>
        <pt x="216" y="-164" on="1"/>
        <pt x="189" y="-131" on="0"/>
        <pt x="143" y="-36" on="0"/>
        <pt x="113" y="80" on="0"/>
        <pt x="104" y="216" on="0"/>
      </contour>
    </TTGlyph>
    <TTGlyph name="parenright" xMin="13" yMin="-167" xMax="322" yMax="743">
      <contour>
        <pt x="312" y="288" on="1"/>
        <pt x="301" y="213" on="0"/>
        <pt x="254" y="77" on="0"/>
        <pt x="191" y="-39" on="0"/>
        <pt x="119" y="-134" on="0"/>
        <pt x="83" y="-167" on="1"/>
        <pt x="66" y="-162" on="0"/>
        <pt x="30" y="-151" on="0"/>
        <pt x="13" y="-146" on="1"/>
        <pt x="46" y="-113" on="0"/>
        <pt x="114" y="-23" on="0"/>
        <pt x="173" y="87" on="0"/>
        <pt x="217" y="215" on="0"/>
        <pt x="227" y="286" on="1"/>
        <pt x="237" y="357" on="0"/>
        <pt x="229" y="485" on="0"/>
        <pt x="201" y="595" on="0"/>
        <pt x="158" y="685" on="0"/>
        <pt x="134" y="718" on="1"/>
        <pt x="153" y="724" on="0"/>
        <pt x="191" y="737" on="0"/>
        <pt x="210" y="743" on="1"/>
        <pt x="237" y="710" on="0"/>
        <pt x="283" y="615" on="0"/>
        <pt x="313" y="499" on="0"/>
        <pt x="322" y="363" on="0"/>
      </contour>
    </TTGlyph>
    <TTGlyph name="percent" xMin="105" yMin="-16" xMax="634" yMax="515">
      <contour>
        <pt x="458" y="111" on="1"/>
        <pt x="455" y="91" on="0"/>
        <pt x="476" y="65" on="0"/>
        <pt x="496" y="65" on="1"/>
        <pt x="516" y="65" on="0"/>
        <pt x="543" y="91" on="0"/>
        <pt x="546" y="111" on="1"/>
        <pt x="549" y="131" on="0"/>
        <pt x="528" y="156" on="0"/>
        <pt x="508" y="156" on="1"/>
        <pt x="488" y="156" on="0"/>
        <pt x="461" y="131" on="0"/>
      </contour>
      <contour>
        <pt x="484" y="-16" on="1"/>
        <pt x="458" y="-16" on="0"/>
        <pt x="414" y="4" on="0"/>
        <pt x="384" y="38" on="0"/>
        <pt x="370" y="84" on="0"/>
        <pt x="374" y="111" on="1"/>
        <pt x="378" y="137" on="0"/>
        <pt x="405" y="183" on="0"/>
        <pt x="444" y="217" on="0"/>
        <pt x="494" y="237" on="0"/>
        <pt x="520" y="237" on="1"/>
        <pt x="546" y="237" on="0"/>
        <pt x="590" y="217" on="0"/>
        <pt x="620" y="183" on="0"/>
        <pt x="634" y="137" on="0"/>
        <pt x="630" y="111" on="1"/>
        <pt x="626" y="84" on="0"/>
        <pt x="599" y="38" on="0"/>
        <pt x="559" y="4" on="0"/>
        <pt x="510" y="-16" on="0"/>
      </contour>
      <contour>
        <pt x="193" y="389" on="1"/>
        <pt x="190" y="369" on="0"/>
        <pt x="211" y="343" on="0"/>
        <pt x="231" y="343" on="1"/>
        <pt x="251" y="343" on="0"/>
        <pt x="278" y="369" on="0"/>
        <pt x="281" y="389" on="1"/>
        <pt x="284" y="409" on="0"/>
        <pt x="263" y="434" on="0"/>
        <pt x="243" y="434" on="1"/>
        <pt x="223" y="434" on="0"/>
        <pt x="196" y="409" on="0"/>
      </contour>
      <contour>
        <pt x="219" y="262" on="1"/>
        <pt x="193" y="262" on="0"/>
        <pt x="149" y="282" on="0"/>
        <pt x="119" y="316" on="0"/>
        <pt x="105" y="362" on="0"/>
        <pt x="109" y="389" on="1"/>
        <pt x="113" y="415" on="0"/>
        <pt x="140" y="461" on="0"/>
        <pt x="179" y="495" on="0"/>
        <pt x="229" y="515" on="0"/>
        <pt x="255" y="515" on="1"/>
        <pt x="281" y="515" on="0"/>
        <pt x="325" y="495" on="0"/>
        <pt x="355" y="461" on="0"/>
        <pt x="369" y="415" on="0"/>
        <pt x="365" y="389" on="1"/>
        <pt x="361" y="362" on="0"/>
        <pt x="334" y="316" on="0"/>
        <pt x="294" y="282" on="0"/>
        <pt x="245" y="262" on="0"/>
      </contour>
      <contour>
        <pt x="138" y="0" on="1"/>
        <pt x="231" y="126" on="0"/>
        <pt x="414" y="374" on="0"/>
        <pt x="507" y="500" on="1"/>
        <pt x="598" y="500" on="1"/>
        <pt x="505" y="374" on="0"/>
        <pt x="322" y="126" on="0"/>
        <pt x="229" y="0" on="1"/>
      </contour>
    </TTGlyph>
    <TTGlyph name="period" xMin="29" yMin="0" xMax="139" yMax="105">
      <contour>
        <pt x="32" y="52" on="1"/>
        <pt x="36" y="75" on="0"/>
        <pt x="72" y="105" on="0"/>
        <pt x="92" y="105" on="1"/>
        <pt x="111" y="105" on="0"/>
        <pt x="139" y="75" on="0"/>
        <pt x="135" y="52" on="1"/>
        <pt x="132" y="29" on="0"/>
        <pt x="96" y="0" on="0"/>
        <pt x="77" y="0" on="1"/>
        <pt x="57" y="0" on="0"/>
        <pt x="29" y="29" on="0"/>
      </contour>
    </TTGlyph>
    <TTGlyph name="periodcentered" xMin="30" yMin="230" xMax="140" yMax="335">
      <component glyphName="period" x="1" y="230" flags="0x4"/>
    </TTGlyph>
    <TTGlyph name="plus" xMin="80" yMin="51" xMax="451" yMax="411">
      <contour>
        <pt x="198" y="51" on="1"/>
        <pt x="218" y="190" on="1"/>
        <pt x="80" y="190" on="1"/>
        <pt x="91" y="271" on="1"/>
        <pt x="229" y="271" on="1"/>
        <pt x="249" y="411" on="1"/>
        <pt x="333" y="411" on="1"/>
        <pt x="313" y="271" on="1"/>
        <pt x="451" y="271" on="1"/>
        <pt x="440" y="190" on="1"/>
        <pt x="302" y="190" on="1"/>
        <pt x="282" y="51" on="1"/>
      </contour>
    </TTGlyph>
    <TTGlyph name="plusminus" xMin="86" yMin="100" xMax="492" yMax="571">
      <contour>
        <pt x="239" y="211" on="1"/>
        <pt x="259" y="350" on="1"/>
        <pt x="121" y="350" on="1"/>
        <pt x="132" y="431" on="1"/>
        <pt x="270" y="431" on="1"/>
        <pt x="290" y="571" on="1"/>
        <pt x="374" y="571" on="1"/>
        <pt x="354" y="431" on="1"/>
        <pt x="492" y="431" on="1"/>
        <pt x="481" y="350" on="1"/>
        <pt x="343" y="350" on="1"/>
        <pt x="323" y="211" on="1"/>
      </contour>
      <contour>
        <pt x="446" y="100" on="1"/>
        <pt x="86" y="100" on="1"/>
        <pt x="97" y="181" on="1"/>
        <pt x="457" y="181" on="1"/>
      </contour>
    </TTGlyph>
    <TTGlyph name="q" xMin="90" yMin="-250" xMax="603" yMax="384">
      <contour>
        <pt x="288" y="-171" on="1"/>
        <pt x="364" y="-171" on="1"/>
        <pt x="390" y="19" on="1"/>
        <pt x="392" y="24" on="0"/>
        <pt x="399" y="33" on="0"/>
        <pt x="402" y="38" on="1"/>
        <pt x="399" y="34" on="0"/>
        <pt x="376" y="19" on="0"/>
        <pt x="342" y="3" on="0"/>
        <pt x="296" y="-9" on="0"/>
        <pt x="269" y="-9" on="1"/>
        <pt x="227" y="-9" on="0"/>
        <pt x="158" y="22" on="0"/>
        <pt x="111" y="76" on="0"/>
        <pt x="90" y="148" on="0"/>
        <pt x="96" y="188" on="1"/>
        <pt x="102" y="228" on="0"/>
        <pt x="143" y="299" on="0"/>
        <pt x="205" y="353" on="0"/>
        <pt x="283" y="384" on="0"/>
        <pt x="325" y="384" on="1"/>
        <pt x="351" y="384" on="0"/>
        <pt x="394" y="369" on="0"/>
        <pt x="425" y="350" on="0"/>
        <pt x="443" y="331" on="0"/>
        <pt x="444" y="328" on="1"/>
        <pt x="446" y="339" on="0"/>
        <pt x="452" y="363" on="0"/>
        <pt x="454" y="375" on="1"/>
        <pt x="603" y="375" on="1"/>
        <pt x="592" y="296" on="1"/>
        <pt x="512" y="296" on="1"/>
        <pt x="447" y="-171" on="1"/>
        <pt x="510" y="-171" on="1"/>
        <pt x="499" y="-250" on="1"/>
        <pt x="277" y="-250" on="1"/>
      </contour>
      <contour>
        <pt x="180" y="188" on="1"/>
        <pt x="173" y="139" on="0"/>
        <pt x="229" y="72" on="0"/>
        <pt x="281" y="72" on="1"/>
        <pt x="307" y="72" on="0"/>
        <pt x="352" y="90" on="0"/>
        <pt x="388" y="121" on="0"/>
        <pt x="411" y="164" on="0"/>
        <pt x="414" y="188" on="1"/>
        <pt x="421" y="238" on="0"/>
        <pt x="365" y="303" on="0"/>
        <pt x="313" y="303" on="1"/>
        <pt x="287" y="303" on="0"/>
        <pt x="242" y="286" on="0"/>
        <pt x="206" y="255" on="0"/>
        <pt x="183" y="213" on="0"/>
      </contour>
    </TTGlyph>
    <TTGlyph name="question" xMin="70" yMin="0" xMax="467" yMax="732">
      <contour>
        <pt x="140" y="552" on="1"/>
        <pt x="123" y="559" on="0"/>
        <pt x="87" y="572" on="0"/>
        <pt x="70" y="579" on="1"/>
        <pt x="80" y="601" on="0"/>
        <pt x="114" y="654" on="0"/>
        <pt x="167" y="700" on="0"/>
        <pt x="241" y="732" on="0"/>
        <pt x="292" y="732" on="1"/>
        <pt x="333" y="732" on="0"/>
        <pt x="401" y="701" on="0"/>
        <pt x="446" y="648" on="0"/>
        <pt x="467" y="577" on="0"/>
        <pt x="461" y="537" on="1"/>
        <pt x="453" y="481" on="0"/>
        <pt x="389" y="398" on="0"/>
        <pt x="338" y="364" on="1"/>
        <pt x="323" y="354" on="0"/>
        <pt x="288" y="333" on="0"/>
        <pt x="256" y="306" on="0"/>
        <pt x="233" y="269" on="0"/>
        <pt x="229" y="242" on="1"/>
        <pt x="218" y="164" on="1"/>
        <pt x="134" y="164" on="1"/>
        <pt x="148" y="261" on="1"/>
        <pt x="152" y="293" on="0"/>
        <pt x="179" y="333" on="0"/>
        <pt x="216" y="364" on="0"/>
        <pt x="263" y="391" on="0"/>
        <pt x="288" y="409" on="1"/>
        <pt x="328" y="436" on="0"/>
        <pt x="371" y="500" on="0"/>
        <pt x="376" y="537" on="1"/>
        <pt x="383" y="586" on="0"/>
        <pt x="331" y="651" on="0"/>
        <pt x="281" y="651" on="1"/>
        <pt x="225" y="651" on="0"/>
        <pt x="162" y="601" on="0"/>
      </contour>
      <contour>
        <pt x="152" y="0" on="1"/>
        <pt x="132" y="0" on="0"/>
        <pt x="104" y="29" on="0"/>
        <pt x="107" y="52" on="1"/>
        <pt x="111" y="75" on="0"/>
        <pt x="147" y="105" on="0"/>
        <pt x="167" y="105" on="1"/>
        <pt x="186" y="105" on="0"/>
        <pt x="214" y="75" on="0"/>
        <pt x="210" y="52" on="1"/>
        <pt x="207" y="29" on="0"/>
        <pt x="171" y="0" on="0"/>
      </contour>
    </TTGlyph>
    <TTGlyph name="questiondown" xMin="1" yMin="-193" xMax="398" yMax="539">
      <component glyphName="question" x="468" y="539" scale="-0.999938964844" flags="0x4"/>
    </TTGlyph>
    <TTGlyph name="quotedbl" xMin="45" yMin="472" xMax="296" yMax="720">
      <contour>
        <pt x="178" y="472" on="1"/>
        <pt x="213" y="720" on="1"/>
        <pt x="296" y="720" on="1"/>
        <pt x="286" y="657" on="0"/>
        <pt x="267" y="535" on="0"/>
        <pt x="257" y="472" on="1"/>
      </contour>
      <contour>
        <pt x="45" y="472" on="1"/>
        <pt x="80" y="720" on="1"/>
        <pt x="163" y="720" on="1"/>
        <pt x="153" y="657" on="0"/>
        <pt x="134" y="535" on="0"/>
        <pt x="124" y="472" on="1"/>
      </contour>
    </TTGlyph>
    <TTGlyph name="quotedblbase" xMin="22" yMin="-53" xMax="230" yMax="92">
      <contour>
        <pt x="60" y="-53" on="1"/>
        <pt x="50" y="-47" on="0"/>
        <pt x="32" y="-35" on="0"/>
        <pt x="22" y="-29" on="1"/>
        <pt x="46" y="-9" on="0"/>
        <pt x="73" y="50" on="0"/>
        <pt x="71" y="85" on="1"/>
        <pt x="84" y="87" on="0"/>
        <pt x="111" y="90" on="0"/>
        <pt x="124" y="92" on="1"/>
        <pt x="126" y="50" on="0"/>
        <pt x="92" y="-25" on="0"/>
      </contour>
      <contour>
        <pt x="164" y="-53" on="1"/>
        <pt x="154" y="-47" on="0"/>
        <pt x="136" y="-35" on="0"/>
        <pt x="126" y="-29" on="1"/>
        <pt x="150" y="-9" on="0"/>
        <pt x="177" y="50" on="0"/>
        <pt x="175" y="85" on="1"/>
        <pt x="188" y="87" on="0"/>
        <pt x="215" y="90" on="0"/>
        <pt x="228" y="92" on="1"/>
        <pt x="230" y="50" on="0"/>
        <pt x="196" y="-25" on="0"/>
      </contour>
    </TTGlyph>
    <TTGlyph name="quotedblleft" xMin="37" yMin="566" xMax="223" yMax="711">
      <contour>
        <pt x="223" y="590" on="1"/>
        <pt x="212" y="584" on="0"/>
        <pt x="190" y="572" on="0"/>
        <pt x="179" y="566" on="1"/>
        <pt x="155" y="594" on="0"/>
        <pt x="141" y="669" on="0"/>
        <pt x="155" y="711" on="1"/>
        <pt x="168" y="709" on="0"/>
        <pt x="193" y="706" on="0"/>
        <pt x="206" y="704" on="1"/>
        <pt x="194" y="669" on="0"/>
        <pt x="205" y="610" on="0"/>
      </contour>
      <contour>
        <pt x="119" y="590" on="1"/>
        <pt x="108" y="584" on="0"/>
        <pt x="86" y="572" on="0"/>
        <pt x="75" y="566" on="1"/>
        <pt x="51" y="594" on="0"/>
        <pt x="37" y="669" on="0"/>
        <pt x="51" y="711" on="1"/>
        <pt x="64" y="709" on="0"/>
        <pt x="89" y="706" on="0"/>
        <pt x="102" y="704" on="1"/>
        <pt x="90" y="669" on="0"/>
        <pt x="101" y="610" on="0"/>
      </contour>
    </TTGlyph>
    <TTGlyph name="quotedblright" xMin="14" yMin="566" xMax="222" yMax="711">
      <contour>
        <pt x="52" y="566" on="1"/>
        <pt x="42" y="572" on="0"/>
        <pt x="24" y="584" on="0"/>
        <pt x="14" y="590" on="1"/>
        <pt x="38" y="610" on="0"/>
        <pt x="65" y="669" on="0"/>
        <pt x="63" y="704" on="1"/>
        <pt x="76" y="706" on="0"/>
        <pt x="103" y="709" on="0"/>
        <pt x="116" y="711" on="1"/>
        <pt x="118" y="669" on="0"/>
        <pt x="84" y="594" on="0"/>
      </contour>
      <contour>
        <pt x="156" y="566" on="1"/>
        <pt x="146" y="572" on="0"/>
        <pt x="128" y="584" on="0"/>
        <pt x="118" y="590" on="1"/>
        <pt x="142" y="610" on="0"/>
        <pt x="169" y="669" on="0"/>
        <pt x="167" y="704" on="1"/>
        <pt x="180" y="706" on="0"/>
        <pt x="207" y="709" on="0"/>
        <pt x="220" y="711" on="1"/>
        <pt x="222" y="669" on="0"/>
        <pt x="188" y="594" on="0"/>
      </contour>
    </TTGlyph>
    <TTGlyph name="quoteleft" xMin="37" yMin="566" xMax="119" yMax="711">
      <contour>
        <pt x="119" y="590" on="1"/>
        <pt x="108" y="584" on="0"/>
        <pt x="86" y="572" on="0"/>
        <pt x="75" y="566" on="1"/>
        <pt x="51" y="594" on="0"/>
        <pt x="37" y="669" on="0"/>
        <pt x="51" y="711" on="1"/>
        <pt x="64" y="709" on="0"/>
        <pt x="89" y="706" on="0"/>
        <pt x="102" y="704" on="1"/>
        <pt x="90" y="669" on="0"/>
        <pt x="101" y="610" on="0"/>
      </contour>
    </TTGlyph>
    <TTGlyph name="quoteright" xMin="38" yMin="566" xMax="142" yMax="711">
      <contour>
        <pt x="76" y="566" on="1"/>
        <pt x="66" y="572" on="0"/>
        <pt x="48" y="584" on="0"/>
        <pt x="38" y="590" on="1"/>
        <pt x="62" y="610" on="0"/>
        <pt x="89" y="669" on="0"/>
        <pt x="87" y="704" on="1"/>
        <pt x="100" y="706" on="0"/>
        <pt x="127" y="709" on="0"/>
        <pt x="140" y="711" on="1"/>
        <pt x="142" y="669" on="0"/>
        <pt x="108" y="594" on="0"/>
      </contour>
    </TTGlyph>
    <TTGlyph name="quotesinglbase" xMin="22" yMin="-53" xMax="126" yMax="92">
      <contour>
        <pt x="60" y="-53" on="1"/>
        <pt x="50" y="-47" on="0"/>
        <pt x="32" y="-35" on="0"/>
        <pt x="22" y="-29" on="1"/>
        <pt x="46" y="-9" on="0"/>
        <pt x="73" y="50" on="0"/>
        <pt x="71" y="85" on="1"/>
        <pt x="84" y="87" on="0"/>
        <pt x="111" y="90" on="0"/>
        <pt x="124" y="92" on="1"/>
        <pt x="126" y="50" on="0"/>
        <pt x="92" y="-25" on="0"/>
      </contour>
    </TTGlyph>
    <TTGlyph name="quotesingle" xMin="24" yMin="472" xMax="143" yMax="720">
      <contour>
        <pt x="24" y="472" on="1"/>
        <pt x="59" y="720" on="1"/>
        <pt x="143" y="720" on="1"/>
        <pt x="133" y="657" on="0"/>
        <pt x="114" y="535" on="0"/>
        <pt x="104" y="472" on="1"/>
      </contour>
    </TTGlyph>
    <TTGlyph name="r" xMin="35" yMin="0" xMax="388" yMax="384">
      <contour>
        <pt x="46" y="79" on="1"/>
        <pt x="122" y="79" on="1"/>
        <pt x="152" y="296" on="1"/>
        <pt x="86" y="296" on="1"/>
        <pt x="97" y="375" on="1"/>
        <pt x="236" y="375" on="1"/>
        <pt x="235" y="366" on="1"/>
        <pt x="233" y="342" on="0"/>
        <pt x="232" y="303" on="0"/>
        <pt x="230" y="279" on="1"/>
        <pt x="245" y="304" on="0"/>
        <pt x="288" y="343" on="0"/>
        <pt x="332" y="370" on="0"/>
        <pt x="373" y="384" on="0"/>
        <pt x="388" y="384" on="1"/>
        <pt x="371" y="302" on="1"/>
        <pt x="341" y="302" on="0"/>
        <pt x="288" y="284" on="0"/>
        <pt x="248" y="252" on="0"/>
        <pt x="223" y="208" on="0"/>
        <pt x="219" y="182" on="1"/>
        <pt x="205" y="79" on="1"/>
        <pt x="268" y="79" on="1"/>
        <pt x="257" y="0" on="1"/>
        <pt x="35" y="0" on="1"/>
      </contour>
    </TTGlyph>
    <TTGlyph name="registered" xMin="165" yMin="111" xMax="707" yMax="634">
      <contour>
        <pt x="405" y="148" on="1"/>
        <pt x="452" y="148" on="0"/>
        <pt x="538" y="182" on="0"/>
        <pt x="607" y="242" on="0"/>
        <pt x="652" y="324" on="0"/>
        <pt x="659" y="372" on="1"/>
        <pt x="666" y="421" on="0"/>
        <pt x="643" y="503" on="0"/>
        <pt x="592" y="563" on="0"/>
        <pt x="515" y="597" on="0"/>
        <pt x="468" y="597" on="1"/>
        <pt x="421" y="597" on="0"/>
        <pt x="334" y="563" on="0"/>
        <pt x="266" y="503" on="0"/>
        <pt x="220" y="421" on="0"/>
        <pt x="213" y="372" on="1"/>
        <pt x="206" y="324" on="0"/>
        <pt x="229" y="242" on="0"/>
        <pt x="281" y="182" on="0"/>
        <pt x="358" y="148" on="0"/>
      </contour>
      <contour>
        <pt x="400" y="111" on="1"/>
        <pt x="346" y="111" on="0"/>
        <pt x="256" y="151" on="0"/>
        <pt x="194" y="221" on="0"/>
        <pt x="165" y="316" on="0"/>
        <pt x="173" y="372" on="1"/>
        <pt x="181" y="429" on="0"/>
        <pt x="236" y="525" on="0"/>
        <pt x="318" y="595" on="0"/>
        <pt x="419" y="634" on="0"/>
        <pt x="473" y="634" on="1"/>
        <pt x="527" y="634" on="0"/>
        <pt x="617" y="595" on="0"/>
        <pt x="679" y="525" on="0"/>
        <pt x="707" y="429" on="0"/>
        <pt x="699" y="372" on="1"/>
        <pt x="691" y="316" on="0"/>
        <pt x="636" y="221" on="0"/>
        <pt x="555" y="151" on="0"/>
        <pt x="454" y="111" on="0"/>
      </contour>
      <contour>
        <pt x="315" y="247" on="1"/>
        <pt x="336" y="247" on="1"/>
        <pt x="372" y="504" on="1"/>
        <pt x="351" y="504" on="1"/>
        <pt x="356" y="541" on="1"/>
        <pt x="456" y="541" on="1"/>
        <pt x="472" y="541" on="0"/>
        <pt x="510" y="531" on="0"/>
        <pt x="540" y="509" on="0"/>
        <pt x="558" y="475" on="0"/>
        <pt x="555" y="451" on="1"/>
        <pt x="550" y="416" on="0"/>
        <pt x="508" y="368" on="0"/>
        <pt x="473" y="360" on="1"/>
        <pt x="510" y="247" on="1"/>
        <pt x="555" y="247" on="1"/>
        <pt x="549" y="210" on="1"/>
        <pt x="480" y="210" on="1"/>
        <pt x="431" y="358" on="1"/>
        <pt x="411" y="358" on="1"/>
        <pt x="391" y="358" on="1"/>
        <pt x="375" y="247" on="1"/>
        <pt x="430" y="247" on="1"/>
        <pt x="424" y="210" on="1"/>
        <pt x="310" y="210" on="1"/>
      </contour>
      <contour>
        <pt x="396" y="395" on="1"/>
        <pt x="438" y="395" on="1"/>
        <pt x="459" y="395" on="0"/>
        <pt x="487" y="406" on="0"/>
        <pt x="505" y="422" on="0"/>
        <pt x="514" y="442" on="0"/>
        <pt x="516" y="451" on="1"/>
        <pt x="519" y="472" on="0"/>
        <pt x="483" y="504" on="0"/>
        <pt x="453" y="504" on="1"/>
        <pt x="412" y="504" on="1"/>
      </contour>
    </TTGlyph>
    <TTGlyph name="s" xMin="52" yMin="-8" xMax="335" yMax="384">
      <contour>
        <pt x="138" y="120" on="1"/>
        <pt x="133" y="81" on="1"/>
        <pt x="144" y="76" on="0"/>
        <pt x="167" y="73" on="0"/>
        <pt x="184" y="73" on="1"/>
        <pt x="185" y="73" on="0"/>
        <pt x="198" y="74" on="0"/>
        <pt x="215" y="81" on="0"/>
        <pt x="230" y="95" on="0"/>
        <pt x="233" y="109" on="1"/>
        <pt x="237" y="127" on="0"/>
        <pt x="217" y="146" on="0"/>
        <pt x="184" y="159" on="0"/>
        <pt x="143" y="172" on="0"/>
        <pt x="110" y="195" on="0"/>
        <pt x="92" y="237" on="0"/>
        <pt x="97" y="272" on="1"/>
        <pt x="101" y="303" on="0"/>
        <pt x="131" y="345" on="0"/>
        <pt x="171" y="372" on="0"/>
        <pt x="215" y="384" on="0"/>
        <pt x="232" y="384" on="1"/>
        <pt x="242" y="384" on="0"/>
        <pt x="270" y="380" on="0"/>
        <pt x="299" y="370" on="0"/>
        <pt x="326" y="354" on="0"/>
        <pt x="335" y="342" on="1"/>
        <pt x="322" y="255" on="1"/>
        <pt x="248" y="255" on="1"/>
        <pt x="255" y="298" on="1"/>
        <pt x="240" y="303" on="0"/>
        <pt x="225" y="303" on="1"/>
        <pt x="203" y="303" on="0"/>
        <pt x="180" y="284" on="0"/>
        <pt x="180" y="268" on="1"/>
        <pt x="181" y="256" on="0"/>
        <pt x="204" y="241" on="0"/>
        <pt x="238" y="227" on="0"/>
        <pt x="275" y="209" on="0"/>
        <pt x="305" y="182" on="0"/>
        <pt x="321" y="141" on="0"/>
        <pt x="317" y="110" on="1"/>
        <pt x="315" y="96" on="0"/>
        <pt x="299" y="56" on="0"/>
        <pt x="266" y="18" on="0"/>
        <pt x="212" y="-8" on="0"/>
        <pt x="172" y="-8" on="1"/>
        <pt x="135" y="-8" on="0"/>
        <pt x="69" y="11" on="0"/>
        <pt x="52" y="33" on="1"/>
        <pt x="64" y="120" on="1"/>
      </contour>
    </TTGlyph>
    <TTGlyph name="section" xMin="172" yMin="-50" xMax="459" yMax="762">
      <contour>
        <pt x="251" y="360" on="1"/>
        <pt x="247" y="333" on="0"/>
        <pt x="279" y="296" on="0"/>
        <pt x="306" y="296" on="1"/>
        <pt x="332" y="296" on="0"/>
        <pt x="375" y="333" on="0"/>
        <pt x="379" y="360" on="1"/>
        <pt x="383" y="386" on="0"/>
        <pt x="351" y="424" on="0"/>
        <pt x="324" y="424" on="1"/>
        <pt x="298" y="424" on="0"/>
        <pt x="255" y="387" on="0"/>
      </contour>
      <contour>
        <pt x="244" y="148" on="1"/>
        <pt x="223" y="192" on="0"/>
        <pt x="198" y="244" on="0"/>
        <pt x="186" y="271" on="0"/>
        <pt x="184" y="280" on="0"/>
        <pt x="184" y="282" on="1"/>
        <pt x="174" y="305" on="0"/>
        <pt x="172" y="358" on="0"/>
        <pt x="188" y="410" on="0"/>
        <pt x="220" y="456" on="0"/>
        <pt x="243" y="473" on="1"/>
        <pt x="275" y="496" on="0"/>
        <pt x="317" y="500" on="1"/>
        <pt x="309" y="517" on="0"/>
        <pt x="294" y="551" on="0"/>
        <pt x="286" y="569" on="1"/>
        <pt x="272" y="602" on="0"/>
        <pt x="267" y="649" on="0"/>
        <pt x="279" y="684" on="0"/>
        <pt x="306" y="708" on="0"/>
        <pt x="324" y="718" on="1"/>
        <pt x="344" y="729" on="0"/>
        <pt x="385" y="751" on="0"/>
        <pt x="405" y="762" on="1"/>
        <pt x="420" y="728" on="0"/>
        <pt x="437" y="692" on="1"/>
        <pt x="426" y="687" on="0"/>
        <pt x="406" y="675" on="0"/>
        <pt x="395" y="670" on="1"/>
        <pt x="382" y="662" on="0"/>
        <pt x="367" y="648" on="0"/>
        <pt x="362" y="628" on="0"/>
        <pt x="369" y="601" on="0"/>
        <pt x="378" y="580" on="1"/>
        <pt x="379" y="580" on="1"/>
        <pt x="396" y="542" on="0"/>
        <pt x="430" y="469" on="0"/>
        <pt x="447" y="431" on="1"/>
        <pt x="458" y="408" on="0"/>
        <pt x="459" y="356" on="0"/>
        <pt x="443" y="305" on="0"/>
        <pt x="410" y="259" on="0"/>
        <pt x="386" y="243" on="1"/>
        <pt x="354" y="220" on="0"/>
        <pt x="312" y="214" on="1"/>
        <pt x="327" y="180" on="0"/>
        <pt x="344" y="144" on="1"/>
        <pt x="359" y="111" on="0"/>
        <pt x="364" y="63" on="0"/>
        <pt x="352" y="28" on="0"/>
        <pt x="325" y="3" on="0"/>
        <pt x="307" y="-7" on="1"/>
        <pt x="287" y="-18" on="0"/>
        <pt x="248" y="-39" on="0"/>
        <pt x="228" y="-50" on="1"/>
        <pt x="220" y="-33" on="0"/>
        <pt x="203" y="3" on="0"/>
        <pt x="195" y="20" on="1"/>
        <pt x="206" y="26" on="0"/>
        <pt x="227" y="37" on="0"/>
        <pt x="238" y="43" on="1"/>
        <pt x="251" y="50" on="0"/>
        <pt x="266" y="66" on="0"/>
        <pt x="267" y="89" on="0"/>
        <pt x="256" y="122" on="0"/>
      </contour>
    </TTGlyph>
    <TTGlyph name="semicolon" xMin="-45" yMin="-120" xMax="196" yMax="355">
      <contour>
        <pt x="89" y="302" on="1"/>
        <pt x="93" y="325" on="0"/>
        <pt x="129" y="355" on="0"/>
        <pt x="149" y="355" on="1"/>
        <pt x="168" y="355" on="0"/>
        <pt x="196" y="325" on="0"/>
        <pt x="192" y="302" on="1"/>
        <pt x="189" y="279" on="0"/>
        <pt x="153" y="250" on="0"/>
        <pt x="134" y="250" on="1"/>
        <pt x="114" y="250" on="0"/>
        <pt x="86" y="279" on="0"/>
      </contour>
      <contour>
        <pt x="144" y="86" on="1"/>
        <pt x="115" y="34" on="0"/>
        <pt x="58" y="-68" on="0"/>
        <pt x="29" y="-120" on="1"/>
        <pt x="-45" y="-120" on="1"/>
        <pt x="-18" y="-68" on="0"/>
        <pt x="33" y="34" on="0"/>
        <pt x="60" y="86" on="1"/>
      </contour>
    </TTGlyph>
    <TTGlyph name="seven" xMin="-5" yMin="0" xMax="472" yMax="650">
      <contour>
        <pt x="472" y="650" on="1"/>
        <pt x="89" y="0" on="1"/>
        <pt x="-5" y="0" on="1"/>
        <pt x="331" y="568" on="1"/>
        <pt x="127" y="568" on="1"/>
        <pt x="120" y="521" on="1"/>
        <pt x="41" y="521" on="1"/>
        <pt x="59" y="650" on="1"/>
      </contour>
    </TTGlyph>
    <TTGlyph name="six" xMin="27" yMin="-8" xMax="475" yMax="637">
      <contour>
        <pt x="119" y="209" on="1"/>
        <pt x="115" y="181" on="0"/>
        <pt x="128" y="132" on="0"/>
        <pt x="159" y="95" on="0"/>
        <pt x="204" y="73" on="0"/>
        <pt x="231" y="73" on="1"/>
        <pt x="259" y="73" on="0"/>
        <pt x="311" y="95" on="0"/>
        <pt x="353" y="132" on="0"/>
        <pt x="382" y="181" on="0"/>
        <pt x="386" y="209" on="1"/>
        <pt x="390" y="237" on="0"/>
        <pt x="375" y="286" on="0"/>
        <pt x="343" y="322" on="0"/>
        <pt x="297" y="343" on="0"/>
        <pt x="269" y="343" on="1"/>
        <pt x="242" y="343" on="0"/>
        <pt x="191" y="322" on="0"/>
        <pt x="150" y="286" on="0"/>
        <pt x="123" y="237" on="0"/>
      </contour>
      <contour>
        <pt x="31" y="197" on="1"/>
        <pt x="41" y="269" on="0"/>
        <pt x="120" y="394" on="0"/>
        <pt x="231" y="502" on="0"/>
        <pt x="362" y="596" on="0"/>
        <pt x="424" y="637" on="1"/>
        <pt x="435" y="621" on="0"/>
        <pt x="456" y="589" on="0"/>
        <pt x="467" y="573" on="1"/>
        <pt x="396" y="530" on="0"/>
        <pt x="295" y="455" on="0"/>
        <pt x="259" y="423" on="1"/>
        <pt x="264" y="423" on="0"/>
        <pt x="275" y="424" on="0"/>
        <pt x="280" y="424" on="1"/>
        <pt x="325" y="424" on="0"/>
        <pt x="400" y="391" on="0"/>
        <pt x="451" y="332" on="0"/>
        <pt x="475" y="254" on="0"/>
        <pt x="469" y="209" on="1"/>
        <pt x="463" y="164" on="0"/>
        <pt x="416" y="85" on="0"/>
        <pt x="348" y="26" on="0"/>
        <pt x="264" y="-8" on="0"/>
        <pt x="219" y="-8" on="1"/>
        <pt x="176" y="-8" on="0"/>
        <pt x="103" y="24" on="0"/>
        <pt x="52" y="79" on="0"/>
        <pt x="27" y="154" on="0"/>
      </contour>
    </TTGlyph>
    <TTGlyph name="slash" xMin="-36" yMin="-19" xMax="432" yMax="736">
      <contour>
        <pt x="-36" y="-19" on="1"/>
        <pt x="61" y="171" on="0"/>
        <pt x="251" y="546" on="0"/>
        <pt x="348" y="736" on="1"/>
        <pt x="432" y="736" on="1"/>
        <pt x="335" y="546" on="0"/>
        <pt x="144" y="171" on="0"/>
        <pt x="47" y="-19" on="1"/>
      </contour>
    </TTGlyph>
    <TTGlyph name="sterling" xMin="29" yMin="0" xMax="588" yMax="634">
      <contour>
        <pt x="547" y="0" on="1"/>
        <pt x="29" y="0" on="1"/>
        <pt x="40" y="81" on="1"/>
        <pt x="84" y="81" on="1"/>
        <pt x="100" y="81" on="0"/>
        <pt x="121" y="88" on="0"/>
        <pt x="136" y="110" on="0"/>
        <pt x="145" y="149" on="0"/>
        <pt x="150" y="181" on="1"/>
        <pt x="163" y="273" on="1"/>
        <pt x="98" y="273" on="1"/>
        <pt x="109" y="354" on="1"/>
        <pt x="174" y="354" on="1"/>
        <pt x="195" y="500" on="1"/>
        <pt x="205" y="569" on="0"/>
        <pt x="330" y="634" on="0"/>
        <pt x="435" y="634" on="1"/>
        <pt x="468" y="634" on="0"/>
        <pt x="519" y="618" on="0"/>
        <pt x="556" y="590" on="0"/>
        <pt x="581" y="554" on="0"/>
        <pt x="588" y="534" on="1"/>
        <pt x="519" y="497" on="1"/>
        <pt x="515" y="504" on="0"/>
        <pt x="505" y="523" on="0"/>
        <pt x="485" y="541" on="0"/>
        <pt x="451" y="553" on="0"/>
        <pt x="423" y="553" on="1"/>
        <pt x="355" y="553" on="0"/>
        <pt x="283" y="525" on="0"/>
        <pt x="276" y="478" on="1"/>
        <pt x="258" y="354" on="1"/>
        <pt x="375" y="354" on="1"/>
        <pt x="364" y="273" on="1"/>
        <pt x="247" y="273" on="1"/>
        <pt x="231" y="163" on="1"/>
        <pt x="227" y="134" on="0"/>
        <pt x="216" y="95" on="0"/>
        <pt x="199" y="81" on="1"/>
        <pt x="474" y="81" on="1"/>
        <pt x="487" y="177" on="1"/>
        <pt x="508" y="177" on="0"/>
        <pt x="551" y="178" on="0"/>
        <pt x="572" y="178" on="1"/>
      </contour>
    </TTGlyph>
    <TTGlyph name="t" xMin="76" yMin="0" xMax="352" yMax="619">
      <contour>
        <pt x="205" y="619" on="1"/>
        <pt x="288" y="619" on="1"/>
        <pt x="254" y="375" on="1"/>
        <pt x="352" y="375" on="1"/>
        <pt x="341" y="294" on="1"/>
        <pt x="243" y="294" on="1"/>
        <pt x="213" y="79" on="1"/>
        <pt x="288" y="79" on="1"/>
        <pt x="277" y="0" on="1"/>
        <pt x="119" y="0" on="1"/>
        <pt x="160" y="294" on="1"/>
        <pt x="76" y="294" on="1"/>
        <pt x="87" y="375" on="1"/>
        <pt x="171" y="375" on="1"/>
      </contour>
    </TTGlyph>
    <TTGlyph name="thorn" xMin="-54" yMin="-250" xMax="490" yMax="750">
      <contour>
        <pt x="-43" y="-171" on="1"/>
        <pt x="33" y="-171" on="1"/>
        <pt x="152" y="671" on="1"/>
        <pt x="75" y="671" on="1"/>
        <pt x="86" y="750" on="1"/>
        <pt x="308" y="750" on="1"/>
        <pt x="297" y="671" on="1"/>
        <pt x="235" y="671" on="1"/>
        <pt x="191" y="360" on="1"/>
        <pt x="187" y="352" on="0"/>
        <pt x="180" y="337" on="0"/>
        <pt x="177" y="329" on="1"/>
        <pt x="179" y="332" on="0"/>
        <pt x="202" y="350" on="0"/>
        <pt x="238" y="368" on="0"/>
        <pt x="285" y="382" on="0"/>
        <pt x="311" y="382" on="1"/>
        <pt x="353" y="382" on="0"/>
        <pt x="422" y="351" on="0"/>
        <pt x="469" y="297" on="0"/>
        <pt x="490" y="226" on="0"/>
        <pt x="485" y="187" on="1"/>
        <pt x="479" y="147" on="0"/>
        <pt x="438" y="76" on="0"/>
        <pt x="376" y="22" on="0"/>
        <pt x="298" y="-9" on="0"/>
        <pt x="256" y="-9" on="1"/>
        <pt x="228" y="-9" on="0"/>
        <pt x="186" y="3" on="0"/>
        <pt x="156" y="18" on="0"/>
        <pt x="139" y="34" on="0"/>
        <pt x="137" y="38" on="1"/>
        <pt x="139" y="33" on="0"/>
        <pt x="141" y="24" on="0"/>
        <pt x="143" y="19" on="1"/>
        <pt x="116" y="-171" on="1"/>
        <pt x="198" y="-171" on="1"/>
        <pt x="187" y="-250" on="1"/>
        <pt x="-54" y="-250" on="1"/>
      </contour>
      <contour>
        <pt x="401" y="188" on="1"/>
        <pt x="408" y="238" on="0"/>
        <pt x="352" y="303" on="0"/>
        <pt x="300" y="303" on="1"/>
        <pt x="274" y="303" on="0"/>
        <pt x="229" y="286" on="0"/>
        <pt x="193" y="255" on="0"/>
        <pt x="170" y="213" on="0"/>
        <pt x="167" y="188" on="1"/>
        <pt x="160" y="139" on="0"/>
        <pt x="215" y="72" on="0"/>
        <pt x="267" y="72" on="1"/>
        <pt x="293" y="72" on="0"/>
        <pt x="339" y="90" on="0"/>
        <pt x="374" y="121" on="0"/>
        <pt x="398" y="164" on="0"/>
      </contour>
    </TTGlyph>
    <TTGlyph name="three" xMin="22" yMin="-8" xMax="478" yMax="650">
      <contour>
        <pt x="154" y="326" on="1"/>
        <pt x="327" y="568" on="1"/>
        <pt x="216" y="568" on="1"/>
        <pt x="210" y="521" on="1"/>
        <pt x="131" y="521" on="1"/>
        <pt x="149" y="650" on="1"/>
        <pt x="478" y="650" on="1"/>
        <pt x="301" y="412" on="1"/>
        <pt x="332" y="400" on="0"/>
        <pt x="381" y="361" on="0"/>
        <pt x="414" y="309" on="0"/>
        <pt x="427" y="245" on="0"/>
        <pt x="422" y="209" on="1"/>
        <pt x="416" y="164" on="0"/>
        <pt x="369" y="85" on="0"/>
        <pt x="301" y="26" on="0"/>
        <pt x="217" y="-8" on="0"/>
        <pt x="172" y="-8" on="1"/>
        <pt x="124" y="-8" on="0"/>
        <pt x="48" y="31" on="0"/>
        <pt x="22" y="63" on="1"/>
        <pt x="91" y="120" on="1"/>
        <pt x="106" y="98" on="0"/>
        <pt x="154" y="73" on="0"/>
        <pt x="184" y="73" on="1"/>
        <pt x="212" y="73" on="0"/>
        <pt x="264" y="95" on="0"/>
        <pt x="306" y="132" on="0"/>
        <pt x="335" y="181" on="0"/>
        <pt x="339" y="209" on="1"/>
        <pt x="343" y="237" on="0"/>
        <pt x="328" y="286" on="0"/>
        <pt x="296" y="322" on="0"/>
        <pt x="250" y="343" on="0"/>
        <pt x="222" y="343" on="1"/>
        <pt x="186" y="343" on="0"/>
      </contour>
    </TTGlyph>
    <TTGlyph name="threequarters" xMin="110" yMin="-19" xMax="1037" yMax="736">
      <component glyphName="three" x="93" y="205" scalex="0.773071289062" scaley="0.773559570312" flags="0x4"/>
      <component glyphName="slash" x="429" y="0" flags="0x4"/>
      <component glyphName="four" x="673" y="0" scalex="0.742980957031" scaley="0.744689941406" flags="0x4"/>
    </TTGlyph>
    <TTGlyph name="threesuperior" xMin="58" yMin="376" xMax="283" yMax="700">
      <component glyphName="three" x="48" y="380" scalex="0.493408203125" scaley="0.492431640625" flags="0x4"/>
    </TTGlyph>
    <TTGlyph name="two" xMin="6" yMin="0" xMax="482" yMax="658">
      <contour>
        <pt x="218" y="81" on="1"/>
        <pt x="382" y="81" on="1"/>
        <pt x="395" y="174" on="1"/>
        <pt x="474" y="174" on="1"/>
        <pt x="449" y="0" on="1"/>
        <pt x="6" y="0" on="1"/>
        <pt x="76" y="62" on="0"/>
        <pt x="209" y="179" on="0"/>
        <pt x="314" y="288" on="0"/>
        <pt x="383" y="391" on="0"/>
        <pt x="390" y="438" on="1"/>
        <pt x="395" y="475" on="0"/>
        <pt x="378" y="527" on="0"/>
        <pt x="346" y="561" on="0"/>
        <pt x="305" y="577" on="0"/>
        <pt x="287" y="577" on="1"/>
        <pt x="249" y="577" on="0"/>
        <pt x="197" y="551" on="0"/>
        <pt x="164" y="513" on="0"/>
        <pt x="147" y="471" on="0"/>
        <pt x="145" y="455" on="1"/>
        <pt x="136" y="391" on="0"/>
        <pt x="170" y="351" on="1"/>
        <pt x="112" y="300" on="1"/>
        <pt x="97" y="311" on="0"/>
        <pt x="75" y="348" on="0"/>
        <pt x="62" y="391" on="0"/>
        <pt x="58" y="436" on="0"/>
        <pt x="61" y="455" on="1"/>
        <pt x="67" y="495" on="0"/>
        <pt x="104" y="569" on="0"/>
        <pt x="166" y="625" on="0"/>
        <pt x="248" y="658" on="0"/>
        <pt x="299" y="658" on="1"/>
        <pt x="345" y="658" on="0"/>
        <pt x="416" y="624" on="0"/>
        <pt x="462" y="567" on="0"/>
        <pt x="482" y="492" on="0"/>
        <pt x="476" y="450" on="1"/>
        <pt x="469" y="400" on="0"/>
        <pt x="421" y="307" on="0"/>
        <pt x="351" y="215" on="0"/>
        <pt x="264" y="126" on="0"/>
      </contour>
    </TTGlyph>
    <TTGlyph name="twosuperior" xMin="80" yMin="375" xMax="315" yMax="699">
      <component glyphName="two" x="78" y="375" scalex="0.493347167969" scaley="0.493896484375" flags="0x4"/>
    </TTGlyph>
    <TTGlyph name="u" xMin="77" yMin="-9" xMax="546" yMax="375">
      <contour>
        <pt x="88" y="375" on="1"/>
        <pt x="237" y="375" on="1"/>
        <pt x="205" y="141" on="1"/>
        <pt x="203" y="114" on="0"/>
        <pt x="232" y="75" on="0"/>
        <pt x="270" y="73" on="1"/>
        <pt x="296" y="73" on="0"/>
        <pt x="346" y="91" on="0"/>
        <pt x="386" y="123" on="0"/>
        <pt x="414" y="167" on="0"/>
        <pt x="418" y="193" on="1"/>
        <pt x="432" y="296" on="1"/>
        <pt x="366" y="296" on="1"/>
        <pt x="377" y="375" on="1"/>
        <pt x="526" y="375" on="1"/>
        <pt x="484" y="70" on="1"/>
        <pt x="546" y="70" on="1"/>
        <pt x="536" y="0" on="1"/>
        <pt x="391" y="0" on="1"/>
        <pt x="398" y="51" on="1"/>
        <pt x="407" y="96" on="1"/>
        <pt x="380" y="48" on="0"/>
        <pt x="284" y="-9" on="0"/>
        <pt x="230" y="-9" on="1"/>
        <pt x="171" y="-9" on="0"/>
        <pt x="111" y="53" on="0"/>
        <pt x="116" y="103" on="1"/>
        <pt x="143" y="296" on="1"/>
        <pt x="77" y="296" on="1"/>
      </contour>
    </TTGlyph>
    <TTGlyph name="uacute" xMin="77" yMin="-9" xMax="546" yMax="612">
      <component glyphName="u" x="0" y="0" flags="0x204"/>
      <component glyphName="acute" x="209" y="0" flags="0x4"/>
    </TTGlyph>
    <TTGlyph name="ucircumflex" xMin="77" yMin="-9" xMax="546" yMax="660">
      <component glyphName="u" x="0" y="0" flags="0x204"/>
      <component glyphName="asciicircum" x="108" y="0" flags="0x4"/>
    </TTGlyph>
    <TTGlyph name="udieresis" xMin="77" yMin="-9" xMax="546" yMax="573">
      <component glyphName="u" x="0" y="0" flags="0x204"/>
      <component glyphName="dieresis" x="160" y="0" flags="0x4"/>
    </TTGlyph>
    <TTGlyph name="ugrave" xMin="77" yMin="-9" xMax="546" yMax="612">
      <component glyphName="u" x="0" y="0" flags="0x204"/>
      <component glyphName="grave" x="236" y="0" flags="0x4"/>
    </TTGlyph>
    <TTGlyph name="underscore" xMin="94" yMin="0" xMax="505" yMax="81">
      <contour>
        <pt x="494" y="0" on="1"/>
        <pt x="94" y="0" on="1"/>
        <pt x="105" y="81" on="1"/>
        <pt x="505" y="81" on="1"/>
      </contour>
    </TTGlyph>
    <TTGlyph name="v" xMin="79" yMin="-23" xMax="604" yMax="375">
      <contour>
        <pt x="90" y="375" on="1"/>
        <pt x="312" y="375" on="1"/>
        <pt x="301" y="296" on="1"/>
        <pt x="249" y="296" on="1"/>
        <pt x="269" y="252" on="0"/>
        <pt x="305" y="164" on="0"/>
        <pt x="313" y="120" on="1"/>
        <pt x="333" y="164" on="0"/>
        <pt x="392" y="252" on="0"/>
        <pt x="424" y="296" on="1"/>
        <pt x="364" y="296" on="1"/>
        <pt x="375" y="375" on="1"/>
        <pt x="604" y="375" on="1"/>
        <pt x="593" y="296" on="1"/>
        <pt x="510" y="296" on="1"/>
        <pt x="456" y="215" on="0"/>
        <pt x="347" y="57" on="0"/>
        <pt x="293" y="-23" on="1"/>
        <pt x="260" y="57" on="0"/>
        <pt x="195" y="216" on="0"/>
        <pt x="163" y="296" on="1"/>
        <pt x="79" y="296" on="1"/>
      </contour>
    </TTGlyph>
    <TTGlyph name="w" xMin="79" yMin="-23" xMax="850" yMax="375">
      <contour>
        <pt x="636" y="375" on="1"/>
        <pt x="850" y="375" on="1"/>
        <pt x="839" y="296" on="1"/>
        <pt x="763" y="296" on="1"/>
        <pt x="712" y="215" on="0"/>
        <pt x="609" y="57" on="0"/>
        <pt x="558" y="-23" on="1"/>
        <pt x="459" y="246" on="1"/>
        <pt x="286" y="-23" on="1"/>
        <pt x="256" y="57" on="0"/>
        <pt x="197" y="216" on="0"/>
        <pt x="168" y="296" on="1"/>
        <pt x="79" y="296" on="1"/>
        <pt x="90" y="375" on="1"/>
        <pt x="297" y="375" on="1"/>
        <pt x="286" y="296" on="1"/>
        <pt x="251" y="296" on="1"/>
        <pt x="267" y="252" on="0"/>
        <pt x="297" y="165" on="0"/>
        <pt x="306" y="120" on="1"/>
        <pt x="322" y="154" on="0"/>
        <pt x="362" y="219" on="0"/>
        <pt x="382" y="252" on="1"/>
        <pt x="389" y="263" on="0"/>
        <pt x="402" y="285" on="0"/>
        <pt x="409" y="296" on="1"/>
        <pt x="358" y="296" on="1"/>
        <pt x="369" y="375" on="1"/>
        <pt x="591" y="375" on="1"/>
        <pt x="580" y="296" on="1"/>
        <pt x="523" y="296" on="1"/>
        <pt x="539" y="252" on="0"/>
        <pt x="569" y="165" on="0"/>
        <pt x="578" y="120" on="1"/>
        <pt x="599" y="165" on="0"/>
        <pt x="652" y="252" on="0"/>
        <pt x="681" y="296" on="1"/>
        <pt x="625" y="296" on="1"/>
      </contour>
    </TTGlyph>
    <TTGlyph name="x" xMin="35" yMin="0" xMax="543" yMax="375">
      <contour>
        <pt x="87" y="375" on="1"/>
        <pt x="309" y="375" on="1"/>
        <pt x="298" y="296" on="1"/>
        <pt x="275" y="296" on="1"/>
        <pt x="310" y="237" on="1"/>
        <pt x="360" y="296" on="1"/>
        <pt x="333" y="296" on="1"/>
        <pt x="344" y="375" on="1"/>
        <pt x="543" y="375" on="1"/>
        <pt x="532" y="296" on="1"/>
        <pt x="459" y="296" on="1"/>
        <pt x="353" y="173" on="1"/>
        <pt x="367" y="149" on="0"/>
        <pt x="395" y="102" on="0"/>
        <pt x="410" y="79" on="1"/>
        <pt x="502" y="79" on="1"/>
        <pt x="491" y="0" on="1"/>
        <pt x="269" y="0" on="1"/>
        <pt x="280" y="79" on="1"/>
        <pt x="305" y="79" on="1"/>
        <pt x="296" y="93" on="0"/>
        <pt x="280" y="119" on="0"/>
        <pt x="272" y="133" on="1"/>
        <pt x="261" y="119" on="0"/>
        <pt x="236" y="93" on="0"/>
        <pt x="225" y="79" on="1"/>
        <pt x="245" y="79" on="1"/>
        <pt x="234" y="0" on="1"/>
        <pt x="35" y="0" on="1"/>
        <pt x="46" y="79" on="1"/>
        <pt x="123" y="79" on="1"/>
        <pt x="149" y="110" on="0"/>
        <pt x="204" y="171" on="0"/>
        <pt x="231" y="202" on="1"/>
        <pt x="217" y="225" on="0"/>
        <pt x="189" y="273" on="0"/>
        <pt x="175" y="296" on="1"/>
        <pt x="76" y="296" on="1"/>
      </contour>
    </TTGlyph>
    <TTGlyph name="y" xMin="92" yMin="-250" xMax="669" yMax="375">
      <contour>
        <pt x="103" y="-171" on="1"/>
        <pt x="193" y="-171" on="1"/>
        <pt x="220" y="-128" on="0"/>
        <pt x="275" y="-42" on="0"/>
        <pt x="303" y="0" on="1"/>
        <pt x="276" y="75" on="0"/>
        <pt x="222" y="221" on="0"/>
        <pt x="195" y="296" on="1"/>
        <pt x="111" y="296" on="1"/>
        <pt x="122" y="375" on="1"/>
        <pt x="344" y="375" on="1"/>
        <pt x="333" y="296" on="1"/>
        <pt x="280" y="296" on="1"/>
        <pt x="302" y="241" on="0"/>
        <pt x="344" y="130" on="0"/>
        <pt x="355" y="74" on="1"/>
        <pt x="381" y="130" on="0"/>
        <pt x="454" y="241" on="0"/>
        <pt x="491" y="296" on="1"/>
        <pt x="429" y="296" on="1"/>
        <pt x="440" y="375" on="1"/>
        <pt x="669" y="375" on="1"/>
        <pt x="658" y="296" on="1"/>
        <pt x="576" y="296" on="1"/>
        <pt x="501" y="178" on="0"/>
        <pt x="351" y="-53" on="0"/>
        <pt x="276" y="-171" on="1"/>
        <pt x="325" y="-171" on="1"/>
        <pt x="314" y="-250" on="1"/>
        <pt x="92" y="-250" on="1"/>
      </contour>
    </TTGlyph>
    <TTGlyph name="yacute" xMin="92" yMin="-250" xMax="669" yMax="612">
      <component glyphName="y" x="0" y="0" flags="0x204"/>
      <component glyphName="acute" x="292" y="0" flags="0x4"/>
    </TTGlyph>
    <TTGlyph name="ydieresis" xMin="92" yMin="-250" xMax="669" yMax="573">
      <component glyphName="y" x="0" y="0" flags="0x204"/>
      <component glyphName="dieresis" x="219" y="0" flags="0x4"/>
    </TTGlyph>
    <TTGlyph name="yen" xMin="122" yMin="0" xMax="852" yMax="700">
      <contour>
        <pt x="577" y="100" on="1"/>
        <pt x="460" y="100" on="1"/>
        <pt x="457" y="79" on="1"/>
        <pt x="530" y="79" on="1"/>
        <pt x="519" y="0" on="1"/>
        <pt x="277" y="0" on="1"/>
        <pt x="288" y="79" on="1"/>
        <pt x="355" y="79" on="1"/>
        <pt x="358" y="100" on="1"/>
        <pt x="243" y="100" on="1"/>
        <pt x="254" y="181" on="1"/>
        <pt x="369" y="181" on="1"/>
        <pt x="380" y="263" on="1"/>
        <pt x="265" y="263" on="1"/>
        <pt x="277" y="344" on="1"/>
        <pt x="348" y="344" on="1"/>
        <pt x="223" y="621" on="1"/>
        <pt x="122" y="621" on="1"/>
        <pt x="133" y="700" on="1"/>
        <pt x="375" y="700" on="1"/>
        <pt x="364" y="621" on="1"/>
        <pt x="324" y="621" on="1"/>
        <pt x="352" y="560" on="0"/>
        <pt x="407" y="438" on="0"/>
        <pt x="435" y="377" on="1"/>
        <pt x="442" y="346" on="1"/>
        <pt x="443" y="346" on="1"/>
        <pt x="459" y="377" on="1"/>
        <pt x="638" y="621" on="1"/>
        <pt x="599" y="621" on="1"/>
        <pt x="610" y="700" on="1"/>
        <pt x="852" y="700" on="1"/>
        <pt x="841" y="621" on="1"/>
        <pt x="740" y="621" on="1"/>
        <pt x="689" y="551" on="0"/>
        <pt x="589" y="413" on="0"/>
        <pt x="538" y="344" on="1"/>
        <pt x="610" y="344" on="1"/>
        <pt x="598" y="263" on="1"/>
        <pt x="482" y="263" on="1"/>
        <pt x="471" y="181" on="1"/>
        <pt x="588" y="181" on="1"/>
      </contour>
    </TTGlyph>
</ttFont>
